<svg width="814" height="156" viewBox="0 0 814 156" fill="none" xmlns="http://www.w3.org/2000/svg">
<path d="M362 66.3774C348.329 65.2424 334.658 64.1004 320.79 62.9444C323.37 59.042 325.83 55.3147 328.304 51.5874C328.226 51.5384 328.148 51.4753 328.077 51.4263C324.338 53.8574 320.585 56.2886 316.662 58.8388C315.495 45.0857 314.343 31.5499 313.184 18C313.106 18 313.007 18.007 312.929 18.007C311.77 31.5429 310.625 45.0717 309.459 58.8318C305.486 56.2535 301.74 53.8154 297.993 51.3843C297.944 51.4473 297.894 51.5174 297.831 51.5874C300.298 55.3147 302.757 59.042 305.323 62.9234C291.398 64.0934 277.699 65.2284 264 66.3774C264 66.4615 264.007 66.5385 264.007 66.6226C277.706 67.7576 291.405 68.8996 305.33 70.0626C302.75 73.965 300.291 77.6993 297.817 81.4266C297.887 81.4896 297.958 81.5387 298.021 81.5877C301.782 79.1496 305.543 76.7115 309.459 74.1612C310.639 87.9423 311.784 101.471 312.929 115C313.021 115 313.106 115 313.198 114.993C314.343 101.443 315.495 87.9073 316.662 74.1682C320.613 76.7395 324.366 79.1636 328.106 81.6017L328.29 81.3916C325.83 77.6713 323.363 73.944 320.79 70.0696C334.687 68.9136 348.343 67.7716 362 66.6366V66.3774ZM313.021 71.2327C310.385 71.2256 308.306 69.1378 308.299 66.5035C308.292 63.9042 310.434 61.7814 313.057 61.7884C315.721 61.7954 317.814 63.8482 317.821 66.4825C317.828 69.1728 315.75 71.2327 313.021 71.2327Z" fill="white"/>
<path d="M308.985 94.8643C296.799 93.6663 285.729 82.8838 284.443 70.553C285.461 70.6301 286.379 70.7282 287.298 70.7492C288.019 70.7632 288.316 71.0435 288.479 71.7651C289.744 77.5732 292.762 82.3234 297.421 86.0366C300.467 88.4677 303.917 90.0932 307.748 90.8779C308.448 91.018 308.794 91.2632 308.794 92.0269C308.78 92.9727 308.907 93.9115 308.985 94.8643Z" fill="#47ABEE"/>
<path d="M308.992 38.1356C308.9 39.2916 308.886 40.3496 308.695 41.3795C308.639 41.6737 308.116 42.017 307.755 42.0941C302.977 43.159 298.834 45.373 295.357 48.792C291.851 52.232 289.532 56.3446 288.5 61.1298C288.309 62.0055 287.956 62.2998 287.1 62.2858C286.288 62.2718 285.468 62.3909 284.655 62.4469C284.612 62.4469 284.563 62.4189 284.513 62.3839C284.499 62.3769 284.485 62.3629 284.471 62.3558C285.595 50.6836 296.233 39.5018 308.992 38.1356Z" fill="#47ABEE"/>
<path d="M341.692 62.489C340.511 62.3909 339.352 62.3419 338.214 62.1597C337.995 62.1247 337.762 61.5992 337.691 61.2629C336.602 56.3727 334.256 52.162 330.643 48.6729C327.229 45.366 323.186 43.1521 318.499 42.1712C317.63 41.989 317.312 41.6387 317.326 40.784C317.34 39.9433 317.206 39.1025 317.128 38.1637C328.813 39.2356 340.285 49.6468 341.692 62.489Z" fill="#47ABEE"/>
<path d="M341.762 70.5391C340.964 76.1089 338.779 80.9432 335.16 85.1258C330.438 90.5906 324.465 93.8555 317.107 94.9975C317.206 93.7294 317.227 92.6645 317.418 91.6345C317.475 91.3403 318.005 91.004 318.372 90.9199C323.235 89.848 327.42 87.55 330.926 84.0679C334.411 80.6069 336.652 76.4452 337.691 71.6741C337.825 71.0435 338.037 70.7773 338.709 70.7703C339.663 70.7562 340.617 70.6301 341.762 70.5391Z" fill="#47ABEE"/>
<path d="M316.457 66.4825C316.478 68.2901 314.93 69.8525 313.092 69.8735C311.254 69.8945 309.678 68.3602 309.671 66.5456C309.671 66.0762 309.763 65.6348 309.939 65.2214C310.024 65.0182 310.123 64.8221 310.243 64.6399C310.837 63.7431 311.862 63.1546 313.028 63.1336C313.947 63.1266 314.803 63.4979 315.425 64.1214C315.509 64.1915 315.58 64.2756 315.651 64.3526C316.138 64.9342 316.442 65.6768 316.457 66.4825Z" fill="#47ABEE"/>
<path d="M305.335 70.0128C291.425 68.8511 277.74 67.7103 264.056 66.5765C264.056 66.5498 264.055 66.5238 264.054 66.4983L264.053 66.4978C264.052 66.4727 264.051 66.4481 264.051 66.4233C270.396 65.8911 276.742 65.3619 283.11 64.8308C290.474 64.2166 297.869 63.5999 305.328 62.9732L305.412 62.9661L305.365 62.8958C304.409 61.45 303.468 60.0255 302.536 58.6145C300.973 56.2484 299.434 53.92 297.893 51.5918C297.93 51.5488 297.963 51.5059 297.993 51.4663C297.997 51.4612 298.001 51.4562 298.005 51.4513C299.883 52.6702 301.761 53.8908 303.668 55.1301C305.552 56.3543 307.464 57.5967 309.431 58.8737L309.501 58.9192L309.508 58.836C309.633 57.3695 309.757 55.9056 309.881 54.444C310.918 42.2073 311.941 30.1345 312.975 18.0564C313.002 18.0557 313.03 18.0546 313.058 18.0535L313.059 18.0535C313.086 18.0524 313.113 18.0513 313.138 18.0507C314.296 31.585 315.447 45.1057 316.612 58.843L316.619 58.9262L316.689 58.8807C318.633 57.617 320.536 56.3823 322.416 55.1623C324.319 53.9269 326.2 52.7066 328.076 51.4867C328.093 51.4989 328.111 51.512 328.129 51.5255C328.163 51.5506 328.199 51.5772 328.234 51.6015C326.358 54.4281 324.49 57.255 322.571 60.1586C321.969 61.0697 321.362 61.9883 320.748 62.9168L320.701 62.9872L320.786 62.9942C324.427 63.2977 328.054 63.6003 331.672 63.902C341.817 64.7481 351.884 65.5877 361.95 66.4234V66.5906C354.625 67.1994 347.299 67.8102 339.937 68.4242C333.589 68.9535 327.213 69.4852 320.786 70.0198L320.701 70.0268L320.748 70.0973C323.314 73.9606 325.774 77.6776 328.227 81.3873L328.097 81.5361C326.042 80.1964 323.982 78.8605 321.888 77.5021C320.183 76.3966 318.456 75.2761 316.689 74.1263L316.619 74.0808L316.612 74.164C316.292 77.9351 315.973 81.6909 315.654 85.4359C314.815 95.3204 313.981 105.13 313.152 114.946C313.093 114.949 313.035 114.95 312.975 114.95C311.831 101.436 310.688 87.9225 309.508 74.157L309.501 74.0737L309.431 74.1193C305.526 76.6629 301.774 79.0949 298.024 81.5266C298.015 81.5197 298.005 81.5128 297.996 81.5059C297.959 81.4779 297.921 81.4496 297.883 81.4175C299.539 78.9218 301.189 76.4227 302.874 73.8719C303.697 72.6256 304.528 71.3669 305.372 70.0902L305.419 70.0198L305.335 70.0128ZM313.021 71.2827H313.021C315.777 71.2827 317.878 69.201 317.871 66.4824C317.864 63.8198 315.748 61.7454 313.057 61.7384C310.407 61.7313 308.242 63.8762 308.249 66.5036C308.256 69.1653 310.357 71.2756 313.021 71.2827Z" fill="white" stroke="#47ABEE" stroke-width="0.1"/>
<path d="M308.985 94.8643C296.799 93.6663 285.729 82.8838 284.443 70.553C285.461 70.6301 286.379 70.7282 287.298 70.7492C288.019 70.7632 288.316 71.0435 288.479 71.7651C289.744 77.5732 292.762 82.3234 297.421 86.0366C300.467 88.4677 303.917 90.0932 307.748 90.8779C308.448 91.018 308.794 91.2632 308.794 92.0269C308.78 92.9727 308.907 93.9115 308.985 94.8643Z" fill="#47ABEE"/>
<path d="M308.992 38.1356C308.9 39.2916 308.886 40.3496 308.695 41.3795C308.639 41.6737 308.116 42.017 307.755 42.0941C302.977 43.159 298.834 45.373 295.357 48.792C291.851 52.232 289.532 56.3446 288.5 61.1298C288.309 62.0055 287.956 62.2998 287.1 62.2858C286.288 62.2718 285.468 62.3909 284.655 62.4469C284.612 62.4469 284.563 62.4189 284.513 62.3839C284.499 62.3769 284.485 62.3629 284.471 62.3558C285.595 50.6836 296.233 39.5018 308.992 38.1356Z" fill="#47ABEE"/>
<path d="M341.692 62.489C340.511 62.3909 339.352 62.3419 338.214 62.1597C337.995 62.1247 337.762 61.5992 337.691 61.2629C336.602 56.3727 334.256 52.162 330.643 48.6729C327.229 45.366 323.186 43.1521 318.499 42.1712C317.63 41.989 317.312 41.6387 317.326 40.784C317.34 39.9433 317.206 39.1025 317.128 38.1637C328.813 39.2356 340.285 49.6468 341.692 62.489Z" fill="#47ABEE"/>
<path d="M341.762 70.5391C340.964 76.1089 338.779 80.9432 335.16 85.1258C330.438 90.5906 324.465 93.8555 317.107 94.9975C317.206 93.7294 317.227 92.6645 317.418 91.6345C317.475 91.3403 318.005 91.004 318.372 90.9199C323.235 89.848 327.42 87.55 330.926 84.0679C334.411 80.6069 336.652 76.4452 337.691 71.6741C337.825 71.0435 338.037 70.7773 338.709 70.7703C339.663 70.7562 340.617 70.6301 341.762 70.5391Z" fill="#47ABEE"/>
<path d="M316.457 66.4825C316.478 68.2901 314.93 69.8525 313.092 69.8735C311.254 69.8945 309.678 68.3602 309.671 66.5456C309.671 66.0762 309.763 65.6348 309.939 65.2214C310.024 65.0182 310.123 64.8221 310.243 64.6399C310.837 63.7431 311.862 63.1546 313.028 63.1336C313.947 63.1266 314.803 63.4979 315.425 64.1214C315.509 64.1915 315.58 64.2756 315.651 64.3526C316.138 64.9342 316.442 65.6768 316.457 66.4825Z" fill="#47ABEE"/>
<path d="M32.928 23.8H6.24V91H32.928C51.456 91 65.28 76.312 65.28 57.4C65.28 38.488 51.456 23.8 32.928 23.8ZM32.928 78.328H19.488V36.472H32.928C44.544 36.472 52.608 45.016 52.608 57.4C52.608 69.784 44.544 78.328 32.928 78.328ZM84.5655 72.088H120.758C121.046 70.456 121.238 68.824 121.238 67C121.238 52.888 111.158 41.656 96.9495 41.656C81.8775 41.656 71.6055 52.696 71.6055 67C71.6055 81.304 81.7815 92.344 97.9095 92.344C107.126 92.344 114.326 88.6 118.838 82.072L108.854 76.312C106.742 79.096 102.902 81.112 98.1015 81.112C91.5735 81.112 86.2935 78.424 84.5655 72.088ZM84.3735 62.488C85.8135 56.344 90.3255 52.792 96.9495 52.792C102.134 52.792 107.318 55.576 108.854 62.488H84.3735ZM139.432 56.632C139.432 54.04 141.928 52.696 145 52.696C148.552 52.696 151.24 54.52 152.68 57.592L163.24 51.832C159.496 45.208 152.776 41.656 145 41.656C135.112 41.656 126.76 47.128 126.76 56.92C126.76 73.816 151.528 69.976 151.528 76.984C151.528 79.768 148.84 81.112 144.904 81.112C140.104 81.112 136.84 78.808 135.496 74.872L124.744 80.92C128.2 88.312 135.304 92.344 144.904 92.344C155.176 92.344 164.2 87.352 164.2 76.984C164.2 59.32 139.432 63.736 139.432 56.632ZM198.214 54.904V43H187.366V29.56L174.982 33.304V43H166.63V54.904H174.982V74.872C174.982 87.832 180.838 92.92 198.214 91V79.768C191.11 80.152 187.366 80.056 187.366 74.872V54.904H198.214ZM213.089 37.24C217.313 37.24 220.769 33.784 220.769 29.656C220.769 25.528 217.313 21.976 213.089 21.976C208.961 21.976 205.505 25.528 205.505 29.656C205.505 33.784 208.961 37.24 213.089 37.24ZM206.945 91H219.329V43H206.945V91ZM257.352 41.656C250.92 41.656 245.928 44.056 243.048 48.376V43H230.664V91H243.048V65.08C243.048 56.728 247.56 53.176 253.608 53.176C259.176 53.176 263.112 56.536 263.112 63.064V91H275.496V61.528C275.496 48.76 267.528 41.656 257.352 41.656Z" fill="white"/>
<path d="M225 110.4V124.704C222.984 121.488 219.576 119.424 215.304 119.424C208.536 119.424 202.92 124.896 202.92 132C202.92 139.104 208.536 144.576 215.304 144.576C219.576 144.576 222.984 142.512 225 139.296V144H228.168V110.4H225ZM215.544 141.504C210.216 141.504 206.088 137.328 206.088 132C206.088 126.672 210.216 122.496 215.544 122.496C220.872 122.496 225 126.672 225 132C225 137.328 220.872 141.504 215.544 141.504ZM246.06 144.576C253.068 144.576 258.684 139.104 258.684 132C258.684 124.896 253.068 119.424 246.06 119.424C239.052 119.424 233.436 124.896 233.436 132C233.436 139.104 239.052 144.576 246.06 144.576ZM246.06 141.504C240.732 141.504 236.604 137.328 236.604 132C236.604 126.672 240.732 122.496 246.06 122.496C251.388 122.496 255.516 126.672 255.516 132C255.516 137.328 251.388 141.504 246.06 141.504ZM307.185 110.4H303.009L291.825 129.12L280.641 110.4H276.465V144H279.825V115.488L291.585 135.168H292.065L303.825 115.488V144H307.185V110.4ZM325.176 112.464L328.536 116.64H332.136L327.048 110.4H323.304L318.216 116.64H321.816L325.176 112.464ZM325.464 119.424C318.024 119.424 312.936 124.944 312.936 132C312.936 139.248 318.12 144.576 325.704 144.576C330.552 144.576 334.248 142.32 336.264 139.056L333.48 137.424C332.184 139.728 329.544 141.504 325.752 141.504C320.664 141.504 316.872 138.48 316.2 133.584H337.272C337.32 133.104 337.368 132.576 337.368 132.096C337.368 125.52 332.808 119.424 325.464 119.424ZM325.464 122.496C329.592 122.496 333.432 125.232 334.104 130.512H316.2C316.824 125.808 320.424 122.496 325.464 122.496ZM343.965 126.288C343.965 123.696 346.509 122.496 349.005 122.496C351.309 122.496 353.757 123.408 354.765 125.856L357.405 124.32C356.013 121.344 352.941 119.424 349.005 119.424C344.205 119.424 340.797 122.448 340.797 126.288C340.797 135.12 354.813 131.712 354.813 137.664C354.813 140.496 352.125 141.504 349.293 141.504C346.077 141.504 343.581 139.92 342.717 137.472L340.029 139.056C341.229 142.128 344.493 144.576 349.293 144.576C354.429 144.576 357.981 141.744 357.981 137.664C357.981 128.832 343.965 132.24 343.965 126.288Z" fill="white"/>
<rect x="376" y="13" width="8.89987" height="130" fill="#47ABEE"/>
<path d="M433.057 98.134C443.506 98.134 452.659 92.869 457.438 84.769L447.799 79.18C445.126 84.121 439.537 87.199 433.057 87.199C421.96 87.199 414.67 79.504 414.67 68.65C414.67 57.715 421.96 50.02 433.057 50.02C439.537 50.02 445.045 53.098 447.799 58.12L457.438 52.531C452.578 44.431 443.425 39.166 433.057 39.166C415.885 39.166 403.573 52.045 403.573 68.65C403.573 85.174 415.885 98.134 433.057 98.134ZM490.562 98.134C506.924 98.134 520.046 85.174 520.046 68.65C520.046 52.045 506.924 39.166 490.562 39.166C474.2 39.166 461.159 52.045 461.159 68.65C461.159 85.174 474.2 98.134 490.562 98.134ZM490.562 87.199C480.275 87.199 472.256 79.504 472.256 68.65C472.256 57.715 480.275 50.02 490.562 50.02C500.849 50.02 508.868 57.715 508.868 68.65C508.868 79.504 500.849 87.199 490.562 87.199ZM539.08 86.308V40.3H527.902V97H560.707V86.308H539.08ZM590.388 98.134C606.75 98.134 619.872 85.174 619.872 68.65C619.872 52.045 606.75 39.166 590.388 39.166C574.026 39.166 560.985 52.045 560.985 68.65C560.985 85.174 574.026 98.134 590.388 98.134ZM590.388 87.199C580.101 87.199 572.082 79.504 572.082 68.65C572.082 57.715 580.101 50.02 590.388 50.02C600.675 50.02 608.694 57.715 608.694 68.65C608.694 79.504 600.675 87.199 590.388 87.199ZM683.213 40.3H671.711L655.511 67.111L639.23 40.3H627.728V97H638.906V60.307L654.863 86.551H656.159L672.116 60.226V97H683.213V40.3ZM728.041 67.597C731.362 64.924 733.387 61.117 733.387 56.257C733.387 46.78 725.692 40.3 716.134 40.3H693.778V97H717.835C727.636 97 735.493 90.277 735.493 80.557C735.493 74.644 732.577 70.189 728.041 67.597ZM716.134 50.749C719.698 50.749 722.209 53.422 722.209 56.986C722.209 60.55 719.617 63.223 716.134 63.223H704.956V50.749H716.134ZM717.835 86.551H704.956V73.186H717.835C721.642 73.186 724.396 76.021 724.396 79.828C724.396 83.716 721.642 86.551 717.835 86.551ZM742.821 40.3V97H753.999V40.3H742.821ZM800.945 97H813.095L793.169 40.3H779.318L759.473 97H771.542L774.944 86.794H797.543L800.945 97ZM778.508 76.345L786.284 53.179L794.06 76.345H778.508Z" fill="white"/>
</svg>
