<svg width="875" height="161" viewBox="0 0 875 161" fill="none" xmlns="http://www.w3.org/2000/svg">
<path d="M391.87 68.3774C378.2 67.2424 364.529 66.1004 350.66 64.9444C353.24 61.042 355.7 57.3147 358.174 53.5874C358.096 53.5384 358.019 53.4753 357.948 53.4263C354.209 55.8574 350.455 58.2886 346.532 60.8388C345.366 47.0857 344.213 33.5499 343.054 20C342.976 20 342.877 20.007 342.8 20.007C341.64 33.5429 340.495 47.0717 339.329 60.8318C335.356 58.2535 331.61 55.8154 327.864 53.3843C327.814 53.4473 327.765 53.5174 327.701 53.5874C330.168 57.3147 332.628 61.042 335.194 64.9234C321.269 66.0934 307.569 67.2284 293.87 68.3774C293.87 68.4615 293.877 68.5385 293.877 68.6226C307.577 69.7576 321.276 70.8996 335.201 72.0626C332.621 75.965 330.161 79.6993 327.687 83.4266C327.758 83.4896 327.828 83.5387 327.892 83.5877C331.652 81.1496 335.413 78.7115 339.329 76.1612C340.509 89.9423 341.655 103.471 342.8 117C342.892 117 342.976 117 343.068 116.993C344.213 103.443 345.366 89.9073 346.532 76.1682C350.483 78.7395 354.237 81.1636 357.976 83.6017L358.16 83.3916C355.7 79.6713 353.233 75.944 350.66 72.0696C364.557 70.9136 378.214 69.7716 391.87 68.6366V68.3774ZM342.892 73.2327C340.255 73.2256 338.177 71.1378 338.17 68.5035C338.163 65.9042 340.304 63.7814 342.927 63.7884C345.592 63.7954 347.684 65.8482 347.691 68.4825C347.698 71.1728 345.62 73.2327 342.892 73.2327Z" fill="white"/>
<path d="M338.855 96.8643C326.669 95.6663 315.599 84.8838 314.313 72.553C315.331 72.6301 316.25 72.7282 317.169 72.7492C317.89 72.7632 318.187 73.0435 318.349 73.7651C319.614 79.5732 322.633 84.3234 327.291 88.0366C330.338 90.4677 333.787 92.0932 337.618 92.8779C338.318 93.018 338.665 93.2632 338.665 94.0269C338.65 94.9727 338.778 95.9115 338.855 96.8643Z" fill="#47ABEE"/>
<path d="M338.863 40.1356C338.771 41.2916 338.756 42.3496 338.566 43.3795C338.509 43.6737 337.986 44.017 337.625 44.0941C332.847 45.159 328.705 47.373 325.227 50.792C321.721 54.232 319.402 58.3446 318.37 63.1298C318.18 64.0055 317.826 64.2998 316.971 64.2858C316.158 64.2718 315.338 64.3909 314.525 64.4469C314.483 64.4469 314.433 64.4189 314.384 64.3839C314.37 64.3769 314.355 64.3629 314.341 64.3558C315.465 52.6836 326.104 41.5018 338.863 40.1356Z" fill="#47ABEE"/>
<path d="M371.562 64.489C370.382 64.3909 369.222 64.3419 368.084 64.1597C367.865 64.1247 367.632 63.5992 367.561 63.2629C366.473 58.3727 364.126 54.162 360.514 50.6729C357.1 47.366 353.056 45.1521 348.37 44.1712C347.5 43.989 347.182 43.6387 347.196 42.784C347.211 41.9433 347.076 41.1025 346.999 40.1637C358.683 41.2356 370.155 51.6468 371.562 64.489Z" fill="#47ABEE"/>
<path d="M371.633 72.5391C370.834 78.1089 368.65 82.9432 365.031 87.1258C360.309 92.5906 354.336 95.8555 346.977 96.9975C347.076 95.7294 347.097 94.6645 347.288 93.6346C347.345 93.3403 347.875 93.004 348.243 92.9199C353.106 91.848 357.29 89.55 360.797 86.0679C364.281 82.6069 366.522 78.4452 367.561 73.6741C367.696 73.0435 367.908 72.7773 368.579 72.7703C369.533 72.7562 370.488 72.6301 371.633 72.5391Z" fill="#47ABEE"/>
<path d="M346.327 68.4825C346.348 70.2901 344.8 71.8525 342.962 71.8735C341.124 71.8945 339.548 70.3602 339.541 68.5456C339.541 68.0762 339.633 67.6348 339.81 67.2214C339.895 67.0182 339.993 66.8221 340.114 66.6399C340.707 65.7431 341.732 65.1546 342.899 65.1336C343.818 65.1266 344.673 65.4979 345.295 66.1214C345.38 66.1915 345.45 66.2756 345.521 66.3526C346.009 66.9342 346.313 67.6768 346.327 68.4825Z" fill="#47ABEE"/>
<path d="M358.105 53.6015C356.229 56.4277 354.361 59.2542 352.442 62.1574C351.84 63.0688 351.233 63.9879 350.618 64.9168L350.572 64.9872L350.656 64.9942C354.3 65.298 357.93 65.6007 361.551 65.9027C371.693 66.7486 381.757 67.5879 391.82 68.4234V68.5906C384.493 69.1996 377.165 69.8107 369.799 70.4248C363.454 70.9539 357.081 71.4854 350.656 72.0198L350.572 72.0268L350.618 72.0973C353.184 75.9606 355.644 79.6776 358.097 83.3873L357.967 83.5361C355.912 82.1963 353.852 80.8603 351.758 79.5018C350.053 78.3964 348.326 77.276 346.559 76.1263L346.489 76.0808L346.482 76.164C346.162 79.9353 345.843 83.6912 345.525 87.4364C344.685 97.3207 343.852 107.13 343.022 116.946C342.963 116.949 342.906 116.95 342.846 116.95C341.702 103.436 340.558 89.9225 339.379 76.157L339.372 76.0738L339.302 76.1193C335.396 78.6629 331.645 81.0949 327.894 83.5266C327.885 83.5197 327.876 83.5128 327.867 83.5059C327.829 83.4779 327.791 83.4496 327.753 83.4175C329.409 80.9224 331.059 78.4239 332.743 75.8737C333.567 74.6268 334.398 73.3675 335.243 72.0902L335.289 72.0198L335.205 72.0128C321.295 70.8511 307.611 69.7103 293.927 68.5765C293.926 68.5498 293.925 68.5238 293.924 68.4983L293.924 68.4978C293.923 68.4727 293.922 68.4481 293.921 68.4233C300.266 67.8912 306.61 67.362 312.978 66.831C320.343 66.2168 327.738 65.6 335.198 64.9732L335.282 64.9661L335.236 64.8958C334.279 63.4492 333.338 62.024 332.405 60.6122C330.842 58.2469 329.304 55.9192 327.764 53.5918C327.801 53.5488 327.833 53.5059 327.864 53.4663C327.867 53.4612 327.871 53.4562 327.875 53.4513C329.754 54.6705 331.633 55.8914 333.54 57.1311C335.423 58.355 337.335 59.5971 339.302 60.8737L339.372 60.9192L339.379 60.836C339.503 59.3691 339.627 57.9048 339.751 56.4428C340.788 44.2065 341.811 32.1341 342.846 20.0564C342.873 20.0557 342.901 20.0546 342.928 20.0535L342.929 20.0535C342.956 20.0524 342.983 20.0513 343.008 20.0507C344.166 33.585 345.317 47.1057 346.482 60.843L346.489 60.9262L346.559 60.8807C348.504 59.6166 350.407 58.3814 352.288 57.161C354.191 55.9261 356.071 54.7062 357.947 53.4867C357.963 53.4988 357.981 53.5119 357.999 53.5254C358.033 53.5506 358.069 53.5772 358.105 53.6015ZM342.891 73.2826H342.892C345.647 73.2826 347.748 71.201 347.741 68.4824C347.734 65.8198 345.619 63.7454 342.927 63.7384C340.277 63.7313 338.113 65.8762 338.12 68.5036C338.127 71.1653 340.227 73.2756 342.891 73.2826Z" fill="white" stroke="#47ABEE" stroke-width="0.1"/>
<path d="M338.855 96.8643C326.669 95.6663 315.599 84.8838 314.313 72.553C315.331 72.6301 316.25 72.7282 317.169 72.7492C317.89 72.7632 318.187 73.0435 318.349 73.7651C319.614 79.5732 322.633 84.3234 327.291 88.0366C330.338 90.4677 333.787 92.0932 337.618 92.8779C338.318 93.018 338.665 93.2632 338.665 94.0269C338.65 94.9727 338.778 95.9115 338.855 96.8643Z" fill="#47ABEE"/>
<path d="M338.863 40.1356C338.771 41.2916 338.756 42.3496 338.566 43.3795C338.509 43.6737 337.986 44.017 337.625 44.0941C332.847 45.159 328.705 47.373 325.227 50.792C321.721 54.232 319.402 58.3446 318.37 63.1298C318.18 64.0055 317.826 64.2998 316.971 64.2858C316.158 64.2718 315.338 64.3909 314.525 64.4469C314.483 64.4469 314.433 64.4189 314.384 64.3839C314.37 64.3769 314.355 64.3629 314.341 64.3558C315.465 52.6836 326.104 41.5018 338.863 40.1356Z" fill="#47ABEE"/>
<path d="M371.562 64.489C370.382 64.3909 369.222 64.3419 368.084 64.1597C367.865 64.1247 367.632 63.5992 367.561 63.2629C366.473 58.3727 364.126 54.162 360.514 50.6729C357.1 47.366 353.056 45.1521 348.37 44.1712C347.5 43.989 347.182 43.6387 347.196 42.784C347.211 41.9433 347.076 41.1025 346.999 40.1637C358.683 41.2356 370.155 51.6468 371.562 64.489Z" fill="#47ABEE"/>
<path d="M371.633 72.5391C370.834 78.1089 368.65 82.9432 365.031 87.1258C360.309 92.5906 354.336 95.8555 346.977 96.9975C347.076 95.7294 347.097 94.6645 347.288 93.6346C347.345 93.3403 347.875 93.004 348.243 92.9199C353.106 91.848 357.29 89.55 360.797 86.0679C364.281 82.6069 366.522 78.4452 367.561 73.6741C367.696 73.0435 367.908 72.7773 368.579 72.7703C369.533 72.7562 370.488 72.6301 371.633 72.5391Z" fill="#47ABEE"/>
<path d="M346.327 68.4825C346.348 70.2901 344.8 71.8525 342.962 71.8735C341.124 71.8945 339.548 70.3602 339.541 68.5456C339.541 68.0762 339.633 67.6348 339.81 67.2214C339.895 67.0182 339.993 66.8221 340.114 66.6399C340.707 65.7431 341.732 65.1546 342.899 65.1336C343.818 65.1266 344.673 65.4979 345.295 66.1214C345.38 66.1915 345.45 66.2756 345.521 66.3526C346.009 66.9342 346.313 67.6768 346.327 68.4825Z" fill="#47ABEE"/>
<path d="M62.2984 26.3H35.6104V93.5H62.2984C80.8264 93.5 94.6504 78.812 94.6504 59.9C94.6504 40.988 80.8264 26.3 62.2984 26.3ZM62.2984 80.828H48.8584V38.972H62.2984C73.9144 38.972 81.9784 47.516 81.9784 59.9C81.9784 72.284 73.9144 80.828 62.2984 80.828ZM113.936 74.588H150.128C150.416 72.956 150.608 71.324 150.608 69.5C150.608 55.388 140.528 44.156 126.32 44.156C111.248 44.156 100.976 55.196 100.976 69.5C100.976 83.804 111.152 94.844 127.28 94.844C136.496 94.844 143.696 91.1 148.208 84.572L138.224 78.812C136.112 81.596 132.272 83.612 127.472 83.612C120.944 83.612 115.664 80.924 113.936 74.588ZM113.744 64.988C115.184 58.844 119.696 55.292 126.32 55.292C131.504 55.292 136.688 58.076 138.224 64.988H113.744ZM168.802 59.132C168.802 56.54 171.298 55.196 174.37 55.196C177.922 55.196 180.61 57.02 182.05 60.092L192.61 54.332C188.866 47.708 182.146 44.156 174.37 44.156C164.482 44.156 156.13 49.628 156.13 59.42C156.13 76.316 180.898 72.476 180.898 79.484C180.898 82.268 178.21 83.612 174.274 83.612C169.474 83.612 166.21 81.308 164.866 77.372L154.114 83.42C157.57 90.812 164.674 94.844 174.274 94.844C184.546 94.844 193.57 89.852 193.57 79.484C193.57 61.82 168.802 66.236 168.802 59.132ZM227.584 57.404V45.5H216.736V32.06L204.352 35.804V45.5H196V57.404H204.352V77.372C204.352 90.332 210.208 95.42 227.584 93.5V82.268C220.48 82.652 216.736 82.556 216.736 77.372V57.404H227.584ZM242.46 39.74C246.684 39.74 250.14 36.284 250.14 32.156C250.14 28.028 246.684 24.476 242.46 24.476C238.332 24.476 234.876 28.028 234.876 32.156C234.876 36.284 238.332 39.74 242.46 39.74ZM236.316 93.5H248.7V45.5H236.316V93.5ZM286.722 44.156C280.29 44.156 275.298 46.556 272.418 50.876V45.5H260.034V93.5H272.418V67.58C272.418 59.228 276.93 55.676 282.978 55.676C288.546 55.676 292.482 59.036 292.482 65.564V93.5H304.866V64.028C304.866 51.26 296.898 44.156 286.722 44.156Z" fill="white"/>
<path d="M242.37 112.9V127.204C240.354 123.988 236.946 121.924 232.674 121.924C225.906 121.924 220.29 127.396 220.29 134.5C220.29 141.604 225.906 147.076 232.674 147.076C236.946 147.076 240.354 145.012 242.37 141.796V146.5H245.538V112.9H242.37ZM232.914 144.004C227.586 144.004 223.458 139.828 223.458 134.5C223.458 129.172 227.586 124.996 232.914 124.996C238.242 124.996 242.37 129.172 242.37 134.5C242.37 139.828 238.242 144.004 232.914 144.004ZM263.334 121.924C255.894 121.924 250.806 127.444 250.806 134.5C250.806 141.748 255.99 147.076 263.574 147.076C268.422 147.076 272.118 144.82 274.134 141.556L271.35 139.924C270.054 142.228 267.414 144.004 263.622 144.004C258.534 144.004 254.742 140.98 254.07 136.084H275.142C275.19 135.604 275.238 135.076 275.238 134.596C275.238 128.02 270.678 121.924 263.334 121.924ZM263.334 124.996C267.462 124.996 271.302 127.732 271.974 133.012H254.07C254.694 128.308 258.294 124.996 263.334 124.996ZM280.277 146.5H283.445V111.46H280.277V146.5ZM327.752 121.924C324.68 121.924 321.752 123.316 319.976 126.292C318.632 123.508 316.04 121.924 312.68 121.924C309.8 121.924 307.208 123.076 305.336 126.004V122.5H302.168V146.5H305.336V133.204C305.336 127.252 308.792 124.996 312.248 124.996C315.656 124.996 317.864 127.252 317.864 131.524V146.5H321.032V133.204C321.032 127.252 324.008 124.996 327.704 124.996C331.112 124.996 333.56 127.252 333.56 131.524V146.5H336.728V131.524C336.728 125.524 333.032 121.924 327.752 121.924ZM353.943 121.924C346.503 121.924 341.415 127.444 341.415 134.5C341.415 141.748 346.599 147.076 354.183 147.076C359.031 147.076 362.727 144.82 364.743 141.556L361.959 139.924C360.663 142.228 358.023 144.004 354.231 144.004C349.143 144.004 345.351 140.98 344.679 136.084H365.751C365.799 135.604 365.847 135.076 365.847 134.596C365.847 128.02 361.287 121.924 353.943 121.924ZM353.943 124.996C358.071 124.996 361.911 127.732 362.583 133.012H344.679C345.303 128.308 348.903 124.996 353.943 124.996ZM372.445 128.788C372.445 126.196 374.989 124.996 377.485 124.996C379.789 124.996 382.237 125.908 383.245 128.356L385.885 126.82C384.493 123.844 381.421 121.924 377.485 121.924C372.685 121.924 369.277 124.948 369.277 128.788C369.277 137.62 383.293 134.212 383.293 140.164C383.293 142.996 380.605 144.004 377.773 144.004C374.557 144.004 372.061 142.42 371.197 139.972L368.509 141.556C369.709 144.628 372.973 147.076 377.773 147.076C382.909 147.076 386.461 144.244 386.461 140.164C386.461 131.332 372.445 134.74 372.445 128.788Z" fill="white"/>
<rect x="407.87" y="15.5" width="8.75916" height="130" fill="#47ABEE"/>
<path d="M464.787 95.634C475.236 95.634 484.389 90.369 489.168 82.269L479.529 76.68C476.856 81.621 471.267 84.699 464.787 84.699C453.69 84.699 446.4 77.004 446.4 66.15C446.4 55.215 453.69 47.52 464.787 47.52C471.267 47.52 476.775 50.598 479.529 55.62L489.168 50.031C484.308 41.931 475.155 36.666 464.787 36.666C447.615 36.666 435.303 49.545 435.303 66.15C435.303 82.674 447.615 95.634 464.787 95.634ZM522.292 95.634C538.654 95.634 551.776 82.674 551.776 66.15C551.776 49.545 538.654 36.666 522.292 36.666C505.93 36.666 492.889 49.545 492.889 66.15C492.889 82.674 505.93 95.634 522.292 95.634ZM522.292 84.699C512.005 84.699 503.986 77.004 503.986 66.15C503.986 55.215 512.005 47.52 522.292 47.52C532.579 47.52 540.598 55.215 540.598 66.15C540.598 77.004 532.579 84.699 522.292 84.699ZM570.81 83.808V37.8H559.632V94.5H592.437V83.808H570.81ZM622.118 95.634C638.48 95.634 651.602 82.674 651.602 66.15C651.602 49.545 638.48 36.666 622.118 36.666C605.756 36.666 592.715 49.545 592.715 66.15C592.715 82.674 605.756 95.634 622.118 95.634ZM622.118 84.699C611.831 84.699 603.812 77.004 603.812 66.15C603.812 55.215 611.831 47.52 622.118 47.52C632.405 47.52 640.424 55.215 640.424 66.15C640.424 77.004 632.405 84.699 622.118 84.699ZM714.943 37.8H703.441L687.241 64.611L670.96 37.8H659.458V94.5H670.636V57.807L686.593 84.051H687.889L703.846 57.726V94.5H714.943V37.8ZM759.771 65.097C763.092 62.424 765.117 58.617 765.117 53.757C765.117 44.28 757.422 37.8 747.864 37.8H725.508V94.5H749.565C759.366 94.5 767.223 87.777 767.223 78.057C767.223 72.144 764.307 67.689 759.771 65.097ZM747.864 48.249C751.428 48.249 753.939 50.922 753.939 54.486C753.939 58.05 751.347 60.723 747.864 60.723H736.686V48.249H747.864ZM749.565 84.051H736.686V70.686H749.565C753.372 70.686 756.126 73.521 756.126 77.328C756.126 81.216 753.372 84.051 749.565 84.051ZM774.551 37.8V94.5H785.729V37.8H774.551ZM832.675 94.5H844.825L824.899 37.8H811.048L791.203 94.5H803.272L806.674 84.294H829.273L832.675 94.5ZM810.238 73.845L818.014 50.679L825.79 73.845H810.238Z" fill="white"/>
</svg>
