<svg width="1121" height="161" viewBox="0 0 1121 161" fill="none" xmlns="http://www.w3.org/2000/svg">
<path d="M34.2984 26.3H7.61036V93.5H34.2984C52.8264 93.5 66.6504 78.812 66.6504 59.9C66.6504 40.988 52.8264 26.3 34.2984 26.3ZM34.2984 80.828H20.8584V38.972H34.2984C45.9144 38.972 53.9784 47.516 53.9784 59.9C53.9784 72.284 45.9144 80.828 34.2984 80.828ZM85.9359 74.588H122.128C122.416 72.956 122.608 71.324 122.608 69.5C122.608 55.388 112.528 44.156 98.3199 44.156C83.2479 44.156 72.9759 55.196 72.9759 69.5C72.9759 83.804 83.1519 94.844 99.2799 94.844C108.496 94.844 115.696 91.1 120.208 84.572L110.224 78.812C108.112 81.596 104.272 83.612 99.4719 83.612C92.9439 83.612 87.6639 80.924 85.9359 74.588ZM85.7439 64.988C87.1839 58.844 91.6959 55.292 98.3199 55.292C103.504 55.292 108.688 58.076 110.224 64.988H85.7439ZM140.802 59.132C140.802 56.54 143.298 55.196 146.37 55.196C149.922 55.196 152.61 57.02 154.05 60.092L164.61 54.332C160.866 47.708 154.146 44.156 146.37 44.156C136.482 44.156 128.13 49.628 128.13 59.42C128.13 76.316 152.898 72.476 152.898 79.484C152.898 82.268 150.21 83.612 146.274 83.612C141.474 83.612 138.21 81.308 136.866 77.372L126.114 83.42C129.57 90.812 136.674 94.844 146.274 94.844C156.546 94.844 165.57 89.852 165.57 79.484C165.57 61.82 140.802 66.236 140.802 59.132ZM199.584 57.404V45.5H188.736V32.06L176.352 35.804V45.5H168V57.404H176.352V77.372C176.352 90.332 182.208 95.42 199.584 93.5V82.268C192.48 82.652 188.736 82.556 188.736 77.372V57.404H199.584ZM214.46 39.74C218.684 39.74 222.14 36.284 222.14 32.156C222.14 28.028 218.684 24.476 214.46 24.476C210.332 24.476 206.876 28.028 206.876 32.156C206.876 36.284 210.332 39.74 214.46 39.74ZM208.316 93.5H220.7V45.5H208.316V93.5ZM258.722 44.156C252.29 44.156 247.298 46.556 244.418 50.876V45.5H232.034V93.5H244.418V67.58C244.418 59.228 248.93 55.676 254.978 55.676C260.546 55.676 264.482 59.036 264.482 65.564V93.5H276.866V64.028C276.866 51.26 268.898 44.156 258.722 44.156ZM323.921 45.5V51.164C320.465 46.844 315.281 44.156 308.273 44.156C295.505 44.156 284.945 55.196 284.945 69.5C284.945 83.804 295.505 94.844 308.273 94.844C315.281 94.844 320.465 92.156 323.921 87.836V93.5H336.305V45.5H323.921ZM310.577 83.036C302.993 83.036 297.329 77.564 297.329 69.5C297.329 61.436 302.993 55.964 310.577 55.964C318.257 55.964 323.921 61.436 323.921 69.5C323.921 77.564 318.257 83.036 310.577 83.036ZM374.99 57.404V45.5H364.142V32.06L351.758 35.804V45.5H343.406V57.404H351.758V77.372C351.758 90.332 357.614 95.42 374.99 93.5V82.268C367.886 82.652 364.142 82.556 364.142 77.372V57.404H374.99ZM389.866 39.74C394.09 39.74 397.546 36.284 397.546 32.156C397.546 28.028 394.09 24.476 389.866 24.476C385.738 24.476 382.282 28.028 382.282 32.156C382.282 36.284 385.738 39.74 389.866 39.74ZM383.722 93.5H396.106V45.5H383.722V93.5ZM482.129 44.156C475.697 44.156 470.705 46.556 467.825 50.876V45.5H455.441V93.5H467.825V67.58C467.825 59.228 472.337 55.676 478.385 55.676C483.953 55.676 487.889 59.036 487.889 65.564V93.5H500.273V64.028C500.273 51.26 492.305 44.156 482.129 44.156Z" fill="white"/>
<path d="M220.214 147.076C227.222 147.076 232.838 141.604 232.838 134.5C232.838 127.396 227.222 121.924 220.214 121.924C213.206 121.924 207.59 127.396 207.59 134.5C207.59 141.604 213.206 147.076 220.214 147.076ZM220.214 144.004C214.886 144.004 210.758 139.828 210.758 134.5C210.758 129.172 214.886 124.996 220.214 124.996C225.542 124.996 229.67 129.172 229.67 134.5C229.67 139.828 225.542 144.004 220.214 144.004ZM249.202 115.396V112.324C242.722 111.844 239.122 115.3 239.122 121.54V122.5H235.042V125.572H239.122V146.5H242.29V125.572H249.202V122.5H242.29V121.54C242.29 116.932 244.546 115.012 249.202 115.396ZM277.297 125.572V122.5H270.385V115.78L267.217 116.74V122.5H262.177V125.572H267.217V140.116C267.217 145.876 270.817 147.46 277.297 146.5V143.716C272.641 143.908 270.385 144.244 270.385 140.116V125.572H277.297ZM293.809 121.924C290.401 121.924 287.617 123.22 285.745 126.244V112.9H282.577V146.5H285.745V133.924C285.745 127.492 289.297 124.996 293.521 124.996C297.697 124.996 300.049 127.492 300.049 131.764V146.5H303.217V131.764C303.217 125.764 299.665 121.924 293.809 121.924ZM320.431 121.924C312.991 121.924 307.903 127.444 307.903 134.5C307.903 141.748 313.087 147.076 320.671 147.076C325.519 147.076 329.215 144.82 331.231 141.556L328.447 139.924C327.151 142.228 324.511 144.004 320.719 144.004C315.631 144.004 311.839 140.98 311.167 136.084H332.239C332.287 135.604 332.335 135.076 332.335 134.596C332.335 128.02 327.775 121.924 320.431 121.924ZM320.431 124.996C324.559 124.996 328.399 127.732 329.071 133.012H311.167C311.791 128.308 315.391 124.996 320.431 124.996ZM380.574 112.9H376.398L365.214 131.62L354.03 112.9H349.854V146.5H353.214V117.988L364.974 137.668H365.454L377.214 117.988V146.5H380.574V112.9ZM398.949 147.076C405.957 147.076 411.573 141.604 411.573 134.5C411.573 127.396 405.957 121.924 398.949 121.924C391.941 121.924 386.325 127.396 386.325 134.5C386.325 141.604 391.941 147.076 398.949 147.076ZM398.949 144.004C393.621 144.004 389.493 139.828 389.493 134.5C389.493 129.172 393.621 124.996 398.949 124.996C404.277 124.996 408.405 129.172 408.405 134.5C408.405 139.828 404.277 144.004 398.949 144.004ZM428.106 121.924C424.698 121.924 421.914 123.22 420.042 126.244V122.5H416.874V146.5H420.042V133.924C420.042 127.492 423.594 124.996 427.818 124.996C431.994 124.996 434.346 127.492 434.346 131.764V146.5H437.514V131.764C437.514 125.764 433.962 121.924 428.106 121.924ZM456.36 125.572V122.5H449.448V115.78L446.28 116.74V122.5H441.24V125.572H446.28V140.116C446.28 145.876 449.88 147.46 456.36 146.5V143.716C451.704 143.908 449.448 144.244 449.448 140.116V125.572H456.36ZM472.872 121.924C469.464 121.924 466.68 123.22 464.808 126.244V112.9H461.64V146.5H464.808V133.924C464.808 127.492 468.36 124.996 472.584 124.996C476.76 124.996 479.112 127.492 479.112 131.764V146.5H482.28V131.764C482.28 125.764 478.728 121.924 472.872 121.924Z" fill="white"/>
<path d="M464.37 63.9027C453.49 63.0017 442.609 62.0952 431.57 61.1775C433.624 58.0797 435.582 55.1209 437.551 52.1622C437.489 52.1233 437.427 52.0732 437.371 52.0343C434.395 53.9641 431.407 55.894 428.285 57.9184C427.356 47.001 426.439 36.2561 425.517 25.5C425.455 25.5 425.376 25.5056 425.314 25.5056C424.391 36.2505 423.48 46.9899 422.552 57.9129C419.39 55.8662 416.408 53.9308 413.426 52.0009C413.387 52.051 413.347 52.1066 413.297 52.1622C415.26 55.1209 417.218 58.0797 419.26 61.1608C408.177 62.0896 397.274 62.9906 386.37 63.9027C386.37 63.9694 386.376 64.0306 386.376 64.0973C397.279 64.9983 408.183 65.9048 419.266 66.8281C417.213 69.9259 415.255 72.8902 413.286 75.8489C413.342 75.899 413.398 75.9379 413.449 75.9769C416.442 74.0414 419.435 72.106 422.552 70.0816C423.491 81.0212 424.403 91.7606 425.314 102.5C425.387 102.5 425.455 102.5 425.528 102.494C426.439 91.7384 427.356 80.9934 428.285 70.0871C431.43 72.1282 434.417 74.0526 437.393 75.988L437.54 75.8211C435.582 72.8679 433.618 69.9092 431.57 66.8336C442.631 65.916 453.501 65.0094 464.37 64.1085V63.9027ZM425.387 67.7568C423.289 67.7513 421.635 66.0939 421.629 64.0028C421.623 61.9394 423.328 60.2543 425.415 60.2598C427.536 60.2654 429.202 61.8949 429.207 63.9861C429.213 66.1217 427.559 67.7568 425.387 67.7568Z" fill="white"/>
<path d="M422.175 86.516C412.476 85.5649 403.665 77.0057 402.641 67.2173C403.451 67.2785 404.183 67.3563 404.914 67.373C405.488 67.3841 405.724 67.6066 405.854 68.1794C406.861 72.79 409.263 76.5607 412.971 79.5084C415.395 81.4382 418.141 82.7285 421.19 83.3514C421.747 83.4626 422.023 83.6573 422.023 84.2635C422.012 85.0143 422.113 85.7596 422.175 86.516Z" fill="#47ABEE"/>
<path d="M422.18 41.4839C422.107 42.4015 422.096 43.2413 421.944 44.0589C421.899 44.2925 421.483 44.565 421.196 44.6262C417.393 45.4715 414.096 47.229 411.328 49.943C408.537 52.6738 406.692 55.9384 405.87 59.737C405.719 60.4322 405.437 60.6658 404.756 60.6546C404.109 60.6435 403.457 60.7381 402.81 60.7826C402.776 60.7826 402.737 60.7603 402.697 60.7325C402.686 60.7269 402.675 60.7158 402.664 60.7103C403.558 51.4447 412.025 42.5684 422.18 41.4839Z" fill="#47ABEE"/>
<path d="M448.207 60.8159C447.267 60.738 446.344 60.6991 445.439 60.5545C445.264 60.5267 445.079 60.1096 445.022 59.8426C444.156 55.9606 442.288 52.6181 439.413 49.8485C436.696 47.2234 433.478 45.4659 429.747 44.6873C429.055 44.5427 428.802 44.2646 428.814 43.5861C428.825 42.9187 428.718 42.2514 428.656 41.5061C437.956 42.357 447.087 50.6215 448.207 60.8159Z" fill="#47ABEE"/>
<path d="M448.263 67.2063C447.627 71.6278 445.889 75.4652 443.008 78.7855C439.25 83.1235 434.496 85.7152 428.639 86.6218C428.718 85.6151 428.735 84.7698 428.887 83.9522C428.932 83.7186 429.354 83.4517 429.646 83.3849C433.517 82.534 436.848 80.7098 439.638 77.9457C442.412 75.1983 444.195 71.8947 445.022 68.1073C445.129 67.6067 445.298 67.3954 445.832 67.3898C446.592 67.3787 447.352 67.2786 448.263 67.2063Z" fill="#47ABEE"/>
<path d="M428.121 63.9861C428.138 65.421 426.906 66.6613 425.443 66.6779C423.981 66.6946 422.726 65.4766 422.72 64.0362C422.72 63.6636 422.794 63.3132 422.934 62.9851C423.002 62.8238 423.081 62.6681 423.176 62.5234C423.649 61.8116 424.465 61.3444 425.393 61.3277C426.124 61.3222 426.805 61.6169 427.3 62.1119C427.368 62.1675 427.424 62.2342 427.48 62.2954C427.868 62.757 428.11 63.3466 428.121 63.9861Z" fill="#47ABEE"/>
<path d="M419.27 66.7782C408.202 65.8563 397.314 64.951 386.425 64.0512C386.425 64.0332 386.424 64.0155 386.423 63.9983L386.423 63.9978C386.422 63.9812 386.422 63.9649 386.421 63.9486C391.468 63.5265 396.514 63.1067 401.579 62.6854C407.441 62.1978 413.327 61.7082 419.265 61.2106L419.349 61.2036L419.302 61.1332C418.541 59.9849 417.792 58.8536 417.049 57.733C415.807 55.8575 414.584 54.0119 413.36 52.1664C413.387 52.134 413.412 52.1017 413.435 52.072C413.436 52.0706 413.437 52.0693 413.438 52.0679C414.93 53.0338 416.423 54.0011 417.938 54.9832C419.437 55.955 420.959 56.9412 422.525 57.9548L422.594 58.0001L422.602 57.9171C422.7 56.7567 422.799 55.5984 422.897 54.4419C423.722 44.7275 424.537 35.1432 425.36 25.5548C425.379 25.5543 425.398 25.5535 425.417 25.5528L425.417 25.5527C425.436 25.552 425.454 25.5513 425.471 25.5508C426.392 36.2913 427.308 47.021 428.235 57.9227L428.242 58.0057L428.312 57.9604C429.859 56.9572 431.374 55.977 432.87 55.0085C434.383 54.0291 435.878 53.0617 437.369 52.0947C437.381 52.103 437.393 52.1118 437.405 52.1209C437.43 52.139 437.456 52.1582 437.481 52.1761C435.99 54.4172 434.505 56.6587 432.979 58.9609C432.5 59.6839 432.017 60.413 431.529 61.1499L431.482 61.2203L431.566 61.2273C434.464 61.4682 437.351 61.7084 440.23 61.9479C448.302 62.6193 456.311 63.2855 464.32 63.9487V64.0624C458.493 64.5455 452.665 65.0301 446.808 65.5172C441.756 65.9374 436.681 66.3594 431.566 66.7838L431.482 66.7908L431.529 66.8613C433.569 69.9258 435.526 72.8743 437.477 75.8169L437.384 75.9225C435.751 74.8603 434.114 73.8012 432.449 72.7243C431.093 71.8469 429.718 70.9577 428.312 70.0452L428.242 69.9998L428.235 70.0829C427.98 73.0752 427.726 76.0554 427.473 79.027C426.805 86.8717 426.142 94.6566 425.482 102.447C425.441 102.449 425.401 102.45 425.36 102.45C424.45 91.7258 423.54 81.0014 422.602 70.0773L422.594 69.9942L422.524 70.0397C419.418 72.0574 416.434 73.9868 413.451 75.9158C413.445 75.9117 413.44 75.9075 413.434 75.9034C413.407 75.883 413.379 75.8625 413.352 75.8397C414.669 73.861 415.981 71.8795 417.32 69.8571C417.975 68.8679 418.636 67.8689 419.308 66.8557L419.354 66.7853L419.27 66.7782ZM425.387 67.8068H425.387C427.586 67.8068 429.263 66.15 429.257 63.986C429.252 61.8664 427.563 60.2155 425.416 60.2098C423.301 60.2042 421.573 61.9113 421.579 64.0029C421.585 66.1216 423.261 67.8012 425.387 67.8068Z" fill="white" stroke="#47ABEE" stroke-width="0.1"/>
<path d="M422.175 86.516C412.476 85.5649 403.665 77.0057 402.641 67.2173C403.451 67.2785 404.183 67.3563 404.914 67.373C405.488 67.3841 405.724 67.6066 405.854 68.1794C406.861 72.79 409.263 76.5607 412.971 79.5084C415.395 81.4382 418.141 82.7285 421.19 83.3514C421.747 83.4626 422.023 83.6573 422.023 84.2635C422.012 85.0143 422.113 85.7596 422.175 86.516Z" fill="#47ABEE"/>
<path d="M422.18 41.4839C422.107 42.4015 422.096 43.2413 421.944 44.0589C421.899 44.2925 421.483 44.565 421.196 44.6262C417.393 45.4715 414.096 47.229 411.328 49.943C408.537 52.6738 406.692 55.9384 405.87 59.737C405.719 60.4322 405.437 60.6658 404.756 60.6546C404.109 60.6435 403.457 60.7381 402.81 60.7826C402.776 60.7826 402.737 60.7603 402.697 60.7325C402.686 60.7269 402.675 60.7158 402.664 60.7103C403.558 51.4447 412.025 42.5684 422.18 41.4839Z" fill="#47ABEE"/>
<path d="M448.207 60.8159C447.267 60.738 446.344 60.6991 445.439 60.5545C445.264 60.5267 445.079 60.1096 445.022 59.8426C444.156 55.9606 442.288 52.6181 439.413 49.8485C436.696 47.2234 433.478 45.4659 429.747 44.6873C429.055 44.5427 428.802 44.2646 428.814 43.5861C428.825 42.9187 428.718 42.2514 428.656 41.5061C437.956 42.357 447.087 50.6215 448.207 60.8159Z" fill="#47ABEE"/>
<path d="M448.263 67.2063C447.627 71.6278 445.889 75.4652 443.008 78.7855C439.25 83.1235 434.496 85.7152 428.639 86.6218C428.718 85.6151 428.735 84.7698 428.887 83.9522C428.932 83.7186 429.354 83.4517 429.646 83.3849C433.517 82.534 436.848 80.7098 439.638 77.9457C442.412 75.1983 444.195 71.8947 445.022 68.1073C445.129 67.6067 445.298 67.3954 445.832 67.3898C446.592 67.3787 447.352 67.2786 448.263 67.2063Z" fill="#47ABEE"/>
<path d="M428.121 63.9861C428.138 65.421 426.906 66.6613 425.443 66.6779C423.981 66.6946 422.726 65.4766 422.72 64.0362C422.72 63.6636 422.794 63.3132 422.934 62.9851C423.002 62.8238 423.081 62.6681 423.176 62.5234C423.649 61.8116 424.465 61.3444 425.393 61.3277C426.124 61.3222 426.805 61.6169 427.3 62.1119C427.368 62.1675 427.424 62.2342 427.48 62.2954C427.868 62.757 428.11 63.3466 428.121 63.9861Z" fill="#47ABEE"/>
<rect x="530.62" y="15.5" width="8.75916" height="130" fill="#47ABEE"/>
<path d="M587.537 95.634C597.986 95.634 607.139 90.369 611.918 82.269L602.279 76.68C599.606 81.621 594.017 84.699 587.537 84.699C576.44 84.699 569.15 77.004 569.15 66.15C569.15 55.215 576.44 47.52 587.537 47.52C594.017 47.52 599.525 50.598 602.279 55.62L611.918 50.031C607.058 41.931 597.905 36.666 587.537 36.666C570.365 36.666 558.053 49.545 558.053 66.15C558.053 82.674 570.365 95.634 587.537 95.634ZM645.042 95.634C661.404 95.634 674.526 82.674 674.526 66.15C674.526 49.545 661.404 36.666 645.042 36.666C628.68 36.666 615.639 49.545 615.639 66.15C615.639 82.674 628.68 95.634 645.042 95.634ZM645.042 84.699C634.755 84.699 626.736 77.004 626.736 66.15C626.736 55.215 634.755 47.52 645.042 47.52C655.329 47.52 663.348 55.215 663.348 66.15C663.348 77.004 655.329 84.699 645.042 84.699ZM693.56 83.808V37.8H682.382V94.5H715.187V83.808H693.56ZM744.868 95.634C761.23 95.634 774.352 82.674 774.352 66.15C774.352 49.545 761.23 36.666 744.868 36.666C728.506 36.666 715.465 49.545 715.465 66.15C715.465 82.674 728.506 95.634 744.868 95.634ZM744.868 84.699C734.581 84.699 726.562 77.004 726.562 66.15C726.562 55.215 734.581 47.52 744.868 47.52C755.155 47.52 763.174 55.215 763.174 66.15C763.174 77.004 755.155 84.699 744.868 84.699ZM837.693 37.8H826.191L809.991 64.611L793.71 37.8H782.208V94.5H793.386V57.807L809.343 84.051H810.639L826.596 57.726V94.5H837.693V37.8ZM882.521 65.097C885.842 62.424 887.867 58.617 887.867 53.757C887.867 44.28 880.172 37.8 870.614 37.8H848.258V94.5H872.315C882.116 94.5 889.973 87.777 889.973 78.057C889.973 72.144 887.057 67.689 882.521 65.097ZM870.614 48.249C874.178 48.249 876.689 50.922 876.689 54.486C876.689 58.05 874.097 60.723 870.614 60.723H859.436V48.249H870.614ZM872.315 84.051H859.436V70.686H872.315C876.122 70.686 878.876 73.521 878.876 77.328C878.876 81.216 876.122 84.051 872.315 84.051ZM897.301 37.8V94.5H908.479V37.8H897.301ZM955.425 94.5H967.575L947.649 37.8H933.798L913.953 94.5H926.022L929.424 84.294H952.023L955.425 94.5ZM932.988 73.845L940.764 50.679L948.54 73.845H932.988Z" fill="white"/>
</svg>
