<svg width="1191" height="179" viewBox="0 0 1191 179" fill="none" xmlns="http://www.w3.org/2000/svg">
<path d="M65.2986 35.3H38.6106V102.5H65.2986C83.8266 102.5 97.6506 87.812 97.6506 68.9C97.6506 49.988 83.8266 35.3 65.2986 35.3ZM65.2986 89.828H51.8586V47.972H65.2986C76.9146 47.972 84.9786 56.516 84.9786 68.9C84.9786 81.284 76.9146 89.828 65.2986 89.828ZM116.936 83.588H153.128C153.416 81.956 153.608 80.324 153.608 78.5C153.608 64.388 143.528 53.156 129.32 53.156C114.248 53.156 103.976 64.196 103.976 78.5C103.976 92.804 114.152 103.844 130.28 103.844C139.496 103.844 146.696 100.1 151.208 93.572L141.224 87.812C139.112 90.596 135.272 92.612 130.472 92.612C123.944 92.612 118.664 89.924 116.936 83.588ZM116.744 73.988C118.184 67.844 122.696 64.292 129.32 64.292C134.504 64.292 139.688 67.076 141.224 73.988H116.744ZM171.802 68.132C171.802 65.54 174.298 64.196 177.37 64.196C180.922 64.196 183.61 66.02 185.05 69.092L195.61 63.332C191.866 56.708 185.146 53.156 177.37 53.156C167.482 53.156 159.13 58.628 159.13 68.42C159.13 85.316 183.898 81.476 183.898 88.484C183.898 91.268 181.21 92.612 177.274 92.612C172.474 92.612 169.21 90.308 167.866 86.372L157.114 92.42C160.57 99.812 167.674 103.844 177.274 103.844C187.546 103.844 196.57 98.852 196.57 88.484C196.57 70.82 171.802 75.236 171.802 68.132ZM230.584 66.404V54.5H219.736V41.06L207.352 44.804V54.5H199V66.404H207.352V86.372C207.352 99.332 213.208 104.42 230.584 102.5V91.268C223.48 91.652 219.736 91.556 219.736 86.372V66.404H230.584ZM245.46 48.74C249.684 48.74 253.14 45.284 253.14 41.156C253.14 37.028 249.684 33.476 245.46 33.476C241.332 33.476 237.876 37.028 237.876 41.156C237.876 45.284 241.332 48.74 245.46 48.74ZM239.316 102.5H251.7V54.5H239.316V102.5ZM289.723 53.156C283.291 53.156 278.299 55.556 275.419 59.876V54.5H263.035V102.5H275.419V76.58C275.419 68.228 279.931 64.676 285.979 64.676C291.547 64.676 295.483 68.036 295.483 74.564V102.5H307.867V73.028C307.867 60.26 299.899 53.156 289.723 53.156ZM354.921 54.5V60.164C351.465 55.844 346.281 53.156 339.273 53.156C326.505 53.156 315.945 64.196 315.945 78.5C315.945 92.804 326.505 103.844 339.273 103.844C346.281 103.844 351.465 101.156 354.921 96.836V102.5H367.305V54.5H354.921ZM341.577 92.036C333.993 92.036 328.329 86.564 328.329 78.5C328.329 70.436 333.993 64.964 341.577 64.964C349.257 64.964 354.921 70.436 354.921 78.5C354.921 86.564 349.257 92.036 341.577 92.036ZM405.991 66.404V54.5H395.143V41.06L382.759 44.804V54.5H374.407V66.404H382.759V86.372C382.759 99.332 388.615 104.42 405.991 102.5V91.268C398.887 91.652 395.143 91.556 395.143 86.372V66.404H405.991ZM420.866 48.74C425.09 48.74 428.546 45.284 428.546 41.156C428.546 37.028 425.09 33.476 420.866 33.476C416.738 33.476 413.282 37.028 413.282 41.156C413.282 45.284 416.738 48.74 420.866 48.74ZM414.722 102.5H427.106V54.5H414.722V102.5ZM513.129 53.156C506.697 53.156 501.705 55.556 498.825 59.876V54.5H486.441V102.5H498.825V76.58C498.825 68.228 503.337 64.676 509.385 64.676C514.953 64.676 518.889 68.036 518.889 74.564V102.5H531.273V73.028C531.273 60.26 523.305 53.156 513.129 53.156Z" fill="white"/>
<path d="M251.215 156.076C258.223 156.076 263.839 150.604 263.839 143.5C263.839 136.396 258.223 130.924 251.215 130.924C244.207 130.924 238.591 136.396 238.591 143.5C238.591 150.604 244.207 156.076 251.215 156.076ZM251.215 153.004C245.887 153.004 241.759 148.828 241.759 143.5C241.759 138.172 245.887 133.996 251.215 133.996C256.543 133.996 260.671 138.172 260.671 143.5C260.671 148.828 256.543 153.004 251.215 153.004ZM280.203 124.396V121.324C273.723 120.844 270.123 124.3 270.123 130.54V131.5H266.043V134.572H270.123V155.5H273.291V134.572H280.203V131.5H273.291V130.54C273.291 125.932 275.547 124.012 280.203 124.396ZM308.298 134.572V131.5H301.386V124.78L298.218 125.74V131.5H293.178V134.572H298.218V149.116C298.218 154.876 301.818 156.46 308.298 155.5V152.716C303.642 152.908 301.386 153.244 301.386 149.116V134.572H308.298ZM324.81 130.924C321.402 130.924 318.618 132.22 316.746 135.244V121.9H313.578V155.5H316.746V142.924C316.746 136.492 320.298 133.996 324.522 133.996C328.698 133.996 331.05 136.492 331.05 140.764V155.5H334.218V140.764C334.218 134.764 330.666 130.924 324.81 130.924ZM351.431 130.924C343.991 130.924 338.903 136.444 338.903 143.5C338.903 150.748 344.087 156.076 351.671 156.076C356.519 156.076 360.215 153.82 362.231 150.556L359.447 148.924C358.151 151.228 355.511 153.004 351.719 153.004C346.631 153.004 342.839 149.98 342.167 145.084H363.239C363.287 144.604 363.335 144.076 363.335 143.596C363.335 137.02 358.775 130.924 351.431 130.924ZM351.431 133.996C355.559 133.996 359.399 136.732 360.071 142.012H342.167C342.791 137.308 346.391 133.996 351.431 133.996ZM411.575 121.9H407.399L396.215 140.62L385.031 121.9H380.855V155.5H384.215V126.988L395.975 146.668H396.455L408.215 126.988V155.5H411.575V121.9ZM429.949 156.076C436.957 156.076 442.573 150.604 442.573 143.5C442.573 136.396 436.957 130.924 429.949 130.924C422.941 130.924 417.325 136.396 417.325 143.5C417.325 150.604 422.941 156.076 429.949 156.076ZM429.949 153.004C424.621 153.004 420.493 148.828 420.493 143.5C420.493 138.172 424.621 133.996 429.949 133.996C435.277 133.996 439.405 138.172 439.405 143.5C439.405 148.828 435.277 153.004 429.949 153.004ZM459.107 130.924C455.699 130.924 452.915 132.22 451.043 135.244V131.5H447.875V155.5H451.043V142.924C451.043 136.492 454.595 133.996 458.819 133.996C462.995 133.996 465.347 136.492 465.347 140.764V155.5H468.515V140.764C468.515 134.764 464.963 130.924 459.107 130.924ZM487.36 134.572V131.5H480.448V124.78L477.28 125.74V131.5H472.24V134.572H477.28V149.116C477.28 154.876 480.88 156.46 487.36 155.5V152.716C482.704 152.908 480.448 153.244 480.448 149.116V134.572H487.36ZM503.872 130.924C500.464 130.924 497.68 132.22 495.808 135.244V121.9H492.64V155.5H495.808V142.924C495.808 136.492 499.36 133.996 503.584 133.996C507.76 133.996 510.112 136.492 510.112 140.764V155.5H513.28V140.764C513.28 134.764 509.728 130.924 503.872 130.924Z" fill="white"/>
<path d="M495.371 72.9027C484.49 72.0017 473.609 71.0952 462.571 70.1775C464.624 67.0797 466.582 64.1209 468.551 61.1622C468.489 61.1233 468.427 61.0732 468.371 61.0343C465.395 62.9641 462.407 64.894 459.285 66.9184C458.357 56.001 457.44 45.2561 456.517 34.5C456.455 34.5 456.376 34.5056 456.314 34.5056C455.392 45.2505 454.48 55.9899 453.552 66.9129C450.39 64.8662 447.408 62.9308 444.426 61.0009C444.387 61.051 444.348 61.1066 444.297 61.1622C446.261 64.1209 448.218 67.0797 450.261 70.1608C439.177 71.0896 428.274 71.9906 417.371 72.9027C417.371 72.9694 417.376 73.0306 417.376 73.0973C428.28 73.9983 439.183 74.9048 450.266 75.8281C448.213 78.9259 446.255 81.8902 444.286 84.8489C444.342 84.899 444.398 84.9379 444.449 84.9769C447.442 83.0414 450.435 81.106 453.552 79.0816C454.491 90.0212 455.403 100.761 456.314 111.5C456.387 111.5 456.455 111.5 456.528 111.494C457.44 100.738 458.357 89.9934 459.285 79.0871C462.43 81.1282 465.417 83.0526 468.394 84.988L468.54 84.8211C466.582 81.8679 464.618 78.9092 462.571 75.8336C473.631 74.916 484.501 74.0094 495.371 73.1085V72.9027ZM456.387 76.7568C454.289 76.7513 452.635 75.0939 452.629 73.0028C452.624 70.9394 454.328 69.2543 456.416 69.2598C458.537 69.2654 460.202 70.8949 460.208 72.9861C460.213 75.1217 458.559 76.7568 456.387 76.7568Z" fill="white"/>
<path d="M453.175 95.5161C443.476 94.565 434.665 86.0058 433.641 76.2174C434.451 76.2786 435.183 76.3564 435.914 76.3731C436.488 76.3843 436.724 76.6067 436.854 77.1796C437.861 81.7901 440.263 85.5609 443.971 88.5085C446.395 90.4384 449.141 91.7286 452.19 92.3515C452.747 92.4628 453.023 92.6574 453.023 93.2636C453.012 94.0144 453.113 94.7597 453.175 95.5161Z" fill="#47ABEE"/>
<path d="M453.18 50.484C453.107 51.4017 453.096 52.2415 452.944 53.059C452.899 53.2926 452.483 53.5651 452.196 53.6263C448.393 54.4717 445.096 56.2291 442.328 58.9432C439.537 61.6739 437.692 64.9385 436.87 68.7371C436.719 69.4323 436.437 69.6659 435.756 69.6548C435.109 69.6436 434.457 69.7382 433.81 69.7827C433.776 69.7827 433.737 69.7604 433.697 69.7326C433.686 69.7271 433.675 69.7159 433.664 69.7104C434.558 60.4448 443.025 51.5685 453.18 50.484Z" fill="#47ABEE"/>
<path d="M479.207 69.816C478.267 69.7381 477.345 69.6992 476.439 69.5546C476.264 69.5268 476.079 69.1097 476.023 68.8427C475.156 64.9608 473.288 61.6183 470.413 58.8486C467.696 56.2235 464.478 54.4661 460.748 53.6874C460.056 53.5428 459.803 53.2648 459.814 52.5863C459.825 51.9189 459.718 51.2515 459.656 50.5062C468.956 51.3571 478.087 59.6216 479.207 69.816Z" fill="#47ABEE"/>
<path d="M479.263 76.2063C478.627 80.6278 476.889 84.4652 474.008 87.7855C470.25 92.1235 465.496 94.7152 459.639 95.6218C459.718 94.6151 459.735 93.7698 459.887 92.9522C459.932 92.7186 460.354 92.4517 460.646 92.3849C464.517 91.534 467.848 89.7098 470.638 86.9457C473.412 84.1983 475.195 80.8947 476.022 77.1073C476.129 76.6067 476.298 76.3954 476.832 76.3898C477.592 76.3787 478.352 76.2786 479.263 76.2063Z" fill="#47ABEE"/>
<path d="M459.122 72.9861C459.139 74.421 457.907 75.6613 456.444 75.6779C454.981 75.6946 453.726 74.4766 453.721 73.0362C453.721 72.6636 453.794 72.3132 453.934 71.9851C454.002 71.8238 454.081 71.6681 454.176 71.5234C454.649 70.8116 455.465 70.3444 456.393 70.3277C457.124 70.3222 457.805 70.6169 458.3 71.1119C458.368 71.1675 458.424 71.2342 458.48 71.2954C458.869 71.757 459.11 72.3466 459.122 72.9861Z" fill="#47ABEE"/>
<path d="M450.27 75.7782C439.202 74.8563 428.314 73.951 417.425 73.0512C417.425 73.0332 417.424 73.0155 417.423 72.9983L417.423 72.9978C417.423 72.9812 417.422 72.9649 417.421 72.9486C422.468 72.5265 427.514 72.1067 432.579 71.6854C438.441 71.1978 444.327 70.7082 450.265 70.2106L450.349 70.2036L450.302 70.1332C449.541 68.9849 448.792 67.8536 448.049 66.733C446.807 64.8575 445.585 63.0119 444.36 61.1664C444.387 61.134 444.412 61.1017 444.435 61.072C444.436 61.0706 444.437 61.0693 444.438 61.0679C445.93 62.0338 447.423 63.0011 448.938 63.9832C450.437 64.955 451.959 65.9412 453.525 66.9548L453.595 67.0001L453.602 66.9171C453.7 65.7567 453.799 64.5984 453.897 63.4419C454.723 53.7275 455.537 44.1432 456.36 34.5548C456.379 34.5543 456.398 34.5535 456.417 34.5528L456.418 34.5527C456.436 34.552 456.454 34.5513 456.471 34.5508C457.392 45.2913 458.308 56.021 459.235 66.9227L459.242 67.0057L459.312 66.9604C460.859 65.9572 462.374 64.977 463.87 64.0085C465.384 63.0291 466.878 62.0617 468.37 61.0947C468.381 61.103 468.393 61.1118 468.405 61.1209C468.43 61.139 468.456 61.1582 468.482 61.1761C466.99 63.4172 465.505 65.6587 463.98 67.9609C463.5 68.6839 463.017 69.413 462.529 70.1499L462.482 70.2203L462.566 70.2273C465.464 70.4682 468.351 70.7084 471.23 70.9479C479.302 71.6193 487.312 72.2855 495.321 72.9487V73.0624C489.493 73.5455 483.666 74.0301 477.809 74.5172C472.756 74.9374 467.682 75.3594 462.566 75.7838L462.482 75.7908L462.529 75.8613C464.569 78.9258 466.526 81.8743 468.477 84.8169L468.384 84.9225C466.751 83.8603 465.114 82.8012 463.449 81.7243C462.093 80.8469 460.718 79.9577 459.312 79.0452L459.242 78.9998L459.235 79.0829C458.98 82.0752 458.727 85.0554 458.473 88.027C457.805 95.8717 457.142 103.657 456.482 111.447C456.441 111.449 456.402 111.45 456.36 111.45C455.45 100.726 454.54 90.0014 453.602 79.0773L453.595 78.9942L453.525 79.0397C450.418 81.0574 447.434 82.9868 444.451 84.9158C444.446 84.9117 444.44 84.9075 444.434 84.9034C444.407 84.883 444.38 84.8625 444.352 84.8397C445.669 82.861 446.981 80.8795 448.32 78.8571C448.975 77.8679 449.636 76.8689 450.308 75.8557L450.355 75.7853L450.27 75.7782ZM456.387 76.8068H456.387C458.586 76.8068 460.263 75.15 460.258 72.986C460.252 70.8664 458.563 69.2155 456.416 69.2098C454.301 69.2042 452.574 70.9113 452.579 73.0029C452.585 75.1216 454.261 76.8012 456.387 76.8068Z" fill="white" stroke="#47ABEE" stroke-width="0.1"/>
<path d="M453.175 95.5161C443.476 94.565 434.665 86.0058 433.641 76.2174C434.451 76.2786 435.183 76.3564 435.914 76.3731C436.488 76.3843 436.724 76.6067 436.854 77.1796C437.861 81.7901 440.263 85.5609 443.971 88.5085C446.395 90.4384 449.141 91.7286 452.19 92.3515C452.747 92.4628 453.023 92.6574 453.023 93.2636C453.012 94.0144 453.113 94.7597 453.175 95.5161Z" fill="#47ABEE"/>
<path d="M453.18 50.484C453.107 51.4017 453.096 52.2415 452.944 53.059C452.899 53.2926 452.483 53.5651 452.196 53.6263C448.393 54.4717 445.096 56.2291 442.328 58.9432C439.537 61.6739 437.692 64.9385 436.87 68.7371C436.719 69.4323 436.437 69.6659 435.756 69.6548C435.109 69.6436 434.457 69.7382 433.81 69.7827C433.776 69.7827 433.737 69.7604 433.697 69.7326C433.686 69.7271 433.675 69.7159 433.664 69.7104C434.558 60.4448 443.025 51.5685 453.18 50.484Z" fill="#47ABEE"/>
<path d="M479.207 69.816C478.267 69.7381 477.345 69.6992 476.439 69.5546C476.264 69.5268 476.079 69.1097 476.023 68.8427C475.156 64.9608 473.288 61.6183 470.413 58.8486C467.696 56.2235 464.478 54.4661 460.748 53.6874C460.056 53.5428 459.803 53.2648 459.814 52.5863C459.825 51.9189 459.718 51.2515 459.656 50.5062C468.956 51.3571 478.087 59.6216 479.207 69.816Z" fill="#47ABEE"/>
<path d="M479.263 76.2063C478.627 80.6278 476.889 84.4652 474.008 87.7855C470.25 92.1235 465.496 94.7152 459.639 95.6218C459.718 94.6151 459.735 93.7698 459.887 92.9522C459.932 92.7186 460.354 92.4517 460.646 92.3849C464.517 91.534 467.848 89.7098 470.638 86.9457C473.412 84.1983 475.195 80.8947 476.022 77.1073C476.129 76.6067 476.298 76.3954 476.832 76.3898C477.592 76.3787 478.352 76.2786 479.263 76.2063Z" fill="#47ABEE"/>
<path d="M459.122 72.9861C459.139 74.421 457.907 75.6613 456.444 75.6779C454.981 75.6946 453.726 74.4766 453.721 73.0362C453.721 72.6636 453.794 72.3132 453.934 71.9851C454.002 71.8238 454.081 71.6681 454.176 71.5234C454.649 70.8116 455.465 70.3444 456.393 70.3277C457.124 70.3222 457.805 70.6169 458.3 71.1119C458.368 71.1675 458.424 71.2342 458.48 71.2954C458.869 71.757 459.11 72.3466 459.122 72.9861Z" fill="#47ABEE"/>
<rect x="547.621" y="24.5" width="8.75916" height="130" fill="#47ABEE"/>
<path d="M604.059 94.12C620.219 94.12 633.179 81.32 633.179 65C633.179 48.6 620.219 35.88 604.059 35.88C587.899 35.88 575.019 48.6 575.019 65C575.019 81.32 587.899 94.12 604.059 94.12ZM604.059 83.32C593.899 83.32 585.979 75.72 585.979 65C585.979 54.2 593.899 46.6 604.059 46.6C614.219 46.6 622.139 54.2 622.139 65C622.139 75.72 614.219 83.32 604.059 83.32ZM671.659 93H683.579L671.179 71.88C677.579 68.92 681.979 62.6 681.979 55.56C681.979 45.32 673.659 37 663.339 37H640.939V93H651.979V73.56H660.379L671.659 93ZM651.979 47.32H663.339C667.499 47.32 670.939 50.92 670.939 55.56C670.939 60.2 667.499 63.88 663.339 63.88H651.979V47.32ZM701.119 82.44V37H690.079V93H722.479V82.44H701.119ZM766.314 93H778.314L758.634 37H744.954L725.354 93H737.274L740.634 82.92H762.954L766.314 93ZM744.154 72.6L751.834 49.72L759.514 72.6H744.154ZM816.151 37V71.16L792.151 37H783.751V93H794.791V58.76L818.791 93H827.191V37H816.151ZM859.819 37H837.579V93H859.819C875.259 93 886.779 80.76 886.779 65C886.779 49.24 875.259 37 859.819 37ZM859.819 82.44H848.619V47.56H859.819C869.499 47.56 876.219 54.68 876.219 65C876.219 75.32 869.499 82.44 859.819 82.44ZM921.091 94.12C937.251 94.12 950.211 81.32 950.211 65C950.211 48.6 937.251 35.88 921.091 35.88C904.931 35.88 892.051 48.6 892.051 65C892.051 81.32 904.931 94.12 921.091 94.12ZM921.091 83.32C910.931 83.32 903.011 75.72 903.011 65C903.011 54.2 910.931 46.6 921.091 46.6C931.251 46.6 939.171 54.2 939.171 65C939.171 75.72 931.251 83.32 921.091 83.32ZM967.028 81.96H955.828L952.628 104.2H961.028L967.028 81.96Z" fill="white"/>
<path d="M588.171 150.624C595.515 150.624 600.747 146.016 600.747 138.72V116.4H596.331V138.528C596.331 143.184 593.547 146.256 588.171 146.256C582.795 146.256 580.011 143.184 580.011 138.528V116.4H575.547V138.72C575.547 146.016 580.827 150.624 588.171 150.624ZM628.453 116.4V141.456L611.173 116.4H607.573V150H612.037V124.896L629.317 150H632.917V116.4H628.453ZM640.104 116.4V150H644.568V116.4H640.104ZM673.28 116.4H649.04V120.624H658.928V150H663.344V120.624H673.28V116.4ZM682.162 145.776V135.12H696.322V130.944H682.162V120.624H697.522V116.4H677.698V150H697.762V145.776H682.162ZM716.255 116.4H703.151V150H716.255C725.519 150 732.191 142.512 732.191 133.2C732.191 123.888 725.519 116.4 716.255 116.4ZM716.255 145.776H707.615V120.624H716.255C723.167 120.624 727.919 126.096 727.919 133.2C727.919 140.304 723.167 145.776 716.255 145.776ZM760.452 150.624C767.316 150.624 772.068 146.88 772.068 140.976C772.068 134.496 766.548 132.768 760.692 130.848C755.988 129.36 753.636 128.208 753.636 125.088C753.636 122.016 756.132 120.096 759.732 120.096C763.812 120.096 766.164 122.4 767.364 125.28L771.108 123.12C769.236 118.896 765.252 115.776 759.732 115.776C754.116 115.776 749.172 119.232 749.172 125.28C749.172 131.52 754.356 133.2 759.732 134.928C764.676 136.464 767.652 137.616 767.652 141.072C767.652 144.096 765.3 146.256 760.548 146.256C755.652 146.256 752.772 143.856 751.572 140.16L747.732 142.368C749.508 147.408 754.068 150.624 760.452 150.624ZM797.64 116.4H773.4V120.624H783.288V150H787.704V120.624H797.64V116.4ZM821.748 150H826.5L813.972 116.4H808.932L796.404 150H801.156L803.892 142.464H819.012L821.748 150ZM805.428 138.288L811.428 121.728L817.476 138.288H805.428ZM849.53 116.4H825.29V120.624H835.178V150H839.594V120.624H849.53V116.4ZM858.412 145.776V135.12H872.572V130.944H858.412V120.624H873.772V116.4H853.948V150H874.012V145.776H858.412ZM890.249 150.624C897.113 150.624 901.865 146.88 901.865 140.976C901.865 134.496 896.345 132.768 890.489 130.848C885.785 129.36 883.433 128.208 883.433 125.088C883.433 122.016 885.929 120.096 889.529 120.096C893.609 120.096 895.961 122.4 897.161 125.28L900.905 123.12C899.033 118.896 895.049 115.776 889.529 115.776C883.913 115.776 878.969 119.232 878.969 125.28C878.969 131.52 884.153 133.2 889.529 134.928C894.473 136.464 897.449 137.616 897.449 141.072C897.449 144.096 895.097 146.256 890.345 146.256C885.449 146.256 882.569 143.856 881.369 140.16L877.529 142.368C879.305 147.408 883.865 150.624 890.249 150.624Z" fill="#47ABEE"/>
</svg>
