<svg width="877" height="179" viewBox="0 0 877 179" fill="none" xmlns="http://www.w3.org/2000/svg">
<path d="M414.371 77.3774C400.7 76.2424 387.029 75.1004 373.16 73.9444C375.74 70.042 378.2 66.3147 380.674 62.5874C380.597 62.5384 380.519 62.4753 380.448 62.4263C376.709 64.8574 372.955 67.2886 369.032 69.8388C367.866 56.0857 366.714 42.5499 365.554 29C365.477 29 365.378 29.007 365.3 29.007C364.141 42.5429 362.996 56.0717 361.829 69.8318C357.857 67.2535 354.11 64.8154 350.364 62.3843C350.314 62.4473 350.265 62.5174 350.201 62.5874C352.668 66.3147 355.128 70.042 357.694 73.9234C343.769 75.0934 330.07 76.2284 316.371 77.3774C316.371 77.4615 316.378 77.5385 316.378 77.6226C330.077 78.7576 343.776 79.8996 357.701 81.0626C355.121 84.965 352.661 88.6993 350.187 92.4266C350.258 92.4896 350.328 92.5387 350.392 92.5877C354.153 90.1496 357.913 87.7115 361.829 85.1612C363.01 98.9423 364.155 112.471 365.3 126C365.392 126 365.477 126 365.569 125.993C366.714 112.443 367.866 98.9073 369.032 85.1682C372.984 87.7395 376.737 90.1636 380.476 92.6017L380.66 92.3916C378.2 88.6713 375.733 84.944 373.16 81.0696C387.057 79.9136 400.714 78.7716 414.371 77.6366V77.3774ZM365.392 82.2327C362.755 82.2256 360.677 80.1378 360.67 77.5035C360.663 74.9042 362.805 72.7814 365.427 72.7884C368.092 72.7954 370.184 74.8482 370.191 77.4825C370.199 80.1728 368.12 82.2327 365.392 82.2327Z" fill="white"/>
<path d="M361.355 105.864C349.169 104.666 338.099 93.8839 336.813 81.5531C337.831 81.6302 338.75 81.7283 339.669 81.7493C340.39 81.7633 340.687 82.0435 340.849 82.7652C342.114 88.5733 345.133 93.3234 349.791 97.0367C352.838 99.4678 356.287 101.093 360.118 101.878C360.818 102.018 361.165 102.263 361.165 103.027C361.15 103.973 361.278 104.912 361.355 105.864Z" fill="#47ABEE"/>
<path d="M361.363 49.1356C361.271 50.2916 361.256 51.3496 361.066 52.3795C361.009 52.6737 360.486 53.017 360.125 53.0941C355.347 54.159 351.205 56.373 347.727 59.792C344.221 63.232 341.902 67.3446 340.87 72.1298C340.68 73.0055 340.326 73.2998 339.471 73.2858C338.658 73.2718 337.838 73.3909 337.025 73.4469C336.983 73.4469 336.933 73.4189 336.884 73.3839C336.87 73.3769 336.855 73.3629 336.841 73.3558C337.965 61.6836 348.604 50.5018 361.363 49.1356Z" fill="#47ABEE"/>
<path d="M394.062 73.489C392.882 73.3909 391.722 73.3419 390.584 73.1597C390.365 73.1247 390.132 72.5992 390.061 72.2629C388.973 67.3727 386.626 63.162 383.014 59.6729C379.6 56.366 375.556 54.1521 370.87 53.1712C370 52.989 369.682 52.6387 369.696 51.784C369.711 50.9433 369.576 50.1025 369.499 49.1637C381.183 50.2356 392.655 60.6468 394.062 73.489Z" fill="#47ABEE"/>
<path d="M394.133 81.5391C393.334 87.1089 391.15 91.9432 387.531 96.1258C382.809 101.591 376.836 104.855 369.478 105.997C369.577 104.729 369.598 103.664 369.789 102.635C369.845 102.34 370.375 102.004 370.743 101.92C375.606 100.848 379.791 98.55 383.297 95.0679C386.782 91.6069 389.022 87.4452 390.062 82.6741C390.196 82.0435 390.408 81.7773 391.079 81.7703C392.034 81.7562 392.988 81.6301 394.133 81.5391Z" fill="#47ABEE"/>
<path d="M368.827 77.4825C368.848 79.29 367.3 80.8524 365.462 80.8734C363.624 80.8944 362.048 79.3601 362.041 77.5455C362.041 77.0761 362.133 76.6347 362.31 76.2213C362.394 76.0182 362.493 75.822 362.614 75.6398C363.207 74.7431 364.232 74.1545 365.399 74.1335C366.318 74.1265 367.173 74.4978 367.795 75.1214C367.88 75.1914 367.95 75.2755 368.021 75.3526C368.509 75.9341 368.813 76.6767 368.827 77.4825Z" fill="#47ABEE"/>
<path d="M357.705 81.0128C343.795 79.8511 330.111 78.7103 316.427 77.5765C316.426 77.5498 316.425 77.5238 316.424 77.4983L316.424 77.4978C316.423 77.4727 316.422 77.4481 316.421 77.4233C322.767 76.8911 329.112 76.3619 335.481 75.8308C342.845 75.2166 350.239 74.5999 357.698 73.9732L357.782 73.9661L357.736 73.8958C356.78 72.45 355.839 71.0255 354.907 69.6145C353.343 67.2484 351.805 64.92 350.264 62.5918C350.301 62.5488 350.334 62.5059 350.364 62.4663C350.368 62.4612 350.371 62.4562 350.375 62.4513C352.254 63.6702 354.132 64.8908 356.039 66.1301C357.923 67.3543 359.834 68.5967 361.802 69.8737L361.872 69.9192L361.879 69.836C362.003 68.3695 362.127 66.9056 362.251 65.444C363.288 53.2073 364.311 41.1345 365.346 29.0564C365.373 29.0557 365.401 29.0546 365.428 29.0535L365.429 29.0535C365.456 29.0524 365.483 29.0513 365.509 29.0507C366.666 42.585 367.817 56.1057 368.982 69.843L368.989 69.9262L369.059 69.8807C371.003 68.617 372.906 67.3823 374.786 66.1623C376.69 64.9269 378.57 63.7066 380.447 62.4867C380.464 62.4989 380.481 62.512 380.5 62.5255C380.534 62.5506 380.569 62.5772 380.605 62.6015C378.729 65.4281 376.861 68.255 374.942 71.1586C374.34 72.0697 373.732 72.9883 373.119 73.9168L373.072 73.9872L373.156 73.9942C376.797 74.2977 380.425 74.6003 384.042 74.902C394.188 75.7481 404.254 76.5877 414.321 77.4234V77.5906C406.995 78.1994 399.67 78.8102 392.307 79.4242C385.959 79.9535 379.583 80.4852 373.156 81.0198L373.072 81.0268L373.119 81.0973C375.684 84.9606 378.144 88.6776 380.597 92.3873L380.467 92.5361C378.412 91.1964 376.353 89.8605 374.258 88.5021C372.554 87.3966 370.826 86.2761 369.059 85.1263L368.989 85.0808L368.982 85.164C368.662 88.9351 368.343 92.6909 368.025 96.4359C367.185 106.32 366.352 116.13 365.522 125.946C365.463 125.949 365.406 125.95 365.346 125.95C364.202 112.436 363.058 98.9225 361.879 85.157L361.872 85.0737L361.802 85.1193C357.896 87.6629 354.145 90.0949 350.394 92.5266C350.385 92.5197 350.376 92.5128 350.367 92.5059C350.329 92.4779 350.291 92.4496 350.253 92.4175C351.91 89.9218 353.56 87.4227 355.244 84.8719C356.068 83.6256 356.899 82.3669 357.743 81.0902L357.789 81.0198L357.705 81.0128ZM365.392 82.2827H365.392C368.147 82.2827 370.249 80.201 370.241 77.4824C370.234 74.8198 368.119 72.7454 365.427 72.7384C362.778 72.7313 360.613 74.8762 360.62 77.5036C360.627 80.1653 362.727 82.2756 365.392 82.2827Z" fill="white" stroke="#47ABEE" stroke-width="0.1"/>
<path d="M361.355 105.864C349.169 104.666 338.099 93.8839 336.813 81.5531C337.831 81.6302 338.75 81.7283 339.669 81.7493C340.39 81.7633 340.687 82.0435 340.849 82.7652C342.114 88.5733 345.133 93.3234 349.791 97.0367C352.838 99.4678 356.287 101.093 360.118 101.878C360.818 102.018 361.165 102.263 361.165 103.027C361.15 103.973 361.278 104.912 361.355 105.864Z" fill="#47ABEE"/>
<path d="M361.363 49.1356C361.271 50.2916 361.256 51.3496 361.066 52.3795C361.009 52.6737 360.486 53.017 360.125 53.0941C355.347 54.159 351.205 56.373 347.727 59.792C344.221 63.232 341.902 67.3446 340.87 72.1298C340.68 73.0055 340.326 73.2998 339.471 73.2858C338.658 73.2718 337.838 73.3909 337.025 73.4469C336.983 73.4469 336.933 73.4189 336.884 73.3839C336.87 73.3769 336.855 73.3629 336.841 73.3558C337.965 61.6836 348.604 50.5018 361.363 49.1356Z" fill="#47ABEE"/>
<path d="M394.062 73.489C392.882 73.3909 391.722 73.3419 390.584 73.1597C390.365 73.1247 390.132 72.5992 390.061 72.2629C388.973 67.3727 386.626 63.162 383.014 59.6729C379.6 56.366 375.556 54.1521 370.87 53.1712C370 52.989 369.682 52.6387 369.696 51.784C369.711 50.9433 369.576 50.1025 369.499 49.1637C381.183 50.2356 392.655 60.6468 394.062 73.489Z" fill="#47ABEE"/>
<path d="M394.133 81.5391C393.334 87.1089 391.15 91.9432 387.531 96.1258C382.809 101.591 376.836 104.855 369.478 105.997C369.577 104.729 369.598 103.664 369.789 102.635C369.845 102.34 370.375 102.004 370.743 101.92C375.606 100.848 379.791 98.55 383.297 95.0679C386.782 91.6069 389.022 87.4452 390.062 82.6741C390.196 82.0435 390.408 81.7773 391.079 81.7703C392.034 81.7562 392.988 81.6301 394.133 81.5391Z" fill="#47ABEE"/>
<path d="M368.827 77.4825C368.848 79.29 367.3 80.8524 365.462 80.8734C363.624 80.8944 362.048 79.3601 362.041 77.5455C362.041 77.0761 362.133 76.6347 362.31 76.2213C362.394 76.0182 362.493 75.822 362.614 75.6398C363.207 74.7431 364.232 74.1545 365.399 74.1335C366.318 74.1265 367.173 74.4978 367.795 75.1214C367.88 75.1914 367.95 75.2755 368.021 75.3526C368.509 75.9341 368.813 76.6767 368.827 77.4825Z" fill="#47ABEE"/>
<path d="M84.7986 35.3H58.1106V102.5H84.7986C103.327 102.5 117.151 87.812 117.151 68.9C117.151 49.988 103.327 35.3 84.7986 35.3ZM84.7986 89.828H71.3586V47.972H84.7986C96.4146 47.972 104.479 56.516 104.479 68.9C104.479 81.284 96.4146 89.828 84.7986 89.828ZM136.436 83.588H172.628C172.916 81.956 173.108 80.324 173.108 78.5C173.108 64.388 163.028 53.156 148.82 53.156C133.748 53.156 123.476 64.196 123.476 78.5C123.476 92.804 133.652 103.844 149.78 103.844C158.996 103.844 166.196 100.1 170.708 93.572L160.724 87.812C158.612 90.596 154.772 92.612 149.972 92.612C143.444 92.612 138.164 89.924 136.436 83.588ZM136.244 73.988C137.684 67.844 142.196 64.292 148.82 64.292C154.004 64.292 159.188 67.076 160.724 73.988H136.244ZM191.302 68.132C191.302 65.54 193.798 64.196 196.87 64.196C200.422 64.196 203.11 66.02 204.55 69.092L215.11 63.332C211.366 56.708 204.646 53.156 196.87 53.156C186.982 53.156 178.63 58.628 178.63 68.42C178.63 85.316 203.398 81.476 203.398 88.484C203.398 91.268 200.71 92.612 196.774 92.612C191.974 92.612 188.71 90.308 187.366 86.372L176.614 92.42C180.07 99.812 187.174 103.844 196.774 103.844C207.046 103.844 216.07 98.852 216.07 88.484C216.07 70.82 191.302 75.236 191.302 68.132ZM250.084 66.404V54.5H239.236V41.06L226.852 44.804V54.5H218.5V66.404H226.852V86.372C226.852 99.332 232.708 104.42 250.084 102.5V91.268C242.98 91.652 239.236 91.556 239.236 86.372V66.404H250.084ZM264.96 48.74C269.184 48.74 272.64 45.284 272.64 41.156C272.64 37.028 269.184 33.476 264.96 33.476C260.832 33.476 257.376 37.028 257.376 41.156C257.376 45.284 260.832 48.74 264.96 48.74ZM258.816 102.5H271.2V54.5H258.816V102.5ZM309.223 53.156C302.791 53.156 297.799 55.556 294.919 59.876V54.5H282.535V102.5H294.919V76.58C294.919 68.228 299.431 64.676 305.479 64.676C311.047 64.676 314.983 68.036 314.983 74.564V102.5H327.367V73.028C327.367 60.26 319.399 53.156 309.223 53.156Z" fill="white"/>
<path d="M264.871 121.9V136.204C262.855 132.988 259.447 130.924 255.175 130.924C248.407 130.924 242.791 136.396 242.791 143.5C242.791 150.604 248.407 156.076 255.175 156.076C259.447 156.076 262.855 154.012 264.871 150.796V155.5H268.039V121.9H264.871ZM255.415 153.004C250.087 153.004 245.959 148.828 245.959 143.5C245.959 138.172 250.087 133.996 255.415 133.996C260.743 133.996 264.871 138.172 264.871 143.5C264.871 148.828 260.743 153.004 255.415 153.004ZM285.834 130.924C278.394 130.924 273.306 136.444 273.306 143.5C273.306 150.748 278.49 156.076 286.074 156.076C290.922 156.076 294.618 153.82 296.634 150.556L293.85 148.924C292.554 151.228 289.914 153.004 286.122 153.004C281.034 153.004 277.242 149.98 276.57 145.084H297.642C297.69 144.604 297.738 144.076 297.738 143.596C297.738 137.02 293.178 130.924 285.834 130.924ZM285.834 133.996C289.962 133.996 293.802 136.732 294.474 142.012H276.57C277.194 137.308 280.794 133.996 285.834 133.996ZM302.777 155.5H305.945V120.46H302.777V155.5ZM350.252 130.924C347.18 130.924 344.252 132.316 342.476 135.292C341.132 132.508 338.54 130.924 335.18 130.924C332.3 130.924 329.708 132.076 327.836 135.004V131.5H324.668V155.5H327.836V142.204C327.836 136.252 331.292 133.996 334.748 133.996C338.156 133.996 340.364 136.252 340.364 140.524V155.5H343.532V142.204C343.532 136.252 346.508 133.996 350.204 133.996C353.612 133.996 356.06 136.252 356.06 140.524V155.5H359.228V140.524C359.228 134.524 355.532 130.924 350.252 130.924ZM376.444 130.924C369.004 130.924 363.916 136.444 363.916 143.5C363.916 150.748 369.1 156.076 376.684 156.076C381.532 156.076 385.228 153.82 387.244 150.556L384.46 148.924C383.164 151.228 380.524 153.004 376.732 153.004C371.644 153.004 367.852 149.98 367.18 145.084H388.252C388.3 144.604 388.348 144.076 388.348 143.596C388.348 137.02 383.788 130.924 376.444 130.924ZM376.444 133.996C380.572 133.996 384.412 136.732 385.084 142.012H367.18C367.804 137.308 371.404 133.996 376.444 133.996ZM394.945 137.788C394.945 135.196 397.489 133.996 399.985 133.996C402.289 133.996 404.737 134.908 405.745 137.356L408.385 135.82C406.993 132.844 403.921 130.924 399.985 130.924C395.185 130.924 391.777 133.948 391.777 137.788C391.777 146.62 405.793 143.212 405.793 149.164C405.793 151.996 403.105 153.004 400.273 153.004C397.057 153.004 394.561 151.42 393.697 148.972L391.009 150.556C392.209 153.628 395.473 156.076 400.273 156.076C405.409 156.076 408.961 153.244 408.961 149.164C408.961 140.332 394.945 143.74 394.945 137.788Z" fill="white"/>
<rect x="430.371" y="24.5" width="8.75916" height="130" fill="#47ABEE"/>
<path d="M480.473 91.396C493.401 91.396 503.769 81.156 503.769 68.1C503.769 54.98 493.401 44.804 480.473 44.804C467.545 44.804 457.241 54.98 457.241 68.1C457.241 81.156 467.545 91.396 480.473 91.396ZM480.473 82.756C472.345 82.756 466.009 76.676 466.009 68.1C466.009 59.46 472.345 53.38 480.473 53.38C488.601 53.38 494.937 59.46 494.937 68.1C494.937 76.676 488.601 82.756 480.473 82.756ZM534.553 90.5H544.089L534.169 73.604C539.289 71.236 542.809 66.18 542.809 60.548C542.809 52.356 536.153 45.7 527.897 45.7H509.977V90.5H518.809V74.948H525.529L534.553 90.5ZM518.809 53.956H527.897C531.225 53.956 533.977 56.836 533.977 60.548C533.977 64.26 531.225 67.204 527.897 67.204H518.809V53.956ZM558.121 82.052V45.7H549.289V90.5H575.209V82.052H558.121ZM610.277 90.5H619.877L604.133 45.7H593.189L577.509 90.5H587.045L589.733 82.436H607.589L610.277 90.5ZM592.549 74.18L598.693 55.876L604.837 74.18H592.549ZM650.147 45.7V73.028L630.947 45.7H624.227V90.5H633.059V63.108L652.259 90.5H658.979V45.7H650.147ZM685.081 45.7H667.289V90.5H685.081C697.433 90.5 706.649 80.708 706.649 68.1C706.649 55.492 697.433 45.7 685.081 45.7ZM685.081 82.052H676.121V54.148H685.081C692.825 54.148 698.201 59.844 698.201 68.1C698.201 76.356 692.825 82.052 685.081 82.052ZM734.098 91.396C747.026 91.396 757.394 81.156 757.394 68.1C757.394 54.98 747.026 44.804 734.098 44.804C721.17 44.804 710.866 54.98 710.866 68.1C710.866 81.156 721.17 91.396 734.098 91.396ZM734.098 82.756C725.97 82.756 719.634 76.676 719.634 68.1C719.634 59.46 725.97 53.38 734.098 53.38C742.226 53.38 748.562 59.46 748.562 68.1C748.562 76.676 742.226 82.756 734.098 82.756ZM770.848 81.668H761.888L759.328 99.46H766.048L770.848 81.668Z" fill="white"/>
<path d="M462.185 134.804V125.48H474.575V121.826H462.185V112.796H475.625V109.1H458.279V138.5H475.835V134.804H462.185ZM490.043 139.046C496.049 139.046 500.207 135.77 500.207 130.604C500.207 124.934 495.377 123.422 490.253 121.742C486.137 120.44 484.079 119.432 484.079 116.702C484.079 114.014 486.263 112.334 489.413 112.334C492.983 112.334 495.041 114.35 496.091 116.87L499.367 114.98C497.729 111.284 494.243 108.554 489.413 108.554C484.499 108.554 480.173 111.578 480.173 116.87C480.173 122.33 484.709 123.8 489.413 125.312C493.739 126.656 496.343 127.664 496.343 130.688C496.343 133.334 494.285 135.224 490.127 135.224C485.843 135.224 483.323 133.124 482.273 129.89L478.913 131.822C480.467 136.232 484.457 139.046 490.043 139.046ZM522.582 109.1H501.372V112.796H510.024V138.5H513.888V112.796H522.582V109.1ZM543.677 138.5H547.835L536.873 109.1H532.463L521.501 138.5H525.659L528.053 131.906H541.283L543.677 138.5ZM529.397 128.252L534.647 113.762L539.939 128.252H529.397ZM562.769 109.1H551.303V138.5H562.769C570.875 138.5 576.713 131.948 576.713 123.8C576.713 115.652 570.875 109.1 562.769 109.1ZM562.769 134.804H555.209V112.796H562.769C568.817 112.796 572.975 117.584 572.975 123.8C572.975 130.016 568.817 134.804 562.769 134.804ZM595.099 139.046C603.625 139.046 610.345 132.242 610.345 123.8C610.345 115.316 603.625 108.554 595.099 108.554C586.573 108.554 579.895 115.316 579.895 123.8C579.895 132.242 586.573 139.046 595.099 139.046ZM595.099 135.224C588.673 135.224 583.759 130.226 583.759 123.8C583.759 117.332 588.673 112.334 595.099 112.334C601.525 112.334 606.439 117.332 606.439 123.8C606.439 130.226 601.525 135.224 595.099 135.224ZM623.467 139.046C629.473 139.046 633.631 135.77 633.631 130.604C633.631 124.934 628.801 123.422 623.677 121.742C619.561 120.44 617.503 119.432 617.503 116.702C617.503 114.014 619.687 112.334 622.837 112.334C626.407 112.334 628.465 114.35 629.515 116.87L632.791 114.98C631.153 111.284 627.667 108.554 622.837 108.554C617.923 108.554 613.597 111.578 613.597 116.87C613.597 122.33 618.133 123.8 622.837 125.312C627.163 126.656 629.767 127.664 629.767 130.688C629.767 133.334 627.709 135.224 623.551 135.224C619.267 135.224 616.747 133.124 615.697 129.89L612.337 131.822C613.891 136.232 617.881 139.046 623.467 139.046ZM659.424 139.046C665.85 139.046 670.428 135.014 670.428 128.63V109.1H666.564V128.462C666.564 132.536 664.128 135.224 659.424 135.224C654.72 135.224 652.284 132.536 652.284 128.462V109.1H648.378V128.63C648.378 135.014 652.998 139.046 659.424 139.046ZM694.67 109.1V131.024L679.55 109.1H676.4V138.5H680.306V116.534L695.426 138.5H698.576V109.1H694.67ZM704.865 109.1V138.5H708.771V109.1H704.865ZM726.544 109.1H715.078V138.5H726.544C734.65 138.5 740.488 131.948 740.488 123.8C740.488 115.652 734.65 109.1 726.544 109.1ZM726.544 134.804H718.984V112.796H726.544C732.592 112.796 736.75 117.584 736.75 123.8C736.75 130.016 732.592 134.804 726.544 134.804ZM758.875 139.046C767.401 139.046 774.121 132.242 774.121 123.8C774.121 115.316 767.401 108.554 758.875 108.554C750.349 108.554 743.671 115.316 743.671 123.8C743.671 132.242 750.349 139.046 758.875 139.046ZM758.875 135.224C752.449 135.224 747.535 130.226 747.535 123.8C747.535 117.332 752.449 112.334 758.875 112.334C765.301 112.334 770.215 117.332 770.215 123.8C770.215 130.226 765.301 135.224 758.875 135.224ZM787.242 139.046C793.248 139.046 797.406 135.77 797.406 130.604C797.406 124.934 792.576 123.422 787.452 121.742C783.336 120.44 781.278 119.432 781.278 116.702C781.278 114.014 783.462 112.334 786.612 112.334C790.182 112.334 792.24 114.35 793.29 116.87L796.566 114.98C794.928 111.284 791.442 108.554 786.612 108.554C781.698 108.554 777.372 111.578 777.372 116.87C777.372 122.33 781.908 123.8 786.612 125.312C790.938 126.656 793.542 127.664 793.542 130.688C793.542 133.334 791.484 135.224 787.326 135.224C783.042 135.224 780.522 133.124 779.472 129.89L776.112 131.822C777.666 136.232 781.656 139.046 787.242 139.046Z" fill="#47ABEE"/>
</svg>
