<svg width="871" height="179" viewBox="0 0 871 179" fill="none" xmlns="http://www.w3.org/2000/svg">
<path d="M424.05 77.8774C410.379 76.7424 396.709 75.6004 382.84 74.4444C385.42 70.542 387.88 66.8147 390.354 63.0874C390.276 63.0384 390.198 62.9753 390.128 62.9263C386.388 65.3574 382.635 67.7886 378.712 70.3388C377.546 56.5857 376.393 43.0499 375.234 29.5C375.156 29.5 375.057 29.507 374.98 29.507C373.82 43.0429 372.675 56.5717 371.509 70.3318C367.536 67.7535 363.79 65.3154 360.044 62.8843C359.994 62.9473 359.945 63.0174 359.881 63.0874C362.348 66.8147 364.808 70.542 367.374 74.4234C353.448 75.5934 339.749 76.7284 326.05 77.8774C326.05 77.9615 326.057 78.0385 326.057 78.1226C339.756 79.2576 353.456 80.3996 367.381 81.5626C364.801 85.465 362.341 89.1993 359.867 92.9266C359.937 92.9896 360.008 93.0387 360.072 93.0877C363.832 90.6496 367.593 88.2115 371.509 85.6612C372.689 99.4423 373.834 112.971 374.98 126.5C375.071 126.5 375.156 126.5 375.248 126.493C376.393 112.943 377.546 99.4073 378.712 85.6682C382.663 88.2395 386.417 90.6636 390.156 93.1017L390.34 92.8916C387.88 89.1713 385.413 85.444 382.84 81.5696C396.737 80.4136 410.394 79.2716 424.05 78.1366V77.8774ZM375.071 82.7327C372.435 82.7256 370.357 80.6378 370.35 78.0035C370.343 75.4042 372.484 73.2814 375.107 73.2884C377.772 73.2954 379.864 75.3482 379.871 77.9825C379.878 80.6728 377.8 82.7327 375.071 82.7327Z" fill="white"/>
<path d="M371.035 106.364C358.849 105.166 347.779 94.3838 346.493 82.053C347.511 82.1301 348.429 82.2282 349.348 82.2492C350.069 82.2632 350.366 82.5435 350.529 83.2651C351.794 89.0732 354.812 93.8234 359.471 97.5366C362.517 99.9677 365.967 101.593 369.798 102.378C370.498 102.518 370.844 102.763 370.844 103.527C370.83 104.473 370.957 105.412 371.035 106.364Z" fill="#47ABEE"/>
<path d="M371.042 49.6356C370.95 50.7916 370.936 51.8496 370.745 52.8795C370.689 53.1737 370.166 53.517 369.805 53.5941C365.027 54.659 360.885 56.873 357.407 60.292C353.901 63.732 351.582 67.8446 350.55 72.6298C350.359 73.5055 350.006 73.7998 349.151 73.7858C348.338 73.7718 347.518 73.8909 346.705 73.9469C346.662 73.9469 346.613 73.9189 346.563 73.8839C346.549 73.8769 346.535 73.8629 346.521 73.8558C347.645 62.1836 358.283 51.0018 371.042 49.6356Z" fill="#47ABEE"/>
<path d="M403.742 73.989C402.561 73.8909 401.402 73.8419 400.264 73.6597C400.045 73.6247 399.812 73.0992 399.741 72.7629C398.652 67.8727 396.306 63.662 392.694 60.1729C389.279 56.866 385.236 54.6521 380.55 53.6712C379.68 53.489 379.362 53.1387 379.376 52.284C379.39 51.4433 379.256 50.6025 379.178 49.6637C390.863 50.7356 402.335 61.1468 403.742 73.989Z" fill="#47ABEE"/>
<path d="M403.813 82.0391C403.014 87.6089 400.83 92.4432 397.211 96.6258C392.489 102.091 386.516 105.355 379.157 106.497C379.256 105.229 379.277 104.164 379.468 103.135C379.525 102.84 380.055 102.504 380.423 102.42C385.286 101.348 389.47 99.05 392.976 95.5679C396.461 92.1069 398.702 87.9452 399.741 83.1741C399.875 82.5435 400.088 82.2773 400.759 82.2703C401.713 82.2562 402.668 82.1301 403.813 82.0391Z" fill="#47ABEE"/>
<path d="M378.507 77.9825C378.528 79.7901 376.98 81.3525 375.142 81.3735C373.304 81.3945 371.728 79.8602 371.721 78.0456C371.721 77.5762 371.813 77.1348 371.989 76.7214C372.074 76.5182 372.173 76.3221 372.293 76.1399C372.887 75.2431 373.912 74.6546 375.078 74.6336C375.997 74.6266 376.853 74.9979 377.475 75.6214C377.559 75.6915 377.63 75.7756 377.701 75.8526C378.189 76.4342 378.492 77.1768 378.507 77.9825Z" fill="#47ABEE"/>
<path d="M367.385 81.5128C353.475 80.3511 339.791 79.2103 326.107 78.0765C326.106 78.0498 326.105 78.0238 326.104 77.9983L326.104 77.9978C326.103 77.9727 326.102 77.9481 326.101 77.9233C332.446 77.3911 338.792 76.8619 345.16 76.3308C352.525 75.7166 359.919 75.0999 367.378 74.4732L367.462 74.4661L367.415 74.3958C366.46 72.95 365.519 71.5255 364.586 70.1145C363.023 67.7484 361.485 65.42 359.944 63.0918C359.981 63.0488 360.013 63.0059 360.044 62.9663C360.047 62.9612 360.051 62.9562 360.055 62.9513C361.933 64.1702 363.812 65.3908 365.718 66.6301C367.602 67.8543 369.514 69.0967 371.482 70.3737L371.552 70.4192L371.559 70.336C371.683 68.8695 371.807 67.4056 371.931 65.944C372.968 53.7073 373.991 41.6345 375.026 29.5564C375.053 29.5557 375.081 29.5546 375.108 29.5535L375.109 29.5535C375.136 29.5524 375.163 29.5513 375.188 29.5507C376.346 43.085 377.497 56.6057 378.662 70.343L378.669 70.4262L378.739 70.3807C380.683 69.117 382.586 67.8823 384.466 66.6623C386.37 65.4269 388.25 64.2066 390.127 62.9867C390.143 62.9989 390.161 63.012 390.179 63.0255C390.213 63.0506 390.249 63.0772 390.285 63.1015C388.409 65.9281 386.54 68.755 384.621 71.6586C384.019 72.5697 383.412 73.4883 382.798 74.4168L382.752 74.4872L382.836 74.4942C386.477 74.7977 390.104 75.1003 393.722 75.402C403.868 76.2481 413.934 77.0877 424 77.9234V78.0906C416.675 78.6994 409.35 79.3102 401.987 79.9242C395.639 80.4535 389.263 80.9852 382.836 81.5198L382.752 81.5268L382.798 81.5973C385.364 85.4606 387.824 89.1776 390.277 92.8873L390.147 93.0361C388.092 91.6964 386.032 90.3605 383.938 89.0021C382.234 87.8966 380.506 86.7761 378.739 85.6263L378.669 85.5808L378.662 85.664C378.342 89.4351 378.023 93.1909 377.705 96.9359C376.865 106.82 376.032 116.63 375.202 126.446C375.143 126.449 375.086 126.45 375.026 126.45C373.882 112.936 372.738 99.4225 371.559 85.657L371.552 85.5737L371.482 85.6193C367.576 88.1629 363.825 90.5949 360.074 93.0266C360.065 93.0197 360.056 93.0128 360.046 93.0059C360.009 92.9779 359.971 92.9496 359.933 92.9175C361.589 90.4218 363.24 87.9227 364.924 85.3719C365.747 84.1256 366.578 82.8669 367.422 81.5902L367.469 81.5198L367.385 81.5128ZM375.071 82.7827H375.071C377.827 82.7827 379.928 80.701 379.921 77.9824C379.914 75.3198 377.799 73.2454 375.107 73.2384C372.457 73.2313 370.292 75.3762 370.3 78.0036C370.307 80.6653 372.407 82.7756 375.071 82.7827Z" fill="white" stroke="#47ABEE" stroke-width="0.1"/>
<path d="M371.035 106.364C358.849 105.166 347.779 94.3838 346.493 82.053C347.511 82.1301 348.429 82.2282 349.348 82.2492C350.069 82.2632 350.366 82.5435 350.529 83.2651C351.794 89.0732 354.812 93.8234 359.471 97.5366C362.517 99.9677 365.967 101.593 369.798 102.378C370.498 102.518 370.844 102.763 370.844 103.527C370.83 104.473 370.957 105.412 371.035 106.364Z" fill="#47ABEE"/>
<path d="M371.042 49.6356C370.95 50.7916 370.936 51.8496 370.745 52.8795C370.689 53.1737 370.166 53.517 369.805 53.5941C365.027 54.659 360.885 56.873 357.407 60.292C353.901 63.732 351.582 67.8446 350.55 72.6298C350.359 73.5055 350.006 73.7998 349.151 73.7858C348.338 73.7718 347.518 73.8909 346.705 73.9469C346.662 73.9469 346.613 73.9189 346.563 73.8839C346.549 73.8769 346.535 73.8629 346.521 73.8558C347.645 62.1836 358.283 51.0018 371.042 49.6356Z" fill="#47ABEE"/>
<path d="M403.742 73.989C402.561 73.8909 401.402 73.8419 400.264 73.6597C400.045 73.6247 399.812 73.0992 399.741 72.7629C398.652 67.8727 396.306 63.662 392.694 60.1729C389.279 56.866 385.236 54.6521 380.55 53.6712C379.68 53.489 379.362 53.1387 379.376 52.284C379.39 51.4433 379.256 50.6025 379.178 49.6637C390.863 50.7356 402.335 61.1468 403.742 73.989Z" fill="#47ABEE"/>
<path d="M403.813 82.0391C403.014 87.6089 400.83 92.4432 397.211 96.6258C392.489 102.091 386.516 105.355 379.157 106.497C379.256 105.229 379.277 104.164 379.468 103.135C379.525 102.84 380.055 102.504 380.423 102.42C385.286 101.348 389.47 99.05 392.976 95.5679C396.461 92.1069 398.702 87.9452 399.741 83.1741C399.875 82.5435 400.088 82.2773 400.759 82.2703C401.713 82.2562 402.668 82.1301 403.813 82.0391Z" fill="#47ABEE"/>
<path d="M378.507 77.9825C378.528 79.7901 376.98 81.3525 375.142 81.3735C373.304 81.3945 371.728 79.8602 371.721 78.0456C371.721 77.5762 371.813 77.1348 371.989 76.7214C372.074 76.5182 372.173 76.3221 372.293 76.1399C372.887 75.2431 373.912 74.6546 375.078 74.6336C375.997 74.6266 376.853 74.9979 377.475 75.6214C377.559 75.6915 377.63 75.7756 377.701 75.8526C378.189 76.4342 378.492 77.1768 378.507 77.9825Z" fill="#47ABEE"/>
<path d="M94.9783 35.3H68.2903V102.5H94.9783C113.506 102.5 127.33 87.812 127.33 68.9C127.33 49.988 113.506 35.3 94.9783 35.3ZM94.9783 89.828H81.5383V47.972H94.9783C106.594 47.972 114.658 56.516 114.658 68.9C114.658 81.284 106.594 89.828 94.9783 89.828ZM146.616 83.588H182.808C183.096 81.956 183.288 80.324 183.288 78.5C183.288 64.388 173.208 53.156 159 53.156C143.928 53.156 133.656 64.196 133.656 78.5C133.656 92.804 143.832 103.844 159.96 103.844C169.176 103.844 176.376 100.1 180.888 93.572L170.904 87.812C168.792 90.596 164.952 92.612 160.152 92.612C153.624 92.612 148.344 89.924 146.616 83.588ZM146.424 73.988C147.864 67.844 152.376 64.292 159 64.292C164.184 64.292 169.368 67.076 170.904 73.988H146.424ZM201.482 68.132C201.482 65.54 203.978 64.196 207.05 64.196C210.602 64.196 213.29 66.02 214.73 69.092L225.29 63.332C221.546 56.708 214.826 53.156 207.05 53.156C197.162 53.156 188.81 58.628 188.81 68.42C188.81 85.316 213.578 81.476 213.578 88.484C213.578 91.268 210.89 92.612 206.954 92.612C202.154 92.612 198.89 90.308 197.546 86.372L186.794 92.42C190.25 99.812 197.354 103.844 206.954 103.844C217.226 103.844 226.25 98.852 226.25 88.484C226.25 70.82 201.482 75.236 201.482 68.132ZM260.264 66.404V54.5H249.416V41.06L237.032 44.804V54.5H228.68V66.404H237.032V86.372C237.032 99.332 242.888 104.42 260.264 102.5V91.268C253.16 91.652 249.416 91.556 249.416 86.372V66.404H260.264ZM275.14 48.74C279.364 48.74 282.82 45.284 282.82 41.156C282.82 37.028 279.364 33.476 275.14 33.476C271.012 33.476 267.556 37.028 267.556 41.156C267.556 45.284 271.012 48.74 275.14 48.74ZM268.996 102.5H281.38V54.5H268.996V102.5ZM319.402 53.156C312.97 53.156 307.978 55.556 305.098 59.876V54.5H292.714V102.5H305.098V76.58C305.098 68.228 309.61 64.676 315.658 64.676C321.226 64.676 325.162 68.036 325.162 74.564V102.5H337.546V73.028C337.546 60.26 329.578 53.156 319.402 53.156Z" fill="white"/>
<path d="M287.05 121.9V136.204C285.034 132.988 281.626 130.924 277.354 130.924C270.586 130.924 264.97 136.396 264.97 143.5C264.97 150.604 270.586 156.076 277.354 156.076C281.626 156.076 285.034 154.012 287.05 150.796V155.5H290.218V121.9H287.05ZM277.594 153.004C272.266 153.004 268.138 148.828 268.138 143.5C268.138 138.172 272.266 133.996 277.594 133.996C282.922 133.996 287.05 138.172 287.05 143.5C287.05 148.828 282.922 153.004 277.594 153.004ZM308.11 156.076C315.118 156.076 320.734 150.604 320.734 143.5C320.734 136.396 315.118 130.924 308.11 130.924C301.102 130.924 295.486 136.396 295.486 143.5C295.486 150.604 301.102 156.076 308.11 156.076ZM308.11 153.004C302.782 153.004 298.654 148.828 298.654 143.5C298.654 138.172 302.782 133.996 308.11 133.996C313.438 133.996 317.566 138.172 317.566 143.5C317.566 148.828 313.438 153.004 308.11 153.004ZM369.235 121.9H365.059L353.875 140.62L342.691 121.9H338.515V155.5H341.875V126.988L353.635 146.668H354.115L365.875 126.988V155.5H369.235V121.9ZM387.226 123.964L390.586 128.14H394.186L389.098 121.9H385.354L380.266 128.14H383.866L387.226 123.964ZM387.514 130.924C380.074 130.924 374.986 136.444 374.986 143.5C374.986 150.748 380.17 156.076 387.754 156.076C392.602 156.076 396.298 153.82 398.314 150.556L395.53 148.924C394.234 151.228 391.594 153.004 387.802 153.004C382.714 153.004 378.922 149.98 378.25 145.084H399.322C399.37 144.604 399.418 144.076 399.418 143.596C399.418 137.02 394.858 130.924 387.514 130.924ZM387.514 133.996C391.642 133.996 395.482 136.732 396.154 142.012H378.25C378.874 137.308 382.474 133.996 387.514 133.996ZM406.016 137.788C406.016 135.196 408.56 133.996 411.056 133.996C413.36 133.996 415.808 134.908 416.816 137.356L419.456 135.82C418.064 132.844 414.992 130.924 411.056 130.924C406.256 130.924 402.848 133.948 402.848 137.788C402.848 146.62 416.864 143.212 416.864 149.164C416.864 151.996 414.176 153.004 411.344 153.004C408.128 153.004 405.632 151.42 404.768 148.972L402.08 150.556C403.28 153.628 406.544 156.076 411.344 156.076C416.48 156.076 420.032 153.244 420.032 149.164C420.032 140.332 406.016 143.74 406.016 137.788Z" fill="white"/>
<rect x="438.05" y="24.5" width="8.89987" height="130" fill="#47ABEE"/>
<path d="M488.294 87.896C501.222 87.896 511.59 77.656 511.59 64.6C511.59 51.48 501.222 41.304 488.294 41.304C475.366 41.304 465.062 51.48 465.062 64.6C465.062 77.656 475.366 87.896 488.294 87.896ZM488.294 79.256C480.166 79.256 473.83 73.176 473.83 64.6C473.83 55.96 480.166 49.88 488.294 49.88C496.422 49.88 502.758 55.96 502.758 64.6C502.758 73.176 496.422 79.256 488.294 79.256ZM542.373 87H551.909L541.989 70.104C547.109 67.736 550.629 62.68 550.629 57.048C550.629 48.856 543.973 42.2 535.717 42.2H517.797V87H526.629V71.448H533.349L542.373 87ZM526.629 50.456H535.717C539.045 50.456 541.797 53.336 541.797 57.048C541.797 60.76 539.045 63.704 535.717 63.704H526.629V50.456ZM565.942 78.552V42.2H557.11V87H583.03V78.552H565.942ZM618.097 87H627.697L611.953 42.2H601.009L585.329 87H594.865L597.553 78.936H615.409L618.097 87ZM600.369 70.68L606.513 52.376L612.657 70.68H600.369ZM657.967 42.2V69.528L638.767 42.2H632.047V87H640.879V59.608L660.079 87H666.799V42.2H657.967ZM692.902 42.2H675.11V87H692.902C705.254 87 714.47 77.208 714.47 64.6C714.47 51.992 705.254 42.2 692.902 42.2ZM692.902 78.552H683.942V50.648H692.902C700.646 50.648 706.022 56.344 706.022 64.6C706.022 72.856 700.646 78.552 692.902 78.552ZM741.919 87.896C754.847 87.896 765.215 77.656 765.215 64.6C765.215 51.48 754.847 41.304 741.919 41.304C728.991 41.304 718.687 51.48 718.687 64.6C718.687 77.656 728.991 87.896 741.919 87.896ZM741.919 79.256C733.791 79.256 727.455 73.176 727.455 64.6C727.455 55.96 733.791 49.88 741.919 49.88C750.047 49.88 756.383 55.96 756.383 64.6C756.383 73.176 750.047 79.256 741.919 79.256ZM778.668 78.168H769.708L767.148 95.96H773.868L778.668 78.168Z" fill="white"/>
<path d="M471.014 135.776V125.12H485.174V120.944H471.014V110.624H486.374V106.4H466.55V140H486.614V135.776H471.014ZM502.851 140.624C509.715 140.624 514.467 136.88 514.467 130.976C514.467 124.496 508.947 122.768 503.091 120.848C498.387 119.36 496.035 118.208 496.035 115.088C496.035 112.016 498.531 110.096 502.131 110.096C506.211 110.096 508.563 112.4 509.763 115.28L513.507 113.12C511.635 108.896 507.651 105.776 502.131 105.776C496.515 105.776 491.571 109.232 491.571 115.28C491.571 121.52 496.755 123.2 502.131 124.928C507.075 126.464 510.051 127.616 510.051 131.072C510.051 134.096 507.699 136.256 502.947 136.256C498.051 136.256 495.171 133.856 493.971 130.16L490.131 132.368C491.907 137.408 496.467 140.624 502.851 140.624ZM540.038 106.4H515.798V110.624H525.686V140H530.102V110.624H540.038V106.4ZM564.146 140H568.898L556.37 106.4H551.33L538.802 140H543.554L546.29 132.464H561.41L564.146 140ZM547.826 128.288L553.826 111.728L559.874 128.288H547.826ZM585.966 106.4H572.862V140H585.966C595.23 140 601.902 132.512 601.902 123.2C601.902 113.888 595.23 106.4 585.966 106.4ZM585.966 135.776H577.326V110.624H585.966C592.878 110.624 597.63 116.096 597.63 123.2C597.63 130.304 592.878 135.776 585.966 135.776ZM622.915 140.624C632.659 140.624 640.339 132.848 640.339 123.2C640.339 113.504 632.659 105.776 622.915 105.776C613.171 105.776 605.539 113.504 605.539 123.2C605.539 132.848 613.171 140.624 622.915 140.624ZM622.915 136.256C615.571 136.256 609.955 130.544 609.955 123.2C609.955 115.808 615.571 110.096 622.915 110.096C630.259 110.096 635.875 115.808 635.875 123.2C635.875 130.544 630.259 136.256 622.915 136.256ZM655.335 140.624C662.199 140.624 666.951 136.88 666.951 130.976C666.951 124.496 661.431 122.768 655.575 120.848C650.871 119.36 648.519 118.208 648.519 115.088C648.519 112.016 651.015 110.096 654.615 110.096C658.695 110.096 661.047 112.4 662.247 115.28L665.991 113.12C664.119 108.896 660.135 105.776 654.615 105.776C648.999 105.776 644.055 109.232 644.055 115.28C644.055 121.52 649.239 123.2 654.615 124.928C659.559 126.464 662.535 127.616 662.535 131.072C662.535 134.096 660.183 136.256 655.431 136.256C650.535 136.256 647.655 133.856 646.455 130.16L642.615 132.368C644.391 137.408 648.951 140.624 655.335 140.624ZM696.429 140.624C703.773 140.624 709.005 136.016 709.005 128.72V106.4H704.589V128.528C704.589 133.184 701.805 136.256 696.429 136.256C691.053 136.256 688.269 133.184 688.269 128.528V106.4H683.805V128.72C683.805 136.016 689.085 140.624 696.429 140.624ZM736.711 106.4V131.456L719.431 106.4H715.831V140H720.295V114.896L737.575 140H741.175V106.4H736.711ZM748.362 106.4V140H752.826V106.4H748.362ZM773.138 106.4H760.034V140H773.138C782.402 140 789.074 132.512 789.074 123.2C789.074 113.888 782.402 106.4 773.138 106.4ZM773.138 135.776H764.498V110.624H773.138C780.05 110.624 784.802 116.096 784.802 123.2C784.802 130.304 780.05 135.776 773.138 135.776ZM810.087 140.624C819.831 140.624 827.511 132.848 827.511 123.2C827.511 113.504 819.831 105.776 810.087 105.776C800.343 105.776 792.711 113.504 792.711 123.2C792.711 132.848 800.343 140.624 810.087 140.624ZM810.087 136.256C802.743 136.256 797.127 130.544 797.127 123.2C797.127 115.808 802.743 110.096 810.087 110.096C817.431 110.096 823.047 115.808 823.047 123.2C823.047 130.544 817.431 136.256 810.087 136.256ZM842.507 140.624C849.371 140.624 854.123 136.88 854.123 130.976C854.123 124.496 848.603 122.768 842.747 120.848C838.043 119.36 835.691 118.208 835.691 115.088C835.691 112.016 838.187 110.096 841.787 110.096C845.867 110.096 848.219 112.4 849.419 115.28L853.163 113.12C851.291 108.896 847.307 105.776 841.787 105.776C836.171 105.776 831.227 109.232 831.227 115.28C831.227 121.52 836.411 123.2 841.787 124.928C846.731 126.464 849.707 127.616 849.707 131.072C849.707 134.096 847.355 136.256 842.603 136.256C837.707 136.256 834.827 133.856 833.627 130.16L829.787 132.368C831.563 137.408 836.123 140.624 842.507 140.624Z" fill="#47ABEE"/>
</svg>
