<svg width="900" height="134" viewBox="0 0 900 134" fill="none" xmlns="http://www.w3.org/2000/svg">
<path d="M279.1 133.9C274.9 133.9 271.3 132.5 268.4 129.6C265.5 126.7 264 123.2 264 119C264 114.8 265.5 111.3 268.4 108.4C271.3 105.5 274.9 104.1 279.1 104.1C283.3 104.1 286.8 105.5 289.7 108.4C292.6 111.3 294.1 114.8 294.1 119C294.1 123.2 292.6 126.7 289.7 129.6C286.8 132.5 283.3 133.9 279.1 133.9ZM270.5 127.6C272.9 130 275.7 131.2 279.1 131.2C282.5 131.2 285.4 130 287.7 127.6C290 125.2 291.2 122.3 291.2 118.9C291.2 115.5 290 112.6 287.7 110.2C285.4 107.8 282.5 106.6 279.1 106.6C275.7 106.6 272.8 107.8 270.5 110.2C268.1 112.6 267 115.5 267 118.9C267 122.3 268.1 125.2 270.5 127.6Z" fill="white"/>
<path d="M313.4 95.3002C307.7 94.8002 304.9 97.4002 304.9 103.1V104.6H313.4V107.4H304.9V133.3H302V107.4H297V104.6H301.9V103.1C301.9 99.5002 302.9 96.8002 304.9 94.9002C306.9 93.0002 309.7 92.3002 313.4 92.5002V95.3002Z" fill="white"/>
<path d="M347.8 107.4H339.3V126.1C339.3 127.7 339.6 128.9 340.2 129.7C340.8 130.4 341.7 130.8 343 130.9C344.3 131 345.9 130.9 347.8 130.8V133.4C343.9 134 341.1 133.7 339.2 132.6C337.3 131.5 336.4 129.4 336.4 126.2V107.6H330V104.8H336.3V97.6002L339.2 96.7002V104.7H347.7V107.4H347.8Z" fill="white"/>
<path d="M367.8 104C371.2 104 373.9 105 375.9 107.1C377.9 109.2 378.9 112 378.9 115.4V133.2H376V115.4C376 112.7 375.3 110.6 373.8 109C372.3 107.4 370.3 106.6 367.6 106.6C364.7 106.6 362.2 107.6 360.4 109.5C358.5 111.4 357.6 114.3 357.6 118V133.1H354.7V93H357.6V110.1C359.6 106 363 104 367.8 104Z" fill="white"/>
<path d="M399.9 104C404.1 104 407.5 105.5 410.1 108.5C412.7 111.5 414 115 414 119.1C414 119.3 414 119.5 414 119.8C414 120.1 414 120.3 414 120.5H388C388.3 123.7 389.6 126.3 391.9 128.3C394.1 130.3 396.9 131.3 400.2 131.3C402.5 131.3 404.5 130.8 406.2 129.9C407.9 128.9 409.2 127.7 410.1 126.1L412.6 127.6C411.4 129.6 409.7 131.2 407.6 132.3C405.4 133.5 402.9 134 400.1 134C395.7 134 392.1 132.6 389.3 129.8C386.5 127 385.1 123.4 385.1 119.1C385.1 114.8 386.5 111.3 389.3 108.4C392 105.4 395.5 104 399.9 104ZM399.9 106.8C396.7 106.8 393.9 107.8 391.8 109.8C389.7 111.8 388.4 114.4 388.1 117.7H411.1C410.8 114.3 409.6 111.6 407.5 109.7C405.3 107.7 402.8 106.8 399.9 106.8Z" fill="white"/>
<path d="M466.7 104C469.8 104 472.4 105 474.3 106.9C476.2 108.8 477.2 111.6 477.2 115.1V133.3H474.3V115.1C474.3 112.4 473.6 110.4 472.2 108.9C470.8 107.4 469 106.7 466.7 106.7C464.1 106.7 462.1 107.6 460.5 109.3C458.9 111 458.1 113.7 458.1 117.2V133.2H455.2V115.1C455.2 112.4 454.5 110.4 453.2 108.9C451.9 107.4 450.1 106.7 447.8 106.7C445.3 106.7 443.2 107.6 441.5 109.4C439.8 111.2 438.9 113.8 438.9 117.3V133.3H436V104.6H438.9V109.5C440.9 105.8 444 103.9 448.1 103.9C450.2 103.9 452 104.4 453.6 105.4C455.2 106.4 456.3 107.9 457 109.7C458 107.8 459.3 106.3 461 105.3C462.7 104.3 464.7 104 466.7 104Z" fill="white"/>
<path d="M498.3 133.9C494.1 133.9 490.5 132.5 487.6 129.6C484.7 126.7 483.2 123.2 483.2 119C483.2 114.8 484.7 111.3 487.6 108.4C490.5 105.5 494.1 104.1 498.3 104.1C502.5 104.1 506 105.5 508.9 108.4C511.8 111.3 513.3 114.8 513.3 119C513.3 123.2 511.8 126.7 508.9 129.6C506 132.5 502.5 133.9 498.3 133.9ZM489.7 127.6C492 130 494.9 131.2 498.3 131.2C501.7 131.2 504.6 130 506.9 127.6C509.2 125.2 510.4 122.3 510.4 118.9C510.4 115.5 509.2 112.6 506.9 110.2C504.6 107.8 501.7 106.6 498.3 106.6C494.9 106.6 492 107.8 489.7 110.2C487.3 112.6 486.2 115.5 486.2 118.9C486.2 122.3 487.3 125.2 489.7 127.6Z" fill="white"/>
<path d="M533.4 104C536.8 104 539.5 105 541.5 107.1C543.5 109.2 544.5 112 544.5 115.4V133.2H541.6V115.4C541.6 112.7 540.9 110.6 539.4 109C537.9 107.4 535.9 106.6 533.2 106.6C530.3 106.6 527.8 107.6 526 109.5C524.1 111.4 523.2 114.3 523.2 118V133.1H520.3V104.4H523.2V109.8C525.2 106 528.6 104 533.4 104Z" fill="white"/>
<path d="M567.2 107.4H558.7V126.1C558.7 127.7 559 128.9 559.6 129.7C560.2 130.4 561.1 130.8 562.4 130.9C563.7 131 565.3 130.9 567.2 130.8V133.4C563.3 134 560.5 133.7 558.6 132.6C556.7 131.5 555.8 129.4 555.8 126.2V107.6H549.5V104.8H555.8V97.6002L558.7 96.7002V104.7H567.2V107.4Z" fill="white"/>
<path d="M587.2 104C590.6 104 593.3 105 595.3 107.1C597.3 109.2 598.3 112 598.3 115.4V133.2H595.4V115.4C595.4 112.7 594.7 110.6 593.2 109C591.7 107.4 589.7 106.6 587 106.6C584.1 106.6 581.6 107.6 579.8 109.5C577.9 111.4 577 114.3 577 118V133.1H574.1V93H577V110.1C579 106 582.5 104 587.2 104Z" fill="white"/>
<path d="M69.2 45.1002C69.2 67.3002 53 84.5002 31.3 84.5002H0V5.7002H31.3C53 5.7002 69.2 22.9002 69.2 45.1002ZM54.3 45.1002C54.3 30.6002 44.8 20.6002 31.2 20.6002H15.5V69.7002H31.3C44.9 69.6002 54.3 59.6002 54.3 45.1002Z" fill="white"/>
<path d="M107.7 72.9002C113.3 72.9002 117.8 70.5002 120.3 67.3002L132 74.1002C126.7 81.8002 118.3 86.1002 107.5 86.1002C88.6002 86.1002 76.7002 73.2002 76.7002 56.4002C76.7002 39.6002 88.7002 26.7002 106.4 26.7002C123.1 26.7002 134.9 39.9002 134.9 56.4002C134.9 58.5002 134.7 60.5002 134.3 62.4002H91.8002C93.8002 69.7002 100 72.9002 107.7 72.9002ZM120.3 51.0002C118.5 42.9002 112.4 39.6002 106.3 39.6002C98.5002 39.6002 93.2002 43.8002 91.6002 51.0002H120.3Z" fill="white"/>
<path d="M185.1 68.0001C185.1 80.2001 174.5 86.0001 162.5 86.0001C151.2 86.0001 142.9 81.3001 138.9 72.6001L151.5 65.5001C153.1 70.1001 156.9 72.8001 162.5 72.8001C167.1 72.8001 170.3 71.2001 170.3 68.0001C170.3 59.8001 141.3 64.3001 141.3 44.5001C141.3 33.0001 151.1 26.6001 162.7 26.6001C171.8 26.6001 179.7 30.8001 184.1 38.5001L171.7 45.3001C170 41.7001 166.9 39.6001 162.7 39.6001C159.1 39.6001 156.2 41.2001 156.2 44.2001C156.1 52.5001 185.1 47.3001 185.1 68.0001Z" fill="white"/>
<path d="M212.2 42.0998V65.4998C212.2 71.5998 216.6 71.6998 224.9 71.1998V84.3998C204.5 86.6998 197.7 80.6998 197.7 65.4998V42.0998H187.9V28.0998H197.7V16.6998L212.2 12.2998V28.0998H224.9V42.0998H212.2Z" fill="white"/>
<path d="M233.5 12.5C233.5 7.7 237.6 3.5 242.4 3.5C247.4 3.5 251.4 7.7 251.4 12.5C251.4 17.3 247.3 21.4 242.4 21.4C237.5 21.4 233.5 17.4 233.5 12.5ZM235.2 28.2H249.7V84.5H235.2V28.2Z" fill="white"/>
<path d="M315.5 49.9001V84.4001H301V51.7001C301 44.0001 296.4 40.1001 289.9 40.1001C282.8 40.1001 277.5 44.3001 277.5 54.1001V84.5001H263V28.2001H277.5V34.5001C280.9 29.4001 286.7 26.6001 294.3 26.6001C306.2 26.6001 315.5 34.9001 315.5 49.9001Z" fill="white"/>
<path d="M385.2 28.2002V84.5002H370.7V77.9002C366.6 83.0002 360.6 86.1002 352.4 86.1002C337.4 86.1002 325.1 73.2002 325.1 56.4002C325.1 39.6002 337.5 26.7002 352.4 26.7002C360.6 26.7002 366.7 29.9002 370.7 34.9002V28.3002H385.2V28.2002ZM370.7 56.3002C370.7 46.8002 364.1 40.4002 355.1 40.4002C346.2 40.4002 339.6 46.8002 339.6 56.3002C339.6 65.8002 346.2 72.2002 355.1 72.2002C364 72.2002 370.7 65.8002 370.7 56.3002Z" fill="white"/>
<path d="M417.8 42.0998V65.4998C417.8 71.5998 422.2 71.6998 430.5 71.1998V84.3998C410.1 86.6998 403.3 80.6998 403.3 65.4998V42.0998H393.5V28.0998H403.3V16.6998L417.8 12.2998V28.0998H430.5V42.0998H417.8Z" fill="white"/>
<path d="M549.8 51.3C535.4 50.1 521 48.9 506.4 47.7C509.1 43.6 511.7 39.6 514.3 35.6C514.2 35.5 514.1 35.5 514.1 35.4C510.2 38 506.2 40.6 502.1 43.3C500.9 28.7 499.7 14.3 498.4 0C498.3 0 498.2 0 498.1 0C496.9 14.4 495.7 28.7 494.4 43.3C490.2 40.6 486.3 38 482.3 35.4C482.2 35.5 482.2 35.5 482.1 35.6C484.7 39.6 487.3 43.5 490 47.6C475.4 48.8 460.9 50 446.5 51.3C446.5 51.4 446.5 51.5 446.5 51.6C460.9 52.8 475.3 54 490 55.3C487.3 59.4 484.7 63.4 482.1 67.4C482.2 67.5 482.3 67.5 482.3 67.6C486.3 65 490.2 62.4 494.3 59.7C495.5 74.3 496.7 88.7 498 103C498.1 103 498.2 103 498.3 103C499.5 88.6 500.7 74.3 501.9 59.7C506.1 62.4 510 65 513.9 67.6L514.1 67.4C511.5 63.5 508.9 59.5 506.2 55.4C520.8 54.2 535.2 53 549.6 51.8V51.3H549.8ZM498.2 56.4C495.4 56.4 493.2 54.2 493.2 51.4C493.2 48.6 495.4 46.4 498.2 46.4C501 46.4 503.2 48.6 503.2 51.4C503.3 54.2 501.1 56.4 498.2 56.4Z" fill="white"/>
<path d="M494 81.5002C481.2 80.2002 469.5 68.8002 468.2 55.7002C469.3 55.8002 470.2 55.9002 471.2 55.9002C472 55.9002 472.3 56.2002 472.4 57.0002C473.7 63.2002 476.9 68.2002 481.8 72.1002C485 74.7002 488.6 76.4002 492.7 77.2002C493.4 77.4002 493.8 77.6002 493.8 78.4002C493.8 79.5002 493.9 80.5002 494 81.5002Z" fill="white"/>
<path d="M494 21.2998C493.9 22.4998 493.9 23.6998 493.7 24.6998C493.6 24.9998 493.1 25.3998 492.7 25.4998C487.7 26.5998 483.3 28.9998 479.7 32.5998C476 36.2998 473.6 40.5998 472.5 45.6998C472.3 46.5998 471.9 46.8998 471 46.8998C470.1 46.8998 469.3 46.9998 468.4 47.0998C468.4 47.0998 468.3 47.0998 468.3 46.9998C469.4 34.5998 480.6 22.7998 494 21.2998Z" fill="white"/>
<path d="M528.4 47.1002C527.2 47.0002 525.9 46.9002 524.7 46.7002C524.5 46.7002 524.2 46.1002 524.1 45.8002C523 40.6002 520.5 36.1002 516.7 32.4002C513.1 28.9002 508.9 26.5002 503.9 25.5002C503 25.3002 502.6 24.9002 502.7 24.0002C502.7 23.1002 502.6 22.2002 502.5 21.2002C514.9 22.5002 526.9 33.5002 528.4 47.1002Z" fill="white"/>
<path d="M528.5 55.7002C527.7 61.6002 525.4 66.7002 521.6 71.2002C516.6 77.0002 510.3 80.5002 502.6 81.7002C502.7 80.4002 502.7 79.2002 502.9 78.1002C503 77.8002 503.5 77.4002 503.9 77.3002C509 76.2002 513.4 73.7002 517.1 70.0002C520.8 66.3002 523.1 61.9002 524.2 56.8002C524.3 56.1002 524.6 55.9002 525.3 55.8002C526.3 55.9002 527.3 55.8002 528.5 55.7002Z" fill="white"/>
<path d="M501.9 51.3999C501.9 53.2999 500.3 54.9999 498.4 54.9999C496.5 54.9999 494.8 53.3999 494.8 51.4999C494.8 50.9999 494.9 50.4999 495.1 50.0999C495.2 49.8999 495.3 49.6999 495.4 49.4999C496 48.5999 497.1 47.8999 498.3 47.8999C499.3 47.8999 500.2 48.2999 500.8 48.8999C500.9 48.9999 501 49.0999 501 49.0999C501.5 49.6999 501.8 50.4999 501.9 51.3999Z" fill="white"/>
<path d="M572.7 26.6001C565.2 26.6001 559.3 29.4001 555.9 34.5001V28.2001H541.4V49.1001C544.2 49.3001 547 49.6001 549.8 49.8001C550.6 49.9001 551.2 50.5001 551.2 51.3001V51.6001C551.2 52.4001 550.6 53.0001 549.8 53.1001L541.4 53.8001V84.5001H556V54.1001C556 44.3001 561.3 40.1001 568.4 40.1001C574.9 40.1001 579.5 44.0001 579.5 51.7001V84.4001H594V49.9001C594 34.9001 584.7 26.6001 572.7 26.6001Z" fill="white"/>
<path d="M448 21.4C453 21.4 457 17.3 457 12.5C457 7.7 452.9 3.5 448 3.5C443.2 3.5 439.1 7.7 439.1 12.5C439.1 17.3 443.1 21.4 448 21.4Z" fill="white"/>
<path d="M448.7 53.2001L446.5 53.0001C445.7 52.9001 445.1 52.3001 445.1 51.5001C445.1 51.4001 445.1 51.3001 445.1 51.2001C445.1 50.4001 445.7 49.8001 446.5 49.7001C446.5 49.7001 450.1 49.4001 455.2 49.0001V28.1001H440.7V84.4001H455.2V53.7001C453.1 53.6001 450.9 53.4001 448.7 53.2001Z" fill="white"/>
<rect x="614.3" y="2" width="8.75916" height="130" fill="white"/>
<path d="M680.775 83.5L677.373 73.294H654.774L651.372 83.5H639.303L659.148 26.8H672.999L692.925 83.5H680.775ZM658.338 62.845H673.89L666.114 39.679L658.338 62.845ZM729.534 83.5L718.113 63.817H709.608V83.5H698.43V26.8H721.11C731.559 26.8 739.983 35.224 739.983 45.592C739.983 52.72 735.528 59.119 729.048 62.116L741.603 83.5H729.534ZM709.608 37.249V54.016H721.11C725.322 54.016 728.805 50.29 728.805 45.592C728.805 40.894 725.322 37.249 721.11 37.249H709.608ZM768.93 84.634C756.537 84.634 747.303 77.182 747.303 64.951V26.8H758.4V64.06C758.4 69.568 761.316 73.699 768.93 73.699C776.544 73.699 779.46 69.568 779.46 64.06V26.8H790.638V64.951C790.638 77.182 781.404 84.634 768.93 84.634ZM834.971 54.097C839.507 56.689 842.423 61.144 842.423 67.057C842.423 76.777 834.566 83.5 824.765 83.5H800.708V26.8H823.064C832.622 26.8 840.317 33.28 840.317 42.757C840.317 47.617 838.292 51.424 834.971 54.097ZM823.064 37.249H811.886V49.723H823.064C826.547 49.723 829.139 47.05 829.139 43.486C829.139 39.922 826.628 37.249 823.064 37.249ZM824.765 73.051C828.572 73.051 831.326 70.216 831.326 66.328C831.326 62.521 828.572 59.686 824.765 59.686H811.886V73.051H824.765ZM886.201 83.5L882.799 73.294H860.2L856.798 83.5H844.729L864.574 26.8H878.425L898.351 83.5H886.201ZM863.764 62.845H879.316L871.54 39.679L863.764 62.845Z" fill="white"/>
</svg>
