<svg width="830" height="136" viewBox="0 0 830 136" fill="none" xmlns="http://www.w3.org/2000/svg">
<path d="M251.3 94.2002H254.2V134.3H251.3V127.6C250.1 129.9 248.4 131.6 246.3 132.9C244.1 134.2 241.7 134.8 239 134.8C234.9 134.8 231.4 133.4 228.5 130.5C225.6 127.6 224.2 124.1 224.2 119.9C224.2 115.7 225.6 112.2 228.5 109.3C231.4 106.4 234.9 105 239 105C241.7 105 244.1 105.7 246.3 106.9C248.5 108.2 250.1 110 251.3 112.2V94.2002ZM230.5 128.6C232.9 131 235.7 132.2 239.1 132.2C242.5 132.2 245.4 131 247.7 128.6C250.1 126.2 251.2 123.3 251.2 119.9C251.2 116.5 250 113.6 247.7 111.2C245.3 108.8 242.5 107.6 239.1 107.6C235.7 107.6 232.8 108.8 230.5 111.2C228.1 113.6 227 116.5 227 119.9C227 123.3 228.2 126.3 230.5 128.6Z" fill="white"/>
<path d="M276.1 134.9C271.9 134.9 268.3 133.5 265.4 130.6C262.5 127.7 261 124.2 261 120C261 115.8 262.5 112.3 265.4 109.4C268.3 106.5 271.9 105.1 276.1 105.1C280.3 105.1 283.8 106.5 286.7 109.4C289.6 112.3 291.1 115.8 291.1 120C291.1 124.2 289.6 127.7 286.7 130.6C283.8 133.5 280.3 134.9 276.1 134.9ZM267.5 128.6C269.9 131 272.7 132.2 276.1 132.2C279.5 132.2 282.4 131 284.7 128.6C287 126.2 288.2 123.3 288.2 119.9C288.2 116.5 287 113.6 284.7 111.2C282.4 108.8 279.5 107.6 276.1 107.6C272.7 107.6 269.8 108.8 267.5 111.2C265.1 113.6 264 116.5 264 119.9C264 123.3 265.1 126.3 267.5 128.6Z" fill="white"/>
<path d="M343.9 105C347 105 349.6 106 351.5 107.9C353.4 109.8 354.4 112.6 354.4 116.1V134.3H351.5V116.1C351.5 113.4 350.8 111.4 349.4 109.9C348 108.4 346.2 107.7 343.9 107.7C341.3 107.7 339.3 108.6 337.7 110.3C336.1 112.1 335.3 114.7 335.3 118.2V134.2H332.4V116C332.4 113.3 331.7 111.3 330.4 109.8C329.1 108.3 327.3 107.6 325 107.6C322.5 107.6 320.4 108.5 318.7 110.3C317 112.1 316.1 114.7 316.1 118.2V134.2H313.2V105.5H316.1V110.4C318.1 106.7 321.2 104.8 325.3 104.8C327.4 104.8 329.2 105.3 330.8 106.3C332.4 107.3 333.5 108.8 334.2 110.6C335.2 108.7 336.5 107.2 338.2 106.2C340.1 105.5 342 105 343.9 105Z" fill="white"/>
<path d="M375.4 105C379.6 105 383 106.5 385.6 109.5C388.2 112.5 389.5 116 389.5 120.1C389.5 120.3 389.5 120.5 389.5 120.8C389.5 121.1 389.5 121.3 389.5 121.5H363.5C363.8 124.7 365.1 127.3 367.4 129.3C369.7 131.3 372.4 132.3 375.7 132.3C378 132.3 380 131.8 381.7 130.9C383.4 129.9 384.7 128.7 385.6 127.1L388.1 128.6C386.9 130.6 385.2 132.2 383.1 133.3C380.9 134.5 378.4 135 375.6 135C371.2 135 367.6 133.6 364.8 130.8C362 128 360.6 124.4 360.6 120.1C360.6 115.8 362 112.3 364.8 109.4C367.4 106.4 371 105 375.4 105ZM375.4 107.8C372.2 107.8 369.4 108.8 367.3 110.8C365.2 112.8 363.9 115.4 363.6 118.7H386.6C386.3 115.3 385.1 112.6 383 110.7C380.8 108.7 378.3 107.8 375.4 107.8ZM375 96.0998L370.4 101.6H367.1L373.3 94.2998L376.6 94.3998L382.9 101.8L379.6 101.6L375 96.0998Z" fill="white"/>
<path d="M397 113.1C397 114.5 397.6 115.6 398.8 116.4C400 117.2 401.4 117.8 403.1 118.3C404.8 118.7 406.5 119.2 408.2 119.6C409.9 120.1 411.4 120.9 412.5 122.1C413.7 123.3 414.3 124.9 414.3 126.9C414.3 129.3 413.4 131.2 411.5 132.7C409.6 134.2 407.1 135 404.1 135C401.3 135 399 134.4 397.1 133.3C395.2 132.1 393.9 130.6 393.2 128.7L395.7 127.3C396.2 128.9 397.2 130.1 398.7 131C400.2 131.9 402 132.3 404.1 132.3C406.2 132.3 408 131.8 409.4 130.9C410.8 130 411.5 128.6 411.5 126.9C411.5 125.5 410.9 124.4 409.7 123.5C408.5 122.7 407.1 122 405.4 121.6C403.7 121.2 402 120.7 400.3 120.2C398.6 119.7 397.1 118.9 395.9 117.8C394.7 116.7 394.1 115.1 394.1 113.2C394.1 110.9 395 109 396.8 107.4C398.6 105.8 401 105 403.8 105C406.1 105 408.1 105.5 409.8 106.5C411.5 107.5 412.8 108.9 413.6 110.7L411.2 112.1C410.6 110.7 409.7 109.6 408.3 108.9C407 108.2 405.5 107.8 403.8 107.8C401.9 107.8 400.2 108.3 398.9 109.2C397.7 110.2 397 111.5 397 113.1Z" fill="white"/>
<path d="M31.3 6.7002C42.1 6.7002 51.1 10.5002 58.4 18.1002C65.6 25.7002 69.3 35.0002 69.3 46.1002C69.3 57.2002 65.7 66.5002 58.4 74.1002C51.2 81.7002 42.1 85.5002 31.3 85.5002H0V6.8002H31.3V6.7002ZM31.3 70.6002C38.1 70.6002 43.7 68.3002 47.9 63.8002C52.2 59.3002 54.3 53.4002 54.3 46.1002C54.3 38.8002 52.2 32.9002 47.9 28.4002C43.6 23.9002 38.1 21.6002 31.3 21.6002H15.5V70.6002H31.3Z" fill="white"/>
<path d="M91.8002 63.3001C93.7002 70.4001 99.0002 73.9001 107.7 73.9001C113.2 73.9001 117.4 72.0001 120.3 68.3001L132 75.0001C126.4 83.0001 118.3 87.0001 107.5 87.0001C98.2002 87.0001 90.7002 84.2001 85.1002 78.6001C79.5002 73.0001 76.7002 65.9001 76.7002 57.3001C76.7002 48.8001 79.5002 41.8001 85.0002 36.1001C90.5002 30.4001 97.7002 27.6001 106.4 27.6001C114.6 27.6001 121.5 30.5001 126.8 36.1001C132.2 41.8001 134.8 48.9001 134.8 57.2001C134.8 59.1001 134.6 61.1001 134.2 63.2001H91.8002V63.3001ZM91.6002 52.0001H120.3C119.5 48.2001 117.8 45.3001 115.2 43.5001C112.6 41.6001 109.7 40.7001 106.4 40.7001C102.5 40.7001 99.3002 41.7001 96.7002 43.7001C94.1002 45.6001 92.4002 48.4001 91.6002 52.0001Z" fill="white"/>
<path d="M156 45.1998C156 46.6998 157 47.8998 159 48.8998C161 49.7998 163.4 50.6998 166.3 51.3998C169.1 52.0998 172 52.9998 174.8 54.0998C177.6 55.1998 180.1 56.9998 182.1 59.5998C184.1 62.1998 185.1 65.2998 185.1 69.1998C185.1 74.9998 182.9 79.3998 178.6 82.4998C174.3 85.5998 168.9 87.1998 162.5 87.1998C151 87.1998 143.1 82.6998 138.9 73.7998L151.5 66.6998C153.1 71.5998 156.8 73.9998 162.5 73.9998C167.7 73.9998 170.3 72.3998 170.3 69.1998C170.3 67.6998 169.3 66.4998 167.3 65.4998C165.3 64.5998 162.9 63.6998 160 62.9998C157.1 62.2998 154.3 61.2998 151.5 60.1998C148.6 59.0998 146.2 57.2998 144.2 54.8998C142.2 52.4998 141.2 49.3998 141.2 45.6998C141.2 40.1998 143.2 35.7998 147.3 32.5998C151.4 29.3998 156.5 27.7998 162.5 27.7998C167.1 27.7998 171.2 28.7998 175 30.8998C178.7 32.9998 181.7 35.8998 183.9 39.6998L171.5 46.3998C169.7 42.5998 166.7 40.6998 162.5 40.6998C160.6 40.6998 159.1 41.0998 157.8 41.8998C156.6 42.5998 156 43.6998 156 45.1998Z" fill="white"/>
<path d="M224.9 43.0999H212.2V66.4999C212.2 68.4999 212.7 69.8999 213.7 70.7999C214.7 71.6999 216.1 72.1999 218 72.2999C219.9 72.3999 222.2 72.4 225 72.2V85.3999C215 86.4999 208 85.5999 203.9 82.5999C199.8 79.5999 197.8 74.1999 197.8 66.4999V43.0999H188V29.2H197.8V17.7999L212.3 13.3999V29.0999H225V43.0999H224.9Z" fill="white"/>
<path d="M242.3 22.4001C239.9 22.4001 237.8 21.5001 236.1 19.8001C234.3 18.0001 233.5 16.0001 233.5 13.6001C233.5 11.2001 234.4 9.10011 236.1 7.30011C237.9 5.50011 239.9 4.6001 242.3 4.6001C244.8 4.6001 246.9 5.50011 248.7 7.30011C250.5 9.10011 251.3 11.2001 251.3 13.6001C251.3 16.0001 250.4 18.1001 248.7 19.8001C246.9 21.6001 244.8 22.4001 242.3 22.4001ZM235.1 85.4001V29.2001H249.6V85.4001H235.1Z" fill="white"/>
<path d="M409.9 52.3C395.5 51.1 381.1 49.9 366.5 48.7C369.2 44.6 371.8 40.6 374.4 36.6C374.3 36.5 374.2 36.5 374.2 36.4C370.3 39 366.3 41.6 362.2 44.3C361 29.7 359.8 15.3 358.5 1C358.4 1 358.3 1 358.2 1C357 15.4 355.8 29.7 354.5 44.3C350.3 41.6 346.4 39 342.4 36.4C342.3 36.5 342.3 36.5 342.2 36.6C344.8 40.6 347.4 44.5 350.1 48.6C335.5 49.8 321 51 306.6 52.3C306.6 52.4 306.6 52.5 306.6 52.6C321 53.8 335.4 55 350.1 56.3C347.4 60.4 344.8 64.4 342.2 68.4C342.3 68.5 342.4 68.5 342.4 68.6C346.4 66 350.3 63.4 354.4 60.7C355.6 75.3 356.8 89.7 358.1 104C358.2 104 358.3 104 358.4 104C359.6 89.6 360.8 75.3 362 60.7C366.2 63.4 370.1 66 374 68.6L374.2 68.4C371.6 64.5 369 60.5 366.3 56.4C380.9 55.2 395.3 54 409.7 52.8V52.3H409.9ZM358.4 57.4C355.6 57.4 353.4 55.2 353.4 52.4C353.4 49.6 355.6 47.4 358.4 47.4C361.2 47.4 363.4 49.6 363.4 52.4C363.4 55.3 361.3 57.4 358.4 57.4Z" fill="white"/>
<path d="M354.1 82.5002C341.3 81.2002 329.6 69.8002 328.3 56.7002C329.4 56.8002 330.3 56.9001 331.3 56.9001C332.1 56.9001 332.4 57.2002 332.5 58.0002C333.8 64.2002 337 69.2002 341.9 73.1002C345.1 75.7002 348.7 77.4002 352.8 78.2002C353.5 78.4002 353.9 78.6001 353.9 79.4001C353.9 80.5001 354.1 81.5002 354.1 82.5002Z" fill="white"/>
<path d="M354.2 22.2998C354.1 23.4998 354.1 24.6998 353.9 25.6998C353.8 25.9998 353.3 26.3998 352.9 26.4998C347.9 27.5998 343.5 29.9998 339.9 33.5998C336.2 37.2998 333.8 41.5998 332.7 46.6998C332.5 47.5998 332.1 47.8998 331.2 47.8998C330.3 47.8998 329.5 47.9998 328.6 48.0998C328.6 48.0998 328.5 48.0998 328.5 47.9998C329.5 35.5998 340.7 23.7998 354.2 22.2998Z" fill="white"/>
<path d="M388.5 48.1998C387.3 48.0998 386 47.9998 384.8 47.7998C384.6 47.7998 384.3 47.1998 384.2 46.8998C383.1 41.6998 380.6 37.1998 376.8 33.4998C373.2 29.9998 369 27.5998 364 26.5998C363.1 26.3998 362.7 25.9998 362.8 25.0998C362.8 24.1998 362.7 23.2998 362.6 22.2998C375 23.4998 387.1 34.4998 388.5 48.1998Z" fill="white"/>
<path d="M388.6 56.7002C387.8 62.6002 385.5 67.7002 381.7 72.2002C376.7 78.0002 370.4 81.5002 362.7 82.7002C362.8 81.4002 362.8 80.2002 363 79.1002C363.1 78.8002 363.6 78.4002 364 78.3002C369.1 77.2002 373.5 74.7002 377.2 71.0002C380.9 67.3002 383.2 62.9002 384.3 57.8002C384.4 57.1002 384.7 56.9002 385.4 56.8002C386.4 56.9002 387.4 56.8002 388.6 56.7002Z" fill="white"/>
<path d="M362 52.3999C362 54.2999 360.4 55.9999 358.5 55.9999C356.6 55.9999 354.9 54.3999 354.9 52.4999C354.9 51.9999 355 51.4999 355.2 51.0999C355.3 50.8999 355.4 50.6999 355.5 50.4999C356.1 49.5999 357.2 48.8999 358.4 48.8999C359.4 48.8999 360.3 49.2999 360.9 49.8999C361 49.9999 361.1 50.0999 361.1 50.0999C361.7 50.7999 362 51.5999 362 52.3999Z" fill="white"/>
<path d="M315.4 54.8001C313.2 54.6001 311 54.4001 308.9 54.3001L306.7 54.1001C305.9 54.0001 305.3 53.4001 305.3 52.6001C305.3 52.5001 305.3 52.4001 305.3 52.3001C305.3 51.5001 305.9 50.9001 306.7 50.8001C306.7 50.8001 310.3 50.5001 315.4 50.1001C315.3 43.2001 313.3 37.8001 309.4 33.8001C305.4 29.7001 300.3 27.6001 294.2 27.6001C286.6 27.6001 281 30.2001 277.4 35.5001V29.2001H262.9V85.4001H277.4V55.0001C277.4 50.4001 278.5 46.9001 280.8 44.5001C283 42.2001 286 41.0001 289.8 41.0001C293.2 41.0001 295.9 42.0001 297.9 44.0001C299.9 46.0001 300.9 48.9001 300.9 52.6001V85.3001H315.4V54.8001Z" fill="white"/>
<rect x="430.3" y="3" width="8.75916" height="130" fill="white"/>
<path d="M479.684 74.134C468.101 74.134 460.487 68.545 457.409 60.121L466.967 54.532C468.992 59.797 472.961 63.199 480.008 63.199C486.731 63.199 489.08 60.364 489.08 57.205C489.08 52.993 485.273 51.373 476.849 48.943C468.182 46.432 459.758 42.787 459.758 32.014C459.758 21.322 468.668 15.166 478.388 15.166C487.703 15.166 494.831 19.945 498.638 27.883L489.242 33.31C487.217 29.017 484.139 26.02 478.388 26.02C473.69 26.02 470.936 28.45 470.936 31.69C470.936 35.173 473.123 37.036 481.709 39.628C490.7 42.463 500.258 45.46 500.258 57.043C500.258 67.654 491.753 74.134 479.684 74.134ZM543.128 73L539.726 62.794H517.127L513.725 73H501.656L521.501 16.3H535.352L555.278 73H543.128ZM520.691 52.345H536.243L528.467 29.179L520.691 52.345ZM593.589 16.3H604.767V73H596.262L571.962 38.332V73H560.784V16.3H569.289L593.589 50.887V16.3ZM651.654 74.134C642.987 74.134 636.426 70.408 632.943 63.361L642.582 57.853C644.364 61.417 646.956 63.199 651.654 63.199C657.81 63.199 660.483 59.959 660.483 55.342V16.3H671.58V55.342C671.58 67.573 662.832 74.134 651.654 74.134ZM708.462 74.134C692.1 74.134 679.059 61.174 679.059 44.65C679.059 28.045 692.1 15.166 708.462 15.166C724.824 15.166 737.946 28.045 737.946 44.65C737.946 61.174 724.824 74.134 708.462 74.134ZM708.462 63.199C718.749 63.199 726.768 55.504 726.768 44.65C726.768 33.715 718.749 26.02 708.462 26.02C698.175 26.02 690.156 33.715 690.156 44.65C690.156 55.504 698.175 63.199 708.462 63.199ZM763.104 74.134C751.521 74.134 743.907 68.545 740.829 60.121L750.387 54.532C752.412 59.797 756.381 63.199 763.428 63.199C770.151 63.199 772.5 60.364 772.5 57.205C772.5 52.993 768.693 51.373 760.269 48.943C751.602 46.432 743.178 42.787 743.178 32.014C743.178 21.322 752.088 15.166 761.808 15.166C771.123 15.166 778.251 19.945 782.058 27.883L772.662 33.31C770.637 29.017 767.559 26.02 761.808 26.02C757.11 26.02 754.356 28.45 754.356 31.69C754.356 35.173 756.543 37.036 765.129 39.628C774.12 42.463 783.678 45.46 783.678 57.043C783.678 67.654 775.173 74.134 763.104 74.134ZM820.463 0.0999971L811.472 11.197H801.428L807.908 0.0999971H820.463ZM801.752 62.308H825.647V73H790.574V16.3H825.242V26.992H801.752V39.061H823.217V49.591H801.752V62.308Z" fill="white"/>
<path d="M481.125 135.845C467.28 135.845 457.335 125.445 457.335 112.25C457.335 99.055 467.28 88.655 481.125 88.655C489.445 88.655 496.855 92.88 500.69 99.51L494.19 103.28C491.785 98.795 486.845 95.935 481.125 95.935C471.31 95.935 464.81 102.89 464.81 112.25C464.81 121.61 471.31 128.565 481.125 128.565C486.845 128.565 491.85 125.705 494.19 121.22L500.69 124.925C496.92 131.555 489.51 135.845 481.125 135.845ZM527.902 135.845C514.772 135.845 504.307 125.445 504.307 112.25C504.307 99.055 514.772 88.655 527.902 88.655C541.097 88.655 551.497 99.055 551.497 112.25C551.497 125.445 541.097 135.845 527.902 135.845ZM527.902 128.565C537.002 128.565 544.022 121.61 544.022 112.25C544.022 102.89 537.002 95.935 527.902 95.935C518.802 95.935 511.782 102.89 511.782 112.25C511.782 121.61 518.802 128.565 527.902 128.565ZM571.747 135.845C562.777 135.845 556.602 131.425 554.197 124.665L560.632 120.895C562.257 125.51 565.767 128.565 571.942 128.565C577.857 128.565 580.392 125.9 580.392 122.585C580.392 118.555 576.817 117.19 570.057 115.11C562.972 112.965 556.082 110.365 556.082 101.785C556.082 93.4 563.037 88.655 570.707 88.655C578.182 88.655 583.707 92.62 586.567 98.665L580.262 102.305C578.637 98.665 575.777 95.935 570.707 95.935C566.352 95.935 563.557 98.145 563.557 101.59C563.557 105.1 566.092 106.595 572.722 108.675C580.262 111.08 587.867 113.42 587.867 122.455C587.867 130.775 581.237 135.845 571.747 135.845ZM622.231 89.5V96.65H609.426V135H601.951V96.65H589.081V89.5H622.231ZM654.162 135L650.977 125.835H631.607L628.422 135H620.297L636.807 89.5H645.777L662.222 135H654.162ZM634.077 118.815H648.507L641.292 98.275L634.077 118.815ZM709.299 135L699.679 118.425H690.839V135H683.364V89.5H701.564C709.689 89.5 716.189 96 716.189 104.125C716.189 109.975 712.484 115.175 707.154 117.32L717.489 135H709.299ZM690.839 96.52V111.73H701.564C705.529 111.73 708.714 108.35 708.714 104.125C708.714 99.835 705.529 96.52 701.564 96.52H690.839ZM723.228 89.5H730.703V135H723.228V89.5ZM761.31 135.845C747.465 135.845 737.52 125.445 737.52 112.25C737.52 99.055 747.465 88.655 761.31 88.655C769.63 88.655 777.04 92.88 780.875 99.51L774.375 103.28C771.97 98.795 767.03 95.935 761.31 95.935C751.495 95.935 744.995 102.89 744.995 112.25C744.995 121.61 751.495 128.565 761.31 128.565C767.03 128.565 772.035 125.705 774.375 121.22L780.875 124.925C777.105 131.555 769.695 135.845 761.31 135.845ZM816.408 135L813.223 125.835H793.853L790.668 135H782.543L799.053 89.5H808.023L824.468 135H816.408ZM796.323 118.815H810.753L803.538 98.275L796.323 118.815Z" fill="white"/>
</svg>
