<svg width="830" height="134" viewBox="0 0 830 134" fill="none" xmlns="http://www.w3.org/2000/svg">
<path d="M409.9 51.3C395.5 50.1 381.1 48.9 366.5 47.7C369.2 43.6 371.8 39.6 374.4 35.6C374.3 35.5 374.2 35.5 374.2 35.4C370.3 38 366.3 40.6 362.2 43.3C361 28.7 359.8 14.3 358.5 0C358.4 0 358.3 0 358.2 0C357 14.4 355.8 28.7 354.5 43.3C350.3 40.6 346.4 38 342.4 35.4C342.3 35.5 342.3 35.5 342.2 35.6C344.8 39.6 347.4 43.5 350.1 47.6C335.5 48.8 321 50 306.6 51.3C306.6 51.4 306.6 51.5 306.6 51.6C321 52.8 335.4 54 350.1 55.3C347.4 59.4 344.8 63.4 342.2 67.4C342.3 67.5 342.4 67.5 342.4 67.6C346.4 65 350.3 62.4 354.4 59.7C355.6 74.3 356.8 88.7 358.1 103C358.2 103 358.3 103 358.4 103C359.6 88.6 360.8 74.3 362 59.7C366.2 62.4 370.1 65 374 67.6L374.2 67.4C371.6 63.5 369 59.5 366.3 55.4C380.9 54.2 395.3 53 409.7 51.8V51.3H409.9ZM358.4 56.4C355.6 56.4 353.4 54.2 353.4 51.4C353.4 48.6 355.6 46.4 358.4 46.4C361.2 46.4 363.4 48.6 363.4 51.4C363.4 54.2 361.3 56.4 358.4 56.4Z" fill="#0032A0"/>
<path d="M354.1 81.5002C341.3 80.2002 329.6 68.8002 328.3 55.7002C329.4 55.8002 330.3 55.9002 331.3 55.9002C332.1 55.9002 332.4 56.2002 332.5 57.0002C333.8 63.2002 337 68.2002 341.9 72.1002C345.1 74.7002 348.7 76.4002 352.8 77.2002C353.5 77.4002 353.9 77.6002 353.9 78.4002C353.9 79.5002 354.1 80.5002 354.1 81.5002Z" fill="#3FA9F5"/>
<path d="M354.2 21.3003C354.1 22.5003 354.1 23.7003 353.9 24.7003C353.8 25.0003 353.3 25.4003 352.9 25.5003C347.9 26.6003 343.5 29.0003 339.9 32.6003C336.2 36.3003 333.8 40.6003 332.7 45.7003C332.5 46.6003 332.1 46.9003 331.2 46.9003C330.3 46.9003 329.5 47.0003 328.6 47.1003C328.6 47.1003 328.5 47.1003 328.5 47.0003C329.5 34.6003 340.7 22.7003 354.2 21.3003Z" fill="#3FA9F5"/>
<path d="M388.5 47.1002C387.3 47.0002 386 46.9002 384.8 46.7002C384.6 46.7002 384.3 46.1002 384.2 45.8002C383.1 40.6002 380.6 36.1002 376.8 32.4002C373.2 28.9002 369 26.5002 364 25.5002C363.1 25.3002 362.7 24.9002 362.8 24.0002C362.8 23.1002 362.7 22.2002 362.6 21.2002C375 22.5002 387.1 33.5002 388.5 47.1002Z" fill="#3FA9F5"/>
<path d="M388.6 55.7002C387.8 61.6002 385.5 66.7002 381.7 71.2002C376.7 77.0002 370.4 80.5002 362.7 81.7002C362.8 80.4002 362.8 79.2002 363 78.1002C363.1 77.8002 363.6 77.4002 364 77.3002C369.1 76.2002 373.5 73.7002 377.2 70.0002C380.9 66.3002 383.2 61.9002 384.3 56.8002C384.4 56.1002 384.7 55.9002 385.4 55.8002C386.4 55.9002 387.4 55.8002 388.6 55.7002Z" fill="#3FA9F5"/>
<path d="M362 51.4004C362 53.3004 360.4 55.0004 358.5 55.0004C356.6 55.0004 354.9 53.4004 354.9 51.5004C354.9 51.0004 355 50.5004 355.2 50.1004C355.3 49.9004 355.4 49.7004 355.5 49.5004C356.1 48.6004 357.2 47.9004 358.4 47.9004C359.4 47.9004 360.3 48.3004 360.9 48.9004C361 49.0004 361.1 49.1004 361.1 49.1004C361.7 49.7004 362 50.5004 362 51.4004Z" fill="#3FA9F5"/>
<path d="M240.9 93.1001H243.8V133.2H240.9V126.5C239.7 128.8 238 130.5 235.9 131.8C233.7 133.1 231.3 133.7 228.6 133.7C224.5 133.7 221 132.3 218.1 129.4C215.2 126.5 213.8 123 213.8 118.8C213.8 114.6 215.2 111.1 218.1 108.2C221 105.3 224.5 103.9 228.6 103.9C231.3 103.9 233.7 104.6 235.9 105.8C238.1 107.1 239.7 108.9 240.9 111.1V93.1001ZM220.1 127.6C222.5 130 225.3 131.2 228.7 131.2C232.1 131.2 235 130 237.3 127.6C239.7 125.2 240.8 122.3 240.8 118.9C240.8 115.5 239.6 112.6 237.3 110.2C234.9 107.8 232.1 106.6 228.7 106.6C225.3 106.6 222.4 107.8 220.1 110.2C217.7 112.6 216.6 115.5 216.6 118.9C216.6 122.3 217.8 125.2 220.1 127.6Z" fill="#0032A0"/>
<path d="M265.5 104C269.7 104 273.1 105.5 275.7 108.5C278.3 111.5 279.6 115 279.6 119.1C279.6 119.3 279.6 119.5 279.6 119.8C279.6 120.1 279.6 120.3 279.6 120.5H253.6C253.9 123.7 255.2 126.3 257.5 128.3C259.8 130.3 262.5 131.3 265.8 131.3C268.1 131.3 270.1 130.8 271.8 129.9C273.5 128.9 274.8 127.7 275.7 126.1L278.2 127.6C277 129.6 275.3 131.2 273.2 132.3C271 133.5 268.5 134 265.7 134C261.3 134 257.7 132.6 254.9 129.8C252.1 127 250.7 123.4 250.7 119.1C250.7 114.8 252.1 111.3 254.9 108.4C257.6 105.4 261.1 104 265.5 104ZM265.5 106.7C262.3 106.7 259.5 107.7 257.4 109.7C255.3 111.7 254 114.3 253.7 117.6H276.7C276.4 114.2 275.2 111.5 273.1 109.6C270.9 107.7 268.4 106.7 265.5 106.7Z" fill="#0032A0"/>
<path d="M286.3 133.3V91.3999H289.2V133.3H286.3Z" fill="#0032A0"/>
<path d="M344 104C347.1 104 349.7 105 351.6 106.9C353.5 108.8 354.5 111.6 354.5 115.1V133.3H351.6V115.1C351.6 112.4 350.9 110.4 349.5 108.9C348.1 107.4 346.3 106.7 344 106.7C341.4 106.7 339.4 107.6 337.8 109.3C336.2 111.1 335.4 113.7 335.4 117.2V133.2H332.5V115C332.5 112.3 331.8 110.3 330.5 108.8C329.2 107.3 327.4 106.6 325.1 106.6C322.6 106.6 320.5 107.5 318.8 109.3C317.1 111.1 316.2 113.7 316.2 117.2V133.2H313.3V104.5H316.2V109.4C318.2 105.7 321.3 103.8 325.4 103.8C327.5 103.8 329.3 104.3 330.9 105.3C332.5 106.3 333.6 107.8 334.3 109.6C335.3 107.7 336.6 106.2 338.3 105.2C340.1 104.5 342 104 344 104Z" fill="#0032A0"/>
<path d="M375.4 104C379.6 104 383 105.5 385.6 108.5C388.2 111.5 389.5 115 389.5 119.1C389.5 119.3 389.5 119.5 389.5 119.8C389.5 120.1 389.5 120.3 389.5 120.5H363.5C363.8 123.7 365.1 126.3 367.4 128.3C369.7 130.3 372.4 131.3 375.7 131.3C378 131.3 380 130.8 381.7 129.9C383.4 128.9 384.7 127.7 385.6 126.1L388.1 127.6C386.9 129.6 385.2 131.2 383.1 132.3C380.9 133.5 378.4 134 375.6 134C371.2 134 367.6 132.6 364.8 129.8C362 127 360.6 123.4 360.6 119.1C360.6 114.8 362 111.3 364.8 108.4C367.5 105.4 371 104 375.4 104ZM375.4 106.7C372.2 106.7 369.4 107.7 367.3 109.7C365.2 111.7 363.9 114.3 363.6 117.6H386.6C386.3 114.2 385.1 111.5 383 109.6C380.8 107.7 378.3 106.7 375.4 106.7Z" fill="#0032A0"/>
<path d="M397.1 112C397.1 113.4 397.7 114.5 398.9 115.3C400.1 116.1 401.5 116.7 403.2 117.2C404.9 117.6 406.6 118.1 408.3 118.5C410 119 411.5 119.8 412.6 121C413.8 122.2 414.4 123.8 414.4 125.8C414.4 128.2 413.5 130.1 411.6 131.6C409.7 133.1 407.2 133.9 404.2 133.9C401.4 133.9 399.1 133.3 397.2 132.2C395.3 131 394 129.5 393.3 127.6L395.8 126.2C396.3 127.8 397.3 129 398.8 129.9C400.3 130.8 402.1 131.2 404.2 131.2C406.3 131.2 408.1 130.7 409.5 129.8C410.9 128.9 411.6 127.5 411.6 125.8C411.6 124.4 411 123.3 409.8 122.4C408.6 121.6 407.2 120.9 405.5 120.5C403.8 120.1 402.1 119.6 400.4 119.1C398.7 118.6 397.2 117.8 396 116.7C394.8 115.6 394.2 114 394.2 112.1C394.2 109.8 395.1 107.9 396.9 106.3C398.7 104.7 401.1 103.9 403.9 103.9C406.2 103.9 408.2 104.4 409.9 105.4C411.6 106.4 412.9 107.8 413.7 109.6L411.3 111C410.7 109.6 409.8 108.5 408.4 107.8C407.1 107.1 405.6 106.7 403.9 106.7C402 106.7 400.3 107.2 399 108.1C397.7 109.1 397.1 110.4 397.1 112Z" fill="#0032A0"/>
<path d="M31.3 5.7002C42.1 5.7002 51.1 9.5002 58.4 17.1002C65.6 24.7002 69.3 34.0002 69.3 45.1002C69.3 56.2002 65.7 65.5002 58.4 73.1002C51.2 80.7002 42.1 84.5002 31.3 84.5002H0V5.7002H31.3ZM31.3 69.6002C38.1 69.6002 43.7 67.3002 47.9 62.8002C52.2 58.3002 54.3 52.4002 54.3 45.1002C54.3 37.8002 52.2 31.9002 47.9 27.4002C43.6 22.9002 38.1 20.6002 31.3 20.6002H15.5V69.6002H31.3Z" fill="#0032A0"/>
<path d="M91.8002 62.2C93.7002 69.3 99.0002 72.8 107.7 72.8C113.2 72.8 117.4 70.9 120.3 67.2L132 73.9C126.4 81.9 118.3 85.9 107.5 85.9C98.2002 85.9 90.7002 83.1 85.1002 77.5C79.5002 71.9 76.7002 64.8 76.7002 56.2C76.7002 47.7 79.5002 40.7 85.0002 35C90.5002 29.3 97.7002 26.5 106.4 26.5C114.6 26.5 121.5 29.4 126.8 35C132.2 40.7 134.8 47.8 134.8 56.1C134.8 58 134.6 60 134.2 62.1H91.8002V62.2ZM91.6002 51H120.3C119.5 47.2 117.8 44.3 115.2 42.5C112.6 40.6 109.7 39.7 106.4 39.7C102.5 39.7 99.3002 40.7 96.7002 42.7C94.1002 44.6 92.4002 47.4 91.6002 51Z" fill="#0032A0"/>
<path d="M156 44.1002C156 45.6002 157 46.8002 159 47.8002C161 48.7002 163.4 49.6002 166.3 50.3002C169.1 51.0002 172 51.9002 174.8 53.0002C177.6 54.1002 180.1 55.9002 182.1 58.5002C184.1 61.1002 185.1 64.2002 185.1 68.1002C185.1 73.9002 182.9 78.3002 178.6 81.4002C174.3 84.5002 168.9 86.1002 162.5 86.1002C151 86.1002 143.1 81.6002 138.9 72.7002L151.5 65.6002C153.1 70.5002 156.8 72.9002 162.5 72.9002C167.7 72.9002 170.3 71.3002 170.3 68.1002C170.3 66.6002 169.3 65.4002 167.3 64.4002C165.3 63.5002 162.9 62.6002 160 61.9002C157.1 61.2002 154.3 60.2002 151.5 59.1002C148.6 58.0002 146.2 56.2002 144.2 53.8002C142.2 51.4002 141.2 48.3002 141.2 44.6002C141.2 39.1002 143.2 34.7002 147.3 31.5002C151.4 28.3002 156.5 26.7002 162.5 26.7002C167.1 26.7002 171.2 27.7002 175 29.8002C178.7 31.9002 181.7 34.8002 183.9 38.6002L171.5 45.3002C169.7 41.5002 166.7 39.6002 162.5 39.6002C160.6 39.6002 159.1 40.0002 157.8 40.8002C156.6 41.6002 156 42.7002 156 44.1002Z" fill="#0032A0"/>
<path d="M224.9 42.0999H212.2V65.4999C212.2 67.4999 212.7 68.8999 213.7 69.7999C214.7 70.6999 216.1 71.1999 218 71.2999C219.9 71.3999 222.2 71.3999 225 71.1999V84.3999C215 85.4999 208 84.5999 203.9 81.5999C199.8 78.5999 197.8 73.1999 197.8 65.4999V42.0999H188V28.1999H197.8V16.7999L212.3 12.3999V28.0999H225V42.0999H224.9Z" fill="#0032A0"/>
<path d="M242.3 21.4001C239.9 21.4001 237.8 20.5001 236.1 18.8001C234.3 17.0001 233.5 15.0001 233.5 12.6001C233.5 10.2001 234.4 8.1001 236.1 6.3001C237.9 4.5001 239.9 3.6001 242.3 3.6001C244.8 3.6001 246.9 4.5001 248.7 6.3001C250.5 8.1001 251.3 10.2001 251.3 12.6001C251.3 15.0001 250.4 17.1001 248.7 18.8001C246.9 20.5001 244.8 21.4001 242.3 21.4001ZM235.1 84.4001V28.2001H249.6V84.4001H235.1Z" fill="#0032A0"/>
<path d="M315.4 53.7C313.2 53.5 311 53.3 308.9 53.2L306.7 53C305.9 52.9 305.3 52.3 305.3 51.5C305.3 51.4 305.3 51.3 305.3 51.2C305.3 50.4 305.9 49.8 306.7 49.7C306.7 49.7 310.3 49.4 315.4 49C315.3 42.1 313.3 36.7 309.4 32.7C305.4 28.6 300.3 26.5 294.2 26.5C286.6 26.5 281 29.1 277.4 34.4V28.1H262.9V84.3H277.4V54C277.4 49.4 278.5 45.9 280.8 43.5C283 41.2 286 40 289.8 40C293.2 40 295.9 41 297.9 43C299.9 45 300.9 47.9 300.9 51.6V84.3H315.4V53.7Z" fill="#0032A0"/>
<rect x="430.4" y="2" width="8.75916" height="130" fill="#47ABEE"/>
<path d="M496.874 83.5L493.472 73.294H470.873L467.471 83.5H455.402L475.247 26.8H489.098L509.024 83.5H496.874ZM474.437 62.845H489.989L482.213 39.679L474.437 62.845ZM545.634 83.5L534.213 63.817H525.708V83.5H514.53V26.8H537.21C547.659 26.8 556.083 35.224 556.083 45.592C556.083 52.72 551.628 59.119 545.148 62.116L557.703 83.5H545.634ZM525.708 37.249V54.016H537.21C541.422 54.016 544.905 50.29 544.905 45.592C544.905 40.894 541.422 37.249 537.21 37.249H525.708ZM585.03 84.634C572.637 84.634 563.403 77.182 563.403 64.951V26.8H574.5V64.06C574.5 69.568 577.416 73.699 585.03 73.699C592.644 73.699 595.56 69.568 595.56 64.06V26.8H606.738V64.951C606.738 77.182 597.504 84.634 585.03 84.634ZM651.071 54.097C655.607 56.689 658.523 61.144 658.523 67.057C658.523 76.777 650.666 83.5 640.865 83.5H616.808V26.8H639.164C648.722 26.8 656.417 33.28 656.417 42.757C656.417 47.617 654.392 51.424 651.071 54.097ZM639.164 37.249H627.986V49.723H639.164C642.647 49.723 645.239 47.05 645.239 43.486C645.239 39.922 642.728 37.249 639.164 37.249ZM640.865 73.051C644.672 73.051 647.426 70.216 647.426 66.328C647.426 62.521 644.672 59.686 640.865 59.686H627.986V73.051H640.865ZM702.301 83.5L698.899 73.294H676.3L672.898 83.5H660.829L680.674 26.8H694.525L714.451 83.5H702.301ZM679.864 62.845H695.416L687.64 39.679L679.864 62.845Z" fill="#0032A0"/>
</svg>
