<svg width="716" height="134" viewBox="0 0 716 134" fill="none" xmlns="http://www.w3.org/2000/svg">
<path d="M251.3 93.2002H254.2V133.3H251.3V126.6C250.1 128.9 248.4 130.6 246.3 131.9C244.1 133.2 241.7 133.8 239 133.8C234.9 133.8 231.4 132.4 228.5 129.5C225.6 126.6 224.2 123.1 224.2 118.9C224.2 114.7 225.6 111.2 228.5 108.3C231.4 105.4 234.9 104 239 104C241.7 104 244.1 104.7 246.3 105.9C248.5 107.2 250.1 109 251.3 111.2V93.2002ZM230.5 127.6C232.9 130 235.7 131.2 239.1 131.2C242.5 131.2 245.4 130 247.7 127.6C250.1 125.2 251.2 122.3 251.2 118.9C251.2 115.5 250 112.6 247.7 110.2C245.3 107.8 242.5 106.6 239.1 106.6C235.7 106.6 232.8 107.8 230.5 110.2C228.1 112.6 227 115.5 227 118.9C227 122.3 228.2 125.3 230.5 127.6Z" fill="#0032A0"/>
<path d="M276.1 133.9C271.9 133.9 268.3 132.5 265.4 129.6C262.5 126.7 261 123.2 261 119C261 114.8 262.5 111.3 265.4 108.4C268.3 105.5 271.9 104.1 276.1 104.1C280.3 104.1 283.8 105.5 286.7 108.4C289.6 111.3 291.1 114.8 291.1 119C291.1 123.2 289.6 126.7 286.7 129.6C283.8 132.5 280.3 133.9 276.1 133.9ZM267.5 127.6C269.9 130 272.7 131.2 276.1 131.2C279.5 131.2 282.4 130 284.7 127.6C287 125.2 288.2 122.3 288.2 118.9C288.2 115.5 287 112.6 284.7 110.2C282.4 107.8 279.5 106.6 276.1 106.6C272.7 106.6 269.8 107.8 267.5 110.2C265.1 112.6 264 115.5 264 118.9C264 122.3 265.1 125.3 267.5 127.6Z" fill="#0032A0"/>
<path d="M343.9 104C347 104 349.6 105 351.5 106.9C353.4 108.8 354.4 111.6 354.4 115.1V133.3H351.5V115.1C351.5 112.4 350.8 110.4 349.4 108.9C348 107.4 346.2 106.7 343.9 106.7C341.3 106.7 339.3 107.6 337.7 109.3C336.1 111.1 335.3 113.7 335.3 117.2V133.2H332.4V115C332.4 112.3 331.7 110.3 330.4 108.8C329.1 107.3 327.3 106.6 325 106.6C322.5 106.6 320.4 107.5 318.7 109.3C317 111.1 316.1 113.7 316.1 117.2V133.2H313.2V104.5H316.1V109.4C318.1 105.7 321.2 103.8 325.3 103.8C327.4 103.8 329.2 104.3 330.8 105.3C332.4 106.3 333.5 107.8 334.2 109.6C335.2 107.7 336.5 106.2 338.2 105.2C340.1 104.5 342 104 343.9 104Z" fill="#0032A0"/>
<path d="M375.4 104C379.6 104 383 105.5 385.6 108.5C388.2 111.5 389.5 115 389.5 119.1C389.5 119.3 389.5 119.5 389.5 119.8C389.5 120.1 389.5 120.3 389.5 120.5H363.5C363.8 123.7 365.1 126.3 367.4 128.3C369.7 130.3 372.4 131.3 375.7 131.3C378 131.3 380 130.8 381.7 129.9C383.4 128.9 384.7 127.7 385.6 126.1L388.1 127.6C386.9 129.6 385.2 131.2 383.1 132.3C380.9 133.5 378.4 134 375.6 134C371.2 134 367.6 132.6 364.8 129.8C362 127 360.6 123.4 360.6 119.1C360.6 114.8 362 111.3 364.8 108.4C367.4 105.4 371 104 375.4 104ZM375.4 106.8C372.2 106.8 369.4 107.8 367.3 109.8C365.2 111.8 363.9 114.4 363.6 117.7H386.6C386.3 114.3 385.1 111.6 383 109.7C380.8 107.7 378.3 106.8 375.4 106.8ZM375 95.0998L370.4 100.6H367.1L373.3 93.2998L376.6 93.3998L382.9 100.8L379.6 100.6L375 95.0998Z" fill="#0032A0"/>
<path d="M397 112.1C397 113.5 397.6 114.6 398.8 115.4C400 116.2 401.4 116.8 403.1 117.3C404.8 117.7 406.5 118.2 408.2 118.6C409.9 119.1 411.4 119.9 412.5 121.1C413.7 122.3 414.3 123.9 414.3 125.9C414.3 128.3 413.4 130.2 411.5 131.7C409.6 133.2 407.1 134 404.1 134C401.3 134 399 133.4 397.1 132.3C395.2 131.1 393.9 129.6 393.2 127.7L395.7 126.3C396.2 127.9 397.2 129.1 398.7 130C400.2 130.9 402 131.3 404.1 131.3C406.2 131.3 408 130.8 409.4 129.9C410.8 129 411.5 127.6 411.5 125.9C411.5 124.5 410.9 123.4 409.7 122.5C408.5 121.7 407.1 121 405.4 120.6C403.7 120.2 402 119.7 400.3 119.2C398.6 118.7 397.1 117.9 395.9 116.8C394.7 115.7 394.1 114.1 394.1 112.2C394.1 109.9 395 108 396.8 106.4C398.6 104.8 401 104 403.8 104C406.1 104 408.1 104.5 409.8 105.5C411.5 106.5 412.8 107.9 413.6 109.7L411.2 111.1C410.6 109.7 409.7 108.6 408.3 107.9C407 107.2 405.5 106.8 403.8 106.8C401.9 106.8 400.2 107.3 398.9 108.2C397.7 109.2 397 110.5 397 112.1Z" fill="#0032A0"/>
<path d="M31.3 5.7002C42.1 5.7002 51.1 9.50019 58.4 17.1002C65.6 24.7002 69.3 34.0002 69.3 45.1002C69.3 56.2002 65.7 65.5002 58.4 73.1002C51.2 80.7002 42.1 84.5002 31.3 84.5002H0V5.8002H31.3V5.7002ZM31.3 69.6002C38.1 69.6002 43.7 67.3002 47.9 62.8002C52.2 58.3002 54.3 52.4002 54.3 45.1002C54.3 37.8002 52.2 31.9002 47.9 27.4002C43.6 22.9002 38.1 20.6002 31.3 20.6002H15.5V69.6002H31.3Z" fill="#0032A0"/>
<path d="M91.8002 62.3001C93.7002 69.4001 99.0002 72.9001 107.7 72.9001C113.2 72.9001 117.4 71.0001 120.3 67.3001L132 74.0001C126.4 82.0001 118.3 86.0001 107.5 86.0001C98.2002 86.0001 90.7002 83.2001 85.1002 77.6001C79.5002 72.0001 76.7002 64.9001 76.7002 56.3001C76.7002 47.8001 79.5002 40.8001 85.0002 35.1001C90.5002 29.4001 97.7002 26.6001 106.4 26.6001C114.6 26.6001 121.5 29.5001 126.8 35.1001C132.2 40.8001 134.8 47.9001 134.8 56.2001C134.8 58.1001 134.6 60.1001 134.2 62.2001H91.8002V62.3001ZM91.6002 51.0001H120.3C119.5 47.2001 117.8 44.3001 115.2 42.5001C112.6 40.6001 109.7 39.7001 106.4 39.7001C102.5 39.7001 99.3002 40.7001 96.7002 42.7001C94.1002 44.6001 92.4002 47.4001 91.6002 51.0001Z" fill="#0032A0"/>
<path d="M156 44.1998C156 45.6998 157 46.8998 159 47.8998C161 48.7998 163.4 49.6998 166.3 50.3998C169.1 51.0998 172 51.9998 174.8 53.0998C177.6 54.1998 180.1 55.9998 182.1 58.5998C184.1 61.1998 185.1 64.2998 185.1 68.1998C185.1 73.9998 182.9 78.3998 178.6 81.4998C174.3 84.5998 168.9 86.1998 162.5 86.1998C151 86.1998 143.1 81.6998 138.9 72.7998L151.5 65.6998C153.1 70.5998 156.8 72.9998 162.5 72.9998C167.7 72.9998 170.3 71.3998 170.3 68.1998C170.3 66.6998 169.3 65.4998 167.3 64.4998C165.3 63.5998 162.9 62.6998 160 61.9998C157.1 61.2998 154.3 60.2998 151.5 59.1998C148.6 58.0998 146.2 56.2998 144.2 53.8998C142.2 51.4998 141.2 48.3998 141.2 44.6998C141.2 39.1998 143.2 34.7998 147.3 31.5998C151.4 28.3998 156.5 26.7998 162.5 26.7998C167.1 26.7998 171.2 27.7998 175 29.8998C178.7 31.9998 181.7 34.8998 183.9 38.6998L171.5 45.3998C169.7 41.5998 166.7 39.6998 162.5 39.6998C160.6 39.6998 159.1 40.0998 157.8 40.8998C156.6 41.5998 156 42.6998 156 44.1998Z" fill="#0032A0"/>
<path d="M224.9 42.0999H212.2V65.4999C212.2 67.4999 212.7 68.8999 213.7 69.7999C214.7 70.6999 216.1 71.1999 218 71.2999C219.9 71.3999 222.2 71.4 225 71.2V84.3999C215 85.4999 208 84.5999 203.9 81.5999C199.8 78.5999 197.8 73.1999 197.8 65.4999V42.0999H188V28.2H197.8V16.7999L212.3 12.3999V28.0999H225V42.0999H224.9Z" fill="#0032A0"/>
<path d="M242.3 21.4001C239.9 21.4001 237.8 20.5001 236.1 18.8001C234.3 17.0001 233.5 15.0001 233.5 12.6001C233.5 10.2001 234.4 8.10011 236.1 6.30011C237.9 4.50011 239.9 3.6001 242.3 3.6001C244.8 3.6001 246.9 4.50011 248.7 6.30011C250.5 8.10011 251.3 10.2001 251.3 12.6001C251.3 15.0001 250.4 17.1001 248.7 18.8001C246.9 20.6001 244.8 21.4001 242.3 21.4001ZM235.1 84.4001V28.2001H249.6V84.4001H235.1Z" fill="#0032A0"/>
<path d="M409.9 51.3C395.5 50.1 381.1 48.9 366.5 47.7C369.2 43.6 371.8 39.6 374.4 35.6C374.3 35.5 374.2 35.5 374.2 35.4C370.3 38 366.3 40.6 362.2 43.3C361 28.7 359.8 14.3 358.5 0C358.4 0 358.3 0 358.2 0C357 14.4 355.8 28.7 354.5 43.3C350.3 40.6 346.4 38 342.4 35.4C342.3 35.5 342.3 35.5 342.2 35.6C344.8 39.6 347.4 43.5 350.1 47.6C335.5 48.8 321 50 306.6 51.3C306.6 51.4 306.6 51.5 306.6 51.6C321 52.8 335.4 54 350.1 55.3C347.4 59.4 344.8 63.4 342.2 67.4C342.3 67.5 342.4 67.5 342.4 67.6C346.4 65 350.3 62.4 354.4 59.7C355.6 74.3 356.8 88.7 358.1 103C358.2 103 358.3 103 358.4 103C359.6 88.6 360.8 74.3 362 59.7C366.2 62.4 370.1 65 374 67.6L374.2 67.4C371.6 63.5 369 59.5 366.3 55.4C380.9 54.2 395.3 53 409.7 51.8V51.3H409.9ZM358.4 56.4C355.6 56.4 353.4 54.2 353.4 51.4C353.4 48.6 355.6 46.4 358.4 46.4C361.2 46.4 363.4 48.6 363.4 51.4C363.4 54.3 361.3 56.4 358.4 56.4Z" fill="#0032A0"/>
<path d="M354.1 81.5002C341.3 80.2002 329.6 68.8002 328.3 55.7002C329.4 55.8002 330.3 55.9001 331.3 55.9001C332.1 55.9001 332.4 56.2002 332.5 57.0002C333.8 63.2002 337 68.2002 341.9 72.1002C345.1 74.7002 348.7 76.4002 352.8 77.2002C353.5 77.4002 353.9 77.6001 353.9 78.4001C353.9 79.5001 354.1 80.5002 354.1 81.5002Z" fill="#3FA9F5"/>
<path d="M354.2 21.2998C354.1 22.4998 354.1 23.6998 353.9 24.6998C353.8 24.9998 353.3 25.3998 352.9 25.4998C347.9 26.5998 343.5 28.9998 339.9 32.5998C336.2 36.2998 333.8 40.5998 332.7 45.6998C332.5 46.5998 332.1 46.8998 331.2 46.8998C330.3 46.8998 329.5 46.9998 328.6 47.0998C328.6 47.0998 328.5 47.0998 328.5 46.9998C329.5 34.5998 340.7 22.7998 354.2 21.2998Z" fill="#3FA9F5"/>
<path d="M388.5 47.1998C387.3 47.0998 386 46.9998 384.8 46.7998C384.6 46.7998 384.3 46.1998 384.2 45.8998C383.1 40.6998 380.6 36.1998 376.8 32.4998C373.2 28.9998 369 26.5998 364 25.5998C363.1 25.3998 362.7 24.9998 362.8 24.0998C362.8 23.1998 362.7 22.2998 362.6 21.2998C375 22.4998 387.1 33.4998 388.5 47.1998Z" fill="#3FA9F5"/>
<path d="M388.6 55.7002C387.8 61.6002 385.5 66.7002 381.7 71.2002C376.7 77.0002 370.4 80.5002 362.7 81.7002C362.8 80.4002 362.8 79.2002 363 78.1002C363.1 77.8002 363.6 77.4002 364 77.3002C369.1 76.2002 373.5 73.7002 377.2 70.0002C380.9 66.3002 383.2 61.9002 384.3 56.8002C384.4 56.1002 384.7 55.9002 385.4 55.8002C386.4 55.9002 387.4 55.8002 388.6 55.7002Z" fill="#3FA9F5"/>
<path d="M362 51.3999C362 53.2999 360.4 54.9999 358.5 54.9999C356.6 54.9999 354.9 53.3999 354.9 51.4999C354.9 50.9999 355 50.4999 355.2 50.0999C355.3 49.8999 355.4 49.6999 355.5 49.4999C356.1 48.5999 357.2 47.8999 358.4 47.8999C359.4 47.8999 360.3 48.2999 360.9 48.8999C361 48.9999 361.1 49.0999 361.1 49.0999C361.7 49.7999 362 50.5999 362 51.3999Z" fill="#3FA9F5"/>
<path d="M315.4 53.8001C313.2 53.6001 311 53.4001 308.9 53.3001L306.7 53.1001C305.9 53.0001 305.3 52.4001 305.3 51.6001C305.3 51.5001 305.3 51.4001 305.3 51.3001C305.3 50.5001 305.9 49.9001 306.7 49.8001C306.7 49.8001 310.3 49.5001 315.4 49.1001C315.3 42.2001 313.3 36.8001 309.4 32.8001C305.4 28.7001 300.3 26.6001 294.2 26.6001C286.6 26.6001 281 29.2001 277.4 34.5001V28.2001H262.9V84.4001H277.4V54.0001C277.4 49.4001 278.5 45.9001 280.8 43.5001C283 41.2001 286 40.0001 289.8 40.0001C293.2 40.0001 295.9 41.0001 297.9 43.0001C299.9 45.0001 300.9 47.9001 300.9 51.6001V84.3001H315.4V53.8001Z" fill="#0032A0"/>
<rect x="430.3" y="2" width="8.75916" height="130" fill="#47ABEE"/>
<path d="M496.774 83.5L493.372 73.294H470.773L467.371 83.5H455.302L475.147 26.8H488.998L508.924 83.5H496.774ZM474.337 62.845H489.889L482.113 39.679L474.337 62.845ZM545.534 83.5L534.113 63.817H525.608V83.5H514.43V26.8H537.11C547.559 26.8 555.983 35.224 555.983 45.592C555.983 52.72 551.528 59.119 545.048 62.116L557.603 83.5H545.534ZM525.608 37.249V54.016H537.11C541.322 54.016 544.805 50.29 544.805 45.592C544.805 40.894 541.322 37.249 537.11 37.249H525.608ZM584.93 84.634C572.537 84.634 563.303 77.182 563.303 64.951V26.8H574.4V64.06C574.4 69.568 577.316 73.699 584.93 73.699C592.544 73.699 595.46 69.568 595.46 64.06V26.8H606.638V64.951C606.638 77.182 597.404 84.634 584.93 84.634ZM650.971 54.097C655.507 56.689 658.423 61.144 658.423 67.057C658.423 76.777 650.566 83.5 640.765 83.5H616.708V26.8H639.064C648.622 26.8 656.317 33.28 656.317 42.757C656.317 47.617 654.292 51.424 650.971 54.097ZM639.064 37.249H627.886V49.723H639.064C642.547 49.723 645.139 47.05 645.139 43.486C645.139 39.922 642.628 37.249 639.064 37.249ZM640.765 73.051C644.572 73.051 647.326 70.216 647.326 66.328C647.326 62.521 644.572 59.686 640.765 59.686H627.886V73.051H640.765ZM702.201 83.5L698.799 73.294H676.2L672.798 83.5H660.729L680.574 26.8H694.425L714.351 83.5H702.201ZM679.764 62.845H695.316L687.54 39.679L679.764 62.845Z" fill="#0032A0"/>
</svg>
