<svg width="830" height="142" viewBox="0 0 830 142" fill="none" xmlns="http://www.w3.org/2000/svg">
<path d="M409.9 59.3C395.5 58.1 381.1 56.9 366.5 55.7C369.2 51.6 371.8 47.6 374.4 43.6C374.3 43.5 374.2 43.5 374.2 43.4C370.3 46 366.3 48.6 362.2 51.3C361 36.7 359.8 22.3 358.5 8C358.4 8 358.3 8 358.2 8C357 22.4 355.8 36.7 354.5 51.3C350.3 48.6 346.4 46 342.4 43.4C342.3 43.5 342.3 43.5 342.2 43.6C344.8 47.6 347.4 51.5 350.1 55.6C335.5 56.8 321 58 306.6 59.3C306.6 59.4 306.6 59.5 306.6 59.6C321 60.8 335.4 62 350.1 63.3C347.4 67.4 344.8 71.4 342.2 75.4C342.3 75.5 342.4 75.5 342.4 75.6C346.4 73 350.3 70.4 354.4 67.7C355.6 82.3 356.8 96.7 358.1 111C358.2 111 358.3 111 358.4 111C359.6 96.6 360.8 82.3 362 67.7C366.2 70.4 370.1 73 374 75.6L374.2 75.4C371.6 71.5 369 67.5 366.3 63.4C380.9 62.2 395.3 61 409.7 59.8V59.3H409.9ZM358.4 64.4C355.6 64.4 353.4 62.2 353.4 59.4C353.4 56.6 355.6 54.4 358.4 54.4C361.2 54.4 363.4 56.6 363.4 59.4C363.4 62.2 361.3 64.4 358.4 64.4Z" fill="white"/>
<path d="M354.1 89.5002C341.3 88.2002 329.6 76.8002 328.3 63.7002C329.4 63.8002 330.3 63.9002 331.3 63.9002C332.1 63.9002 332.4 64.2002 332.5 65.0002C333.8 71.2002 337 76.2002 341.9 80.1002C345.1 82.7002 348.7 84.4002 352.8 85.2002C353.5 85.4002 353.9 85.6002 353.9 86.4002C353.9 87.5002 354.1 88.5002 354.1 89.5002Z" fill="white"/>
<path d="M354.2 29.3003C354.1 30.5003 354.1 31.7003 353.9 32.7003C353.8 33.0003 353.3 33.4003 352.9 33.5003C347.9 34.6003 343.5 37.0003 339.9 40.6003C336.2 44.3003 333.8 48.6003 332.7 53.7003C332.5 54.6003 332.1 54.9003 331.2 54.9003C330.3 54.9003 329.5 55.0003 328.6 55.1003C328.6 55.1003 328.5 55.1003 328.5 55.0003C329.5 42.6003 340.7 30.7003 354.2 29.3003Z" fill="white"/>
<path d="M388.5 55.1002C387.3 55.0002 386 54.9002 384.8 54.7002C384.6 54.7002 384.3 54.1002 384.2 53.8002C383.1 48.6002 380.6 44.1002 376.8 40.4002C373.2 36.9002 369 34.5002 364 33.5002C363.1 33.3002 362.7 32.9002 362.8 32.0002C362.8 31.1002 362.7 30.2002 362.6 29.2002C375 30.5002 387.1 41.5002 388.5 55.1002Z" fill="white"/>
<path d="M388.6 63.7002C387.8 69.6002 385.5 74.7002 381.7 79.2002C376.7 85.0002 370.4 88.5002 362.7 89.7002C362.8 88.4002 362.8 87.2002 363 86.1002C363.1 85.8002 363.6 85.4002 364 85.3002C369.1 84.2002 373.5 81.7002 377.2 78.0002C380.9 74.3002 383.2 69.9002 384.3 64.8002C384.4 64.1002 384.7 63.9002 385.4 63.8002C386.4 63.9002 387.4 63.8002 388.6 63.7002Z" fill="white"/>
<path d="M361.999 59.4004C361.999 61.3004 360.399 63.0004 358.499 63.0004C356.599 63.0004 354.899 61.4004 354.899 59.5004C354.899 59.0004 354.999 58.5004 355.199 58.1004C355.299 57.9004 355.399 57.7004 355.499 57.5004C356.099 56.6004 357.199 55.9004 358.399 55.9004C359.399 55.9004 360.299 56.3004 360.899 56.9004C360.999 57.0004 361.099 57.1004 361.099 57.1004C361.699 57.7004 361.999 58.5004 361.999 59.4004Z" fill="white"/>
<path d="M240.9 101.1H243.8V141.2H240.9V134.5C239.7 136.8 238 138.5 235.9 139.8C233.7 141.1 231.3 141.7 228.6 141.7C224.5 141.7 221 140.3 218.1 137.4C215.2 134.5 213.8 131 213.8 126.8C213.8 122.6 215.2 119.1 218.1 116.2C221 113.3 224.5 111.9 228.6 111.9C231.3 111.9 233.7 112.6 235.9 113.8C238.1 115.1 239.7 116.9 240.9 119.1V101.1ZM220.1 135.6C222.5 138 225.3 139.2 228.7 139.2C232.1 139.2 235 138 237.3 135.6C239.7 133.2 240.8 130.3 240.8 126.9C240.8 123.5 239.6 120.6 237.3 118.2C234.9 115.8 232.1 114.6 228.7 114.6C225.3 114.6 222.4 115.8 220.1 118.2C217.7 120.6 216.6 123.5 216.6 126.9C216.6 130.3 217.8 133.2 220.1 135.6Z" fill="white"/>
<path d="M265.5 112C269.7 112 273.1 113.5 275.7 116.5C278.3 119.5 279.6 123 279.6 127.1C279.6 127.3 279.6 127.5 279.6 127.8C279.6 128.1 279.6 128.3 279.6 128.5H253.6C253.9 131.7 255.2 134.3 257.5 136.3C259.8 138.3 262.5 139.3 265.8 139.3C268.1 139.3 270.1 138.8 271.8 137.9C273.5 136.9 274.8 135.7 275.7 134.1L278.2 135.6C277 137.6 275.3 139.2 273.2 140.3C271 141.5 268.5 142 265.7 142C261.3 142 257.7 140.6 254.9 137.8C252.1 135 250.7 131.4 250.7 127.1C250.7 122.8 252.1 119.3 254.9 116.4C257.6 113.4 261.1 112 265.5 112ZM265.5 114.7C262.3 114.7 259.5 115.7 257.4 117.7C255.3 119.7 254 122.3 253.7 125.6H276.7C276.4 122.2 275.2 119.5 273.1 117.6C270.9 115.7 268.4 114.7 265.5 114.7Z" fill="white"/>
<path d="M286.3 141.3V99.3999H289.2V141.3H286.3Z" fill="white"/>
<path d="M344 112C347.1 112 349.7 113 351.6 114.9C353.5 116.8 354.5 119.6 354.5 123.1V141.3H351.6V123.1C351.6 120.4 350.9 118.4 349.5 116.9C348.1 115.4 346.3 114.7 344 114.7C341.4 114.7 339.4 115.6 337.8 117.3C336.2 119.1 335.4 121.7 335.4 125.2V141.2H332.5V123C332.5 120.3 331.8 118.3 330.5 116.8C329.2 115.3 327.4 114.6 325.1 114.6C322.6 114.6 320.5 115.5 318.8 117.3C317.1 119.1 316.2 121.7 316.2 125.2V141.2H313.3V112.5H316.2V117.4C318.2 113.7 321.3 111.8 325.4 111.8C327.5 111.8 329.3 112.3 330.9 113.3C332.5 114.3 333.6 115.8 334.3 117.6C335.3 115.7 336.6 114.2 338.3 113.2C340.1 112.5 342 112 344 112Z" fill="white"/>
<path d="M375.4 112C379.6 112 383 113.5 385.6 116.5C388.2 119.5 389.5 123 389.5 127.1C389.5 127.3 389.5 127.5 389.5 127.8C389.5 128.1 389.5 128.3 389.5 128.5H363.5C363.8 131.7 365.1 134.3 367.4 136.3C369.7 138.3 372.4 139.3 375.7 139.3C378 139.3 380 138.8 381.7 137.9C383.4 136.9 384.7 135.7 385.6 134.1L388.1 135.6C386.9 137.6 385.2 139.2 383.1 140.3C380.9 141.5 378.4 142 375.6 142C371.2 142 367.6 140.6 364.8 137.8C362 135 360.6 131.4 360.6 127.1C360.6 122.8 362 119.3 364.8 116.4C367.5 113.4 371 112 375.4 112ZM375.4 114.7C372.2 114.7 369.4 115.7 367.3 117.7C365.2 119.7 363.9 122.3 363.6 125.6H386.6C386.3 122.2 385.1 119.5 383 117.6C380.8 115.7 378.3 114.7 375.4 114.7Z" fill="white"/>
<path d="M397.1 120C397.1 121.4 397.7 122.5 398.9 123.3C400.1 124.1 401.5 124.7 403.2 125.2C404.9 125.6 406.6 126.1 408.3 126.5C410 127 411.5 127.8 412.6 129C413.8 130.2 414.4 131.8 414.4 133.8C414.4 136.2 413.5 138.1 411.6 139.6C409.7 141.1 407.2 141.9 404.2 141.9C401.4 141.9 399.1 141.3 397.2 140.2C395.3 139 394 137.5 393.3 135.6L395.8 134.2C396.3 135.8 397.3 137 398.8 137.9C400.3 138.8 402.1 139.2 404.2 139.2C406.3 139.2 408.1 138.7 409.5 137.8C410.9 136.9 411.6 135.5 411.6 133.8C411.6 132.4 411 131.3 409.8 130.4C408.6 129.6 407.2 128.9 405.5 128.5C403.8 128.1 402.1 127.6 400.4 127.1C398.7 126.6 397.2 125.8 396 124.7C394.8 123.6 394.2 122 394.2 120.1C394.2 117.8 395.1 115.9 396.9 114.3C398.7 112.7 401.1 111.9 403.9 111.9C406.2 111.9 408.2 112.4 409.9 113.4C411.6 114.4 412.9 115.8 413.7 117.6L411.3 119C410.7 117.6 409.8 116.5 408.4 115.8C407.1 115.1 405.6 114.7 403.9 114.7C402 114.7 400.3 115.2 399 116.1C397.7 117.1 397.1 118.4 397.1 120Z" fill="white"/>
<path d="M31.3 13.7002C42.1 13.7002 51.1 17.5002 58.4 25.1002C65.6 32.7002 69.3 42.0002 69.3 53.1002C69.3 64.2002 65.7 73.5002 58.4 81.1002C51.2 88.7002 42.1 92.5002 31.3 92.5002H0V13.7002H31.3ZM31.3 77.6002C38.1 77.6002 43.7 75.3002 47.9 70.8002C52.2 66.3002 54.3 60.4002 54.3 53.1002C54.3 45.8002 52.2 39.9002 47.9 35.4002C43.6 30.9002 38.1 28.6002 31.3 28.6002H15.5V77.6002H31.3Z" fill="white"/>
<path d="M91.8002 70.2C93.7002 77.3 99.0002 80.8 107.7 80.8C113.2 80.8 117.4 78.9 120.3 75.2L132 81.9C126.4 89.9 118.3 93.9 107.5 93.9C98.2002 93.9 90.7002 91.1 85.1002 85.5C79.5002 79.9 76.7002 72.8 76.7002 64.2C76.7002 55.7 79.5002 48.7 85.0002 43C90.5002 37.3 97.7002 34.5 106.4 34.5C114.6 34.5 121.5 37.4 126.8 43C132.2 48.7 134.8 55.8 134.8 64.1C134.8 66 134.6 68 134.2 70.1H91.8002V70.2ZM91.6002 59H120.3C119.5 55.2 117.8 52.3 115.2 50.5C112.6 48.6 109.7 47.7 106.4 47.7C102.5 47.7 99.3002 48.7 96.7002 50.7C94.1002 52.6 92.4002 55.4 91.6002 59Z" fill="white"/>
<path d="M156 52.1002C156 53.6002 157 54.8002 159 55.8002C161 56.7002 163.4 57.6002 166.3 58.3002C169.1 59.0002 172 59.9002 174.8 61.0002C177.6 62.1002 180.1 63.9002 182.1 66.5002C184.1 69.1002 185.1 72.2002 185.1 76.1002C185.1 81.9002 182.9 86.3002 178.6 89.4002C174.3 92.5002 168.9 94.1002 162.5 94.1002C151 94.1002 143.1 89.6002 138.9 80.7002L151.5 73.6002C153.1 78.5002 156.8 80.9002 162.5 80.9002C167.7 80.9002 170.3 79.3002 170.3 76.1002C170.3 74.6002 169.3 73.4002 167.3 72.4002C165.3 71.5002 162.9 70.6002 160 69.9002C157.1 69.2002 154.3 68.2002 151.5 67.1002C148.6 66.0002 146.2 64.2002 144.2 61.8002C142.2 59.4002 141.2 56.3002 141.2 52.6002C141.2 47.1002 143.2 42.7002 147.3 39.5002C151.4 36.3002 156.5 34.7002 162.5 34.7002C167.1 34.7002 171.2 35.7002 175 37.8002C178.7 39.9002 181.7 42.8002 183.9 46.6002L171.5 53.3002C169.7 49.5002 166.7 47.6002 162.5 47.6002C160.6 47.6002 159.1 48.0002 157.8 48.8002C156.6 49.6002 156 50.7002 156 52.1002Z" fill="white"/>
<path d="M224.9 50.0999H212.2V73.4999C212.2 75.4999 212.7 76.8999 213.7 77.7999C214.7 78.6999 216.1 79.1999 218 79.2999C219.9 79.3999 222.2 79.3999 225 79.1999V92.3999C215 93.4999 208 92.5999 203.9 89.5999C199.8 86.5999 197.8 81.1999 197.8 73.4999V50.0999H188V36.1999H197.8V24.7999L212.3 20.3999V36.0999H225V50.0999H224.9Z" fill="white"/>
<path d="M242.3 29.4001C239.9 29.4001 237.8 28.5001 236.1 26.8001C234.3 25.0001 233.5 23.0001 233.5 20.6001C233.5 18.2001 234.4 16.1001 236.1 14.3001C237.9 12.5001 239.9 11.6001 242.3 11.6001C244.8 11.6001 246.9 12.5001 248.7 14.3001C250.5 16.1001 251.3 18.2001 251.3 20.6001C251.3 23.0001 250.4 25.1001 248.7 26.8001C246.9 28.5001 244.8 29.4001 242.3 29.4001ZM235.1 92.4001V36.2001H249.6V92.4001H235.1Z" fill="white"/>
<path d="M315.4 61.7C313.2 61.5 311 61.3 308.9 61.2L306.7 61C305.9 60.9 305.3 60.3 305.3 59.5C305.3 59.4 305.3 59.3 305.3 59.2C305.3 58.4 305.9 57.8 306.7 57.7C306.7 57.7 310.3 57.4 315.4 57C315.3 50.1 313.3 44.7 309.4 40.7C305.4 36.6 300.3 34.5 294.2 34.5C286.6 34.5 281 37.1 277.4 42.4V36.1H262.9V92.3H277.4V62C277.4 57.4 278.5 53.9 280.8 51.5C283 49.2 286 48 289.8 48C293.2 48 295.9 49 297.9 51C299.9 53 300.9 55.9 300.9 59.6V92.3H315.4V61.7Z" fill="white"/>
<rect x="430.4" y="10" width="8.75916" height="130" fill="white"/>
<path d="M479.783 74.134C468.2 74.134 460.586 68.545 457.508 60.121L467.066 54.532C469.091 59.797 473.06 63.199 480.107 63.199C486.83 63.199 489.179 60.364 489.179 57.205C489.179 52.993 485.372 51.373 476.948 48.943C468.281 46.432 459.857 42.787 459.857 32.014C459.857 21.322 468.767 15.166 478.487 15.166C487.802 15.166 494.93 19.945 498.737 27.883L489.341 33.31C487.316 29.017 484.238 26.02 478.487 26.02C473.789 26.02 471.035 28.45 471.035 31.69C471.035 35.173 473.222 37.036 481.808 39.628C490.799 42.463 500.357 45.46 500.357 57.043C500.357 67.654 491.852 74.134 479.783 74.134ZM543.228 73L539.826 62.794H517.227L513.825 73H501.756L521.601 16.3H535.452L555.378 73H543.228ZM520.791 52.345H536.343L528.567 29.179L520.791 52.345ZM593.688 16.3H604.866V73H596.361L572.061 38.332V73H560.883V16.3H569.388L593.688 50.887V16.3ZM651.753 74.134C643.086 74.134 636.525 70.408 633.042 63.361L642.681 57.853C644.463 61.417 647.055 63.199 651.753 63.199C657.909 63.199 660.582 59.959 660.582 55.342V16.3H671.679V55.342C671.679 67.573 662.931 74.134 651.753 74.134ZM708.561 74.134C692.199 74.134 679.158 61.174 679.158 44.65C679.158 28.045 692.199 15.166 708.561 15.166C724.923 15.166 738.045 28.045 738.045 44.65C738.045 61.174 724.923 74.134 708.561 74.134ZM708.561 63.199C718.848 63.199 726.867 55.504 726.867 44.65C726.867 33.715 718.848 26.02 708.561 26.02C698.274 26.02 690.255 33.715 690.255 44.65C690.255 55.504 698.274 63.199 708.561 63.199ZM763.204 74.134C751.621 74.134 744.007 68.545 740.929 60.121L750.487 54.532C752.512 59.797 756.481 63.199 763.528 63.199C770.251 63.199 772.6 60.364 772.6 57.205C772.6 52.993 768.793 51.373 760.369 48.943C751.702 46.432 743.278 42.787 743.278 32.014C743.278 21.322 752.188 15.166 761.908 15.166C771.223 15.166 778.351 19.945 782.158 27.883L772.762 33.31C770.737 29.017 767.659 26.02 761.908 26.02C757.21 26.02 754.456 28.45 754.456 31.69C754.456 35.173 756.643 37.036 765.229 39.628C774.22 42.463 783.778 45.46 783.778 57.043C783.778 67.654 775.273 74.134 763.204 74.134ZM820.562 0.0999971L811.571 11.197H801.527L808.007 0.0999971H820.562ZM801.851 62.308H825.746V73H790.673V16.3H825.341V26.992H801.851V39.061H823.316V49.591H801.851V62.308Z" fill="white"/>
<path d="M480.823 134.832C467.191 134.832 457.399 124.592 457.399 111.6C457.399 98.608 467.191 88.368 480.823 88.368C489.015 88.368 496.311 92.528 500.087 99.056L493.687 102.768C491.319 98.352 486.455 95.536 480.823 95.536C471.159 95.536 464.759 102.384 464.759 111.6C464.759 120.816 471.159 127.664 480.823 127.664C486.455 127.664 491.383 124.848 493.687 120.432L500.087 124.08C496.375 130.608 489.079 134.832 480.823 134.832ZM526.881 134.832C513.953 134.832 503.649 124.592 503.649 111.6C503.649 98.608 513.953 88.368 526.881 88.368C539.873 88.368 550.113 98.608 550.113 111.6C550.113 124.592 539.873 134.832 526.881 134.832ZM526.881 127.664C535.841 127.664 542.753 120.816 542.753 111.6C542.753 102.384 535.841 95.536 526.881 95.536C517.921 95.536 511.009 102.384 511.009 111.6C511.009 120.816 517.921 127.664 526.881 127.664ZM570.051 134.832C561.219 134.832 555.139 130.48 552.771 123.824L559.107 120.112C560.707 124.656 564.163 127.664 570.243 127.664C576.067 127.664 578.563 125.04 578.563 121.776C578.563 117.808 575.043 116.464 568.387 114.416C561.411 112.304 554.627 109.744 554.627 101.296C554.627 93.04 561.475 88.368 569.027 88.368C576.387 88.368 581.827 92.272 584.643 98.224L578.435 101.808C576.835 98.224 574.019 95.536 569.027 95.536C564.739 95.536 561.987 97.712 561.987 101.104C561.987 104.56 564.483 106.032 571.011 108.08C578.435 110.448 585.923 112.752 585.923 121.648C585.923 129.84 579.395 134.832 570.051 134.832ZM619.759 89.2V96.24H607.151V134H599.791V96.24H587.119V89.2H619.759ZM651.198 134L648.062 124.976H628.99L625.854 134H617.854L634.11 89.2H642.942L659.134 134H651.198ZM631.422 118.064H645.63L638.526 97.84L631.422 118.064ZM705.488 134L696.016 117.68H687.312V134H679.952V89.2H697.872C705.872 89.2 712.272 95.6 712.272 103.6C712.272 109.36 708.624 114.48 703.376 116.592L713.552 134H705.488ZM687.312 96.112V111.088H697.872C701.776 111.088 704.912 107.76 704.912 103.6C704.912 99.376 701.776 96.112 697.872 96.112H687.312ZM719.202 89.2H726.562V134H719.202V89.2ZM756.698 134.832C743.066 134.832 733.274 124.592 733.274 111.6C733.274 98.608 743.066 88.368 756.698 88.368C764.89 88.368 772.186 92.528 775.962 99.056L769.562 102.768C767.194 98.352 762.33 95.536 756.698 95.536C747.034 95.536 740.634 102.384 740.634 111.6C740.634 120.816 747.034 127.664 756.698 127.664C762.33 127.664 767.258 124.848 769.562 120.432L775.962 124.08C772.25 130.608 764.954 134.832 756.698 134.832ZM810.948 134L807.812 124.976H788.74L785.604 134H777.604L793.86 89.2H802.692L818.884 134H810.948ZM791.172 118.064H805.38L798.276 97.84L791.172 118.064Z" fill="white"/>
</svg>
