<svg width="1014" height="142" viewBox="0 0 1014 142" fill="none" xmlns="http://www.w3.org/2000/svg">
<path d="M279.1 141.9C274.9 141.9 271.3 140.5 268.4 137.6C265.5 134.7 264 131.2 264 127C264 122.8 265.5 119.3 268.4 116.4C271.3 113.5 274.9 112.1 279.1 112.1C283.3 112.1 286.8 113.5 289.7 116.4C292.6 119.3 294.1 122.8 294.1 127C294.1 131.2 292.6 134.7 289.7 137.6C286.8 140.5 283.3 141.9 279.1 141.9ZM270.5 135.6C272.9 138 275.7 139.2 279.1 139.2C282.5 139.2 285.4 138 287.7 135.6C290 133.2 291.2 130.3 291.2 126.9C291.2 123.5 290 120.6 287.7 118.2C285.4 115.8 282.5 114.6 279.1 114.6C275.7 114.6 272.8 115.8 270.5 118.2C268.1 120.6 267 123.5 267 126.9C267 130.3 268.1 133.2 270.5 135.6Z" fill="#0032A0"/>
<path d="M313.4 103.3C307.7 102.8 304.9 105.4 304.9 111.1V112.6H313.4V115.4H304.9V141.3H302V115.4H297V112.6H301.9V111.1C301.9 107.5 302.9 104.8 304.9 102.9C306.9 101 309.7 100.3 313.4 100.5V103.3Z" fill="#0032A0"/>
<path d="M347.8 115.4H339.3V134.1C339.3 135.7 339.6 136.9 340.2 137.7C340.8 138.4 341.7 138.8 343 138.9C344.3 139 345.9 138.9 347.8 138.8V141.4C343.9 142 341.1 141.7 339.2 140.6C337.3 139.5 336.4 137.4 336.4 134.2V115.6H330V112.8H336.3V105.6L339.2 104.7V112.7H347.7V115.4H347.8Z" fill="#0032A0"/>
<path d="M367.8 112C371.2 112 373.9 113 375.9 115.1C377.9 117.2 378.9 120 378.9 123.4V141.2H376V123.4C376 120.7 375.3 118.6 373.8 117C372.3 115.4 370.3 114.6 367.6 114.6C364.7 114.6 362.2 115.6 360.4 117.5C358.5 119.4 357.6 122.3 357.6 126V141.1H354.7V101H357.6V118.1C359.6 114 363 112 367.8 112Z" fill="#0032A0"/>
<path d="M399.9 112C404.1 112 407.5 113.5 410.1 116.5C412.7 119.5 414 123 414 127.1C414 127.3 414 127.5 414 127.8C414 128.1 414 128.3 414 128.5H388C388.3 131.7 389.6 134.3 391.9 136.3C394.1 138.3 396.9 139.3 400.2 139.3C402.5 139.3 404.5 138.8 406.2 137.9C407.9 136.9 409.2 135.7 410.1 134.1L412.6 135.6C411.4 137.6 409.7 139.2 407.6 140.3C405.4 141.5 402.9 142 400.1 142C395.7 142 392.1 140.6 389.3 137.8C386.5 135 385.1 131.4 385.1 127.1C385.1 122.8 386.5 119.3 389.3 116.4C392 113.4 395.5 112 399.9 112ZM399.9 114.8C396.7 114.8 393.9 115.8 391.8 117.8C389.7 119.8 388.4 122.4 388.1 125.7H411.1C410.8 122.3 409.6 119.6 407.5 117.7C405.3 115.7 402.8 114.8 399.9 114.8Z" fill="#0032A0"/>
<path d="M466.7 112C469.8 112 472.4 113 474.3 114.9C476.2 116.8 477.2 119.6 477.2 123.1V141.3H474.3V123.1C474.3 120.4 473.6 118.4 472.2 116.9C470.8 115.4 469 114.7 466.7 114.7C464.1 114.7 462.1 115.6 460.5 117.3C458.9 119 458.1 121.7 458.1 125.2V141.2H455.2V123.1C455.2 120.4 454.5 118.4 453.2 116.9C451.9 115.4 450.1 114.7 447.8 114.7C445.3 114.7 443.2 115.6 441.5 117.4C439.8 119.2 438.9 121.8 438.9 125.3V141.3H436V112.6H438.9V117.5C440.9 113.8 444 111.9 448.1 111.9C450.2 111.9 452 112.4 453.6 113.4C455.2 114.4 456.3 115.9 457 117.7C458 115.8 459.3 114.3 461 113.3C462.7 112.3 464.7 112 466.7 112Z" fill="#0032A0"/>
<path d="M498.3 141.9C494.1 141.9 490.5 140.5 487.6 137.6C484.7 134.7 483.2 131.2 483.2 127C483.2 122.8 484.7 119.3 487.6 116.4C490.5 113.5 494.1 112.1 498.3 112.1C502.5 112.1 506 113.5 508.9 116.4C511.8 119.3 513.3 122.8 513.3 127C513.3 131.2 511.8 134.7 508.9 137.6C506 140.5 502.5 141.9 498.3 141.9ZM489.7 135.6C492 138 494.9 139.2 498.3 139.2C501.7 139.2 504.6 138 506.9 135.6C509.2 133.2 510.4 130.3 510.4 126.9C510.4 123.5 509.2 120.6 506.9 118.2C504.6 115.8 501.7 114.6 498.3 114.6C494.9 114.6 492 115.8 489.7 118.2C487.3 120.6 486.2 123.5 486.2 126.9C486.2 130.3 487.3 133.2 489.7 135.6Z" fill="#0032A0"/>
<path d="M533.4 112C536.8 112 539.5 113 541.5 115.1C543.5 117.2 544.5 120 544.5 123.4V141.2H541.6V123.4C541.6 120.7 540.9 118.6 539.4 117C537.9 115.4 535.9 114.6 533.2 114.6C530.3 114.6 527.8 115.6 526 117.5C524.1 119.4 523.2 122.3 523.2 126V141.1H520.3V112.4H523.2V117.8C525.2 114 528.6 112 533.4 112Z" fill="#0032A0"/>
<path d="M567.2 115.4H558.7V134.1C558.7 135.7 559 136.9 559.6 137.7C560.2 138.4 561.1 138.8 562.4 138.9C563.7 139 565.3 138.9 567.2 138.8V141.4C563.3 142 560.5 141.7 558.6 140.6C556.7 139.5 555.8 137.4 555.8 134.2V115.6H549.5V112.8H555.8V105.6L558.7 104.7V112.7H567.2V115.4Z" fill="#0032A0"/>
<path d="M587.2 112C590.6 112 593.3 113 595.3 115.1C597.3 117.2 598.3 120 598.3 123.4V141.2H595.4V123.4C595.4 120.7 594.7 118.6 593.2 117C591.7 115.4 589.7 114.6 587 114.6C584.1 114.6 581.6 115.6 579.8 117.5C577.9 119.4 577 122.3 577 126V141.1H574.1V101H577V118.1C579 114 582.5 112 587.2 112Z" fill="#0032A0"/>
<path d="M69.2 53.1002C69.2 75.3002 53 92.5002 31.3 92.5002H0V13.7002H31.3C53 13.7002 69.2 30.9002 69.2 53.1002ZM54.3 53.1002C54.3 38.6002 44.8 28.6002 31.2 28.6002H15.5V77.7002H31.3C44.9 77.6002 54.3 67.6002 54.3 53.1002Z" fill="#0032A0"/>
<path d="M107.7 80.9002C113.3 80.9002 117.8 78.5002 120.3 75.3002L132 82.1002C126.7 89.8002 118.3 94.1002 107.5 94.1002C88.6002 94.1002 76.7002 81.2002 76.7002 64.4002C76.7002 47.6002 88.7002 34.7002 106.4 34.7002C123.1 34.7002 134.9 47.9002 134.9 64.4002C134.9 66.5002 134.7 68.5002 134.3 70.4002H91.8002C93.8002 77.7002 100 80.9002 107.7 80.9002ZM120.3 59.0002C118.5 50.9002 112.4 47.6002 106.3 47.6002C98.5002 47.6002 93.2002 51.8002 91.6002 59.0002H120.3Z" fill="#0032A0"/>
<path d="M185.1 76.0001C185.1 88.2001 174.5 94.0001 162.5 94.0001C151.2 94.0001 142.9 89.3001 138.9 80.6001L151.5 73.5001C153.1 78.1001 156.9 80.8001 162.5 80.8001C167.1 80.8001 170.3 79.2001 170.3 76.0001C170.3 67.8001 141.3 72.3001 141.3 52.5001C141.3 41.0001 151.1 34.6001 162.7 34.6001C171.8 34.6001 179.7 38.8001 184.1 46.5001L171.7 53.3001C170 49.7001 166.9 47.6001 162.7 47.6001C159.1 47.6001 156.2 49.2001 156.2 52.2001C156.1 60.5001 185.1 55.3001 185.1 76.0001Z" fill="#0032A0"/>
<path d="M212.2 50.0998V73.4998C212.2 79.5998 216.6 79.6998 224.9 79.1998V92.3998C204.5 94.6998 197.7 88.6998 197.7 73.4998V50.0998H187.9V36.0998H197.7V24.6998L212.2 20.2998V36.0998H224.9V50.0998H212.2Z" fill="#0032A0"/>
<path d="M233.5 20.5C233.5 15.7 237.6 11.5 242.4 11.5C247.4 11.5 251.4 15.7 251.4 20.5C251.4 25.3 247.3 29.4 242.4 29.4C237.5 29.4 233.5 25.4 233.5 20.5ZM235.2 36.2H249.7V92.5H235.2V36.2Z" fill="#0032A0"/>
<path d="M315.5 57.9001V92.4001H301V59.7001C301 52.0001 296.4 48.1001 289.9 48.1001C282.8 48.1001 277.5 52.3001 277.5 62.1001V92.5001H263V36.2001H277.5V42.5001C280.9 37.4001 286.7 34.6001 294.3 34.6001C306.2 34.6001 315.5 42.9001 315.5 57.9001Z" fill="#0032A0"/>
<path d="M385.2 36.2002V92.5002H370.7V85.9002C366.6 91.0002 360.6 94.1002 352.4 94.1002C337.4 94.1002 325.1 81.2002 325.1 64.4002C325.1 47.6002 337.5 34.7002 352.4 34.7002C360.6 34.7002 366.7 37.9002 370.7 42.9002V36.3002H385.2V36.2002ZM370.7 64.3002C370.7 54.8002 364.1 48.4002 355.1 48.4002C346.2 48.4002 339.6 54.8002 339.6 64.3002C339.6 73.8002 346.2 80.2002 355.1 80.2002C364 80.2002 370.7 73.8002 370.7 64.3002Z" fill="#0032A0"/>
<path d="M417.8 50.0998V73.4998C417.8 79.5998 422.2 79.6998 430.5 79.1998V92.3998C410.1 94.6998 403.3 88.6998 403.3 73.4998V50.0998H393.5V36.0998H403.3V24.6998L417.8 20.2998V36.0998H430.5V50.0998H417.8Z" fill="#0032A0"/>
<path d="M549.8 59.3C535.4 58.1 521 56.9 506.4 55.7C509.1 51.6 511.7 47.6 514.3 43.6C514.2 43.5 514.1 43.5 514.1 43.4C510.2 46 506.2 48.6 502.1 51.3C500.9 36.7 499.7 22.3 498.4 8C498.3 8 498.2 8 498.1 8C496.9 22.4 495.7 36.7 494.4 51.3C490.2 48.6 486.3 46 482.3 43.4C482.2 43.5 482.2 43.5 482.1 43.6C484.7 47.6 487.3 51.5 490 55.6C475.4 56.8 460.9 58 446.5 59.3C446.5 59.4 446.5 59.5 446.5 59.6C460.9 60.8 475.3 62 490 63.3C487.3 67.4 484.7 71.4 482.1 75.4C482.2 75.5 482.3 75.5 482.3 75.6C486.3 73 490.2 70.4 494.3 67.7C495.5 82.3 496.7 96.7 498 111C498.1 111 498.2 111 498.3 111C499.5 96.6 500.7 82.3 501.9 67.7C506.1 70.4 510 73 513.9 75.6L514.1 75.4C511.5 71.5 508.9 67.5 506.2 63.4C520.8 62.2 535.2 61 549.6 59.8V59.3H549.8ZM498.2 64.4C495.4 64.4 493.2 62.2 493.2 59.4C493.2 56.6 495.4 54.4 498.2 54.4C501 54.4 503.2 56.6 503.2 59.4C503.3 62.2 501.1 64.4 498.2 64.4Z" fill="#0032A0"/>
<path d="M494 89.5002C481.2 88.2002 469.5 76.8002 468.2 63.7002C469.3 63.8002 470.2 63.9002 471.2 63.9002C472 63.9002 472.3 64.2002 472.4 65.0002C473.7 71.2002 476.9 76.2002 481.8 80.1002C485 82.7002 488.6 84.4002 492.7 85.2002C493.4 85.4002 493.8 85.6002 493.8 86.4002C493.8 87.5002 493.9 88.5002 494 89.5002Z" fill="#3FA9F5"/>
<path d="M494 29.2998C493.9 30.4998 493.9 31.6998 493.7 32.6998C493.6 32.9998 493.1 33.3998 492.7 33.4998C487.7 34.5998 483.3 36.9998 479.7 40.5998C476 44.2998 473.6 48.5998 472.5 53.6998C472.3 54.5998 471.9 54.8998 471 54.8998C470.1 54.8998 469.3 54.9998 468.4 55.0998C468.4 55.0998 468.3 55.0998 468.3 54.9998C469.4 42.5998 480.6 30.7998 494 29.2998Z" fill="#3FA9F5"/>
<path d="M528.4 55.1002C527.2 55.0002 525.9 54.9002 524.7 54.7002C524.5 54.7002 524.2 54.1002 524.1 53.8002C523 48.6002 520.5 44.1002 516.7 40.4002C513.1 36.9002 508.9 34.5002 503.9 33.5002C503 33.3002 502.6 32.9002 502.7 32.0002C502.7 31.1002 502.6 30.2002 502.5 29.2002C514.9 30.5002 526.9 41.5002 528.4 55.1002Z" fill="#3FA9F5"/>
<path d="M528.5 63.7002C527.7 69.6002 525.4 74.7002 521.6 79.2002C516.6 85.0002 510.3 88.5002 502.6 89.7002C502.7 88.4002 502.7 87.2002 502.9 86.1002C503 85.8002 503.5 85.4002 503.9 85.3002C509 84.2002 513.4 81.7002 517.1 78.0002C520.8 74.3002 523.1 69.9002 524.2 64.8002C524.3 64.1002 524.6 63.9002 525.3 63.8002C526.3 63.9002 527.3 63.8002 528.5 63.7002Z" fill="#3FA9F5"/>
<path d="M501.9 59.3999C501.9 61.2999 500.3 62.9999 498.4 62.9999C496.5 62.9999 494.8 61.3999 494.8 59.4999C494.8 58.9999 494.9 58.4999 495.1 58.0999C495.2 57.8999 495.3 57.6999 495.4 57.4999C496 56.5999 497.1 55.8999 498.3 55.8999C499.3 55.8999 500.2 56.2999 500.8 56.8999C500.9 56.9999 501 57.0999 501 57.0999C501.5 57.6999 501.8 58.4999 501.9 59.3999Z" fill="#3FA9F5"/>
<path d="M572.7 34.6001C565.2 34.6001 559.3 37.4001 555.9 42.5001V36.2001H541.4V57.1001C544.2 57.3001 547 57.6001 549.8 57.8001C550.6 57.9001 551.2 58.5001 551.2 59.3001V59.6001C551.2 60.4001 550.6 61.0001 549.8 61.1001L541.4 61.8001V92.5001H556V62.1001C556 52.3001 561.3 48.1001 568.4 48.1001C574.9 48.1001 579.5 52.0001 579.5 59.7001V92.4001H594V57.9001C594 42.9001 584.7 34.6001 572.7 34.6001Z" fill="#0032A0"/>
<path d="M448 29.4C453 29.4 457 25.3 457 20.5C457 15.7 452.9 11.5 448 11.5C443.2 11.5 439.1 15.7 439.1 20.5C439.1 25.3 443.1 29.4 448 29.4Z" fill="#0032A0"/>
<path d="M448.7 61.2001L446.5 61.0001C445.7 60.9001 445.1 60.3001 445.1 59.5001C445.1 59.4001 445.1 59.3001 445.1 59.2001C445.1 58.4001 445.7 57.8001 446.5 57.7001C446.5 57.7001 450.1 57.4001 455.2 57.0001V36.1001H440.7V92.4001H455.2V61.7001C453.1 61.6001 450.9 61.4001 448.7 61.2001Z" fill="#0032A0"/>
<rect x="614.3" y="10" width="8.75916" height="130" fill="#47ABEE"/>
<path d="M663.684 74.134C652.101 74.134 644.487 68.545 641.409 60.121L650.967 54.532C652.992 59.797 656.961 63.199 664.008 63.199C670.731 63.199 673.08 60.364 673.08 57.205C673.08 52.993 669.273 51.373 660.849 48.943C652.182 46.432 643.758 42.787 643.758 32.014C643.758 21.322 652.668 15.166 662.388 15.166C671.703 15.166 678.831 19.945 682.638 27.883L673.242 33.31C671.217 29.017 668.139 26.02 662.388 26.02C657.69 26.02 654.936 28.45 654.936 31.69C654.936 35.173 657.123 37.036 665.709 39.628C674.7 42.463 684.258 45.46 684.258 57.043C684.258 67.654 675.753 74.134 663.684 74.134ZM727.128 73L723.726 62.794H701.127L697.725 73H685.656L705.501 16.3H719.352L739.278 73H727.128ZM704.691 52.345H720.243L712.467 29.179L704.691 52.345ZM777.589 16.3H788.767V73H780.262L755.962 38.332V73H744.784V16.3H753.289L777.589 50.887V16.3ZM835.654 74.134C826.987 74.134 820.426 70.408 816.943 63.361L826.582 57.853C828.364 61.417 830.956 63.199 835.654 63.199C841.81 63.199 844.483 59.959 844.483 55.342V16.3H855.58V55.342C855.58 67.573 846.832 74.134 835.654 74.134ZM892.462 74.134C876.1 74.134 863.059 61.174 863.059 44.65C863.059 28.045 876.1 15.166 892.462 15.166C908.824 15.166 921.946 28.045 921.946 44.65C921.946 61.174 908.824 74.134 892.462 74.134ZM892.462 63.199C902.749 63.199 910.768 55.504 910.768 44.65C910.768 33.715 902.749 26.02 892.462 26.02C882.175 26.02 874.156 33.715 874.156 44.65C874.156 55.504 882.175 63.199 892.462 63.199ZM947.104 74.134C935.521 74.134 927.907 68.545 924.829 60.121L934.387 54.532C936.412 59.797 940.381 63.199 947.428 63.199C954.151 63.199 956.5 60.364 956.5 57.205C956.5 52.993 952.693 51.373 944.269 48.943C935.602 46.432 927.178 42.787 927.178 32.014C927.178 21.322 936.088 15.166 945.808 15.166C955.123 15.166 962.251 19.945 966.058 27.883L956.662 33.31C954.637 29.017 951.559 26.02 945.808 26.02C941.11 26.02 938.356 28.45 938.356 31.69C938.356 35.173 940.543 37.036 949.129 39.628C958.12 42.463 967.678 45.46 967.678 57.043C967.678 67.654 959.173 74.134 947.104 74.134ZM1004.46 0.0999971L995.472 11.197H985.428L991.908 0.0999971H1004.46ZM985.752 62.308H1009.65V73H974.574V16.3H1009.24V26.992H985.752V39.061H1007.22V49.591H985.752V62.308Z" fill="#0032A0"/>
<path d="M664.724 134.832C651.092 134.832 641.3 124.592 641.3 111.6C641.3 98.608 651.092 88.368 664.724 88.368C672.916 88.368 680.212 92.528 683.988 99.056L677.588 102.768C675.22 98.352 670.356 95.536 664.724 95.536C655.06 95.536 648.66 102.384 648.66 111.6C648.66 120.816 655.06 127.664 664.724 127.664C670.356 127.664 675.284 124.848 677.588 120.432L683.988 124.08C680.276 130.608 672.98 134.832 664.724 134.832ZM710.782 134.832C697.854 134.832 687.55 124.592 687.55 111.6C687.55 98.608 697.854 88.368 710.782 88.368C723.774 88.368 734.014 98.608 734.014 111.6C734.014 124.592 723.774 134.832 710.782 134.832ZM710.782 127.664C719.742 127.664 726.654 120.816 726.654 111.6C726.654 102.384 719.742 95.536 710.782 95.536C701.822 95.536 694.91 102.384 694.91 111.6C694.91 120.816 701.822 127.664 710.782 127.664ZM753.952 134.832C745.12 134.832 739.04 130.48 736.672 123.824L743.008 120.112C744.608 124.656 748.064 127.664 754.144 127.664C759.968 127.664 762.464 125.04 762.464 121.776C762.464 117.808 758.944 116.464 752.288 114.416C745.312 112.304 738.528 109.744 738.528 101.296C738.528 93.04 745.376 88.368 752.928 88.368C760.288 88.368 765.728 92.272 768.544 98.224L762.336 101.808C760.736 98.224 757.92 95.536 752.928 95.536C748.64 95.536 745.888 97.712 745.888 101.104C745.888 104.56 748.384 106.032 754.912 108.08C762.336 110.448 769.824 112.752 769.824 121.648C769.824 129.84 763.296 134.832 753.952 134.832ZM803.66 89.2V96.24H791.052V134H783.692V96.24H771.02V89.2H803.66ZM835.099 134L831.963 124.976H812.891L809.755 134H801.755L818.011 89.2H826.843L843.035 134H835.099ZM815.323 118.064H829.531L822.427 97.84L815.323 118.064ZM889.388 134L879.916 117.68H871.212V134H863.852V89.2H881.772C889.772 89.2 896.172 95.6 896.172 103.6C896.172 109.36 892.524 114.48 887.276 116.592L897.452 134H889.388ZM871.212 96.112V111.088H881.772C885.676 111.088 888.812 107.76 888.812 103.6C888.812 99.376 885.676 96.112 881.772 96.112H871.212ZM903.102 89.2H910.462V134H903.102V89.2ZM940.599 134.832C926.967 134.832 917.175 124.592 917.175 111.6C917.175 98.608 926.967 88.368 940.599 88.368C948.791 88.368 956.087 92.528 959.863 99.056L953.463 102.768C951.095 98.352 946.231 95.536 940.599 95.536C930.935 95.536 924.535 102.384 924.535 111.6C924.535 120.816 930.935 127.664 940.599 127.664C946.231 127.664 951.159 124.848 953.463 120.432L959.863 124.08C956.151 130.608 948.855 134.832 940.599 134.832ZM994.849 134L991.713 124.976H972.641L969.505 134H961.505L977.761 89.2H986.593L1002.78 134H994.849ZM975.073 118.064H989.281L982.177 97.84L975.073 118.064Z" fill="#47ABEE"/>
</svg>
