<svg width="1014" height="135" viewBox="0 0 1014 135" fill="none" xmlns="http://www.w3.org/2000/svg">
<path d="M279.1 133.9C274.9 133.9 271.3 132.5 268.4 129.6C265.5 126.7 264 123.2 264 119C264 114.8 265.5 111.3 268.4 108.4C271.3 105.5 274.9 104.1 279.1 104.1C283.3 104.1 286.8 105.5 289.7 108.4C292.6 111.3 294.1 114.8 294.1 119C294.1 123.2 292.6 126.7 289.7 129.6C286.8 132.5 283.3 133.9 279.1 133.9ZM270.5 127.6C272.9 130 275.7 131.2 279.1 131.2C282.5 131.2 285.4 130 287.7 127.6C290 125.2 291.2 122.3 291.2 118.9C291.2 115.5 290 112.6 287.7 110.2C285.4 107.8 282.5 106.6 279.1 106.6C275.7 106.6 272.8 107.8 270.5 110.2C268.1 112.6 267 115.5 267 118.9C267 122.3 268.1 125.2 270.5 127.6Z" fill="white"/>
<path d="M313.4 95.3002C307.7 94.8002 304.9 97.4002 304.9 103.1V104.6H313.4V107.4H304.9V133.3H302V107.4H297V104.6H301.9V103.1C301.9 99.5002 302.9 96.8002 304.9 94.9002C306.9 93.0002 309.7 92.3002 313.4 92.5002V95.3002Z" fill="white"/>
<path d="M347.8 107.4H339.3V126.1C339.3 127.7 339.6 128.9 340.2 129.7C340.8 130.4 341.7 130.8 343 130.9C344.3 131 345.9 130.9 347.8 130.8V133.4C343.9 134 341.1 133.7 339.2 132.6C337.3 131.5 336.4 129.4 336.4 126.2V107.6H330V104.8H336.3V97.6002L339.2 96.7002V104.7H347.7V107.4H347.8Z" fill="white"/>
<path d="M367.8 104C371.2 104 373.9 105 375.9 107.1C377.9 109.2 378.9 112 378.9 115.4V133.2H376V115.4C376 112.7 375.3 110.6 373.8 109C372.3 107.4 370.3 106.6 367.6 106.6C364.7 106.6 362.2 107.6 360.4 109.5C358.5 111.4 357.6 114.3 357.6 118V133.1H354.7V93H357.6V110.1C359.6 106 363 104 367.8 104Z" fill="white"/>
<path d="M399.9 104C404.1 104 407.5 105.5 410.1 108.5C412.7 111.5 414 115 414 119.1C414 119.3 414 119.5 414 119.8C414 120.1 414 120.3 414 120.5H388C388.3 123.7 389.6 126.3 391.9 128.3C394.1 130.3 396.9 131.3 400.2 131.3C402.5 131.3 404.5 130.8 406.2 129.9C407.9 128.9 409.2 127.7 410.1 126.1L412.6 127.6C411.4 129.6 409.7 131.2 407.6 132.3C405.4 133.5 402.9 134 400.1 134C395.7 134 392.1 132.6 389.3 129.8C386.5 127 385.1 123.4 385.1 119.1C385.1 114.8 386.5 111.3 389.3 108.4C392 105.4 395.5 104 399.9 104ZM399.9 106.8C396.7 106.8 393.9 107.8 391.8 109.8C389.7 111.8 388.4 114.4 388.1 117.7H411.1C410.8 114.3 409.6 111.6 407.5 109.7C405.3 107.7 402.8 106.8 399.9 106.8Z" fill="white"/>
<path d="M466.7 104C469.8 104 472.4 105 474.3 106.9C476.2 108.8 477.2 111.6 477.2 115.1V133.3H474.3V115.1C474.3 112.4 473.6 110.4 472.2 108.9C470.8 107.4 469 106.7 466.7 106.7C464.1 106.7 462.1 107.6 460.5 109.3C458.9 111 458.1 113.7 458.1 117.2V133.2H455.2V115.1C455.2 112.4 454.5 110.4 453.2 108.9C451.9 107.4 450.1 106.7 447.8 106.7C445.3 106.7 443.2 107.6 441.5 109.4C439.8 111.2 438.9 113.8 438.9 117.3V133.3H436V104.6H438.9V109.5C440.9 105.8 444 103.9 448.1 103.9C450.2 103.9 452 104.4 453.6 105.4C455.2 106.4 456.3 107.9 457 109.7C458 107.8 459.3 106.3 461 105.3C462.7 104.3 464.7 104 466.7 104Z" fill="white"/>
<path d="M498.3 133.9C494.1 133.9 490.5 132.5 487.6 129.6C484.7 126.7 483.2 123.2 483.2 119C483.2 114.8 484.7 111.3 487.6 108.4C490.5 105.5 494.1 104.1 498.3 104.1C502.5 104.1 506 105.5 508.9 108.4C511.8 111.3 513.3 114.8 513.3 119C513.3 123.2 511.8 126.7 508.9 129.6C506 132.5 502.5 133.9 498.3 133.9ZM489.7 127.6C492 130 494.9 131.2 498.3 131.2C501.7 131.2 504.6 130 506.9 127.6C509.2 125.2 510.4 122.3 510.4 118.9C510.4 115.5 509.2 112.6 506.9 110.2C504.6 107.8 501.7 106.6 498.3 106.6C494.9 106.6 492 107.8 489.7 110.2C487.3 112.6 486.2 115.5 486.2 118.9C486.2 122.3 487.3 125.2 489.7 127.6Z" fill="white"/>
<path d="M533.4 104C536.8 104 539.5 105 541.5 107.1C543.5 109.2 544.5 112 544.5 115.4V133.2H541.6V115.4C541.6 112.7 540.9 110.6 539.4 109C537.9 107.4 535.9 106.6 533.2 106.6C530.3 106.6 527.8 107.6 526 109.5C524.1 111.4 523.2 114.3 523.2 118V133.1H520.3V104.4H523.2V109.8C525.2 106 528.6 104 533.4 104Z" fill="white"/>
<path d="M567.2 107.4H558.7V126.1C558.7 127.7 559 128.9 559.6 129.7C560.2 130.4 561.1 130.8 562.4 130.9C563.7 131 565.3 130.9 567.2 130.8V133.4C563.3 134 560.5 133.7 558.6 132.6C556.7 131.5 555.8 129.4 555.8 126.2V107.6H549.5V104.8H555.8V97.6002L558.7 96.7002V104.7H567.2V107.4Z" fill="white"/>
<path d="M587.2 104C590.6 104 593.3 105 595.3 107.1C597.3 109.2 598.3 112 598.3 115.4V133.2H595.4V115.4C595.4 112.7 594.7 110.6 593.2 109C591.7 107.4 589.7 106.6 587 106.6C584.1 106.6 581.6 107.6 579.8 109.5C577.9 111.4 577 114.3 577 118V133.1H574.1V93H577V110.1C579 106 582.5 104 587.2 104Z" fill="white"/>
<path d="M69.2 45.1002C69.2 67.3002 53 84.5002 31.3 84.5002H0V5.7002H31.3C53 5.7002 69.2 22.9002 69.2 45.1002ZM54.3 45.1002C54.3 30.6002 44.8 20.6002 31.2 20.6002H15.5V69.7002H31.3C44.9 69.6002 54.3 59.6002 54.3 45.1002Z" fill="white"/>
<path d="M107.7 72.9002C113.3 72.9002 117.8 70.5002 120.3 67.3002L132 74.1002C126.7 81.8002 118.3 86.1002 107.5 86.1002C88.6002 86.1002 76.7002 73.2002 76.7002 56.4002C76.7002 39.6002 88.7002 26.7002 106.4 26.7002C123.1 26.7002 134.9 39.9002 134.9 56.4002C134.9 58.5002 134.7 60.5002 134.3 62.4002H91.8002C93.8002 69.7002 100 72.9002 107.7 72.9002ZM120.3 51.0002C118.5 42.9002 112.4 39.6002 106.3 39.6002C98.5002 39.6002 93.2002 43.8002 91.6002 51.0002H120.3Z" fill="white"/>
<path d="M185.1 68.0001C185.1 80.2001 174.5 86.0001 162.5 86.0001C151.2 86.0001 142.9 81.3001 138.9 72.6001L151.5 65.5001C153.1 70.1001 156.9 72.8001 162.5 72.8001C167.1 72.8001 170.3 71.2001 170.3 68.0001C170.3 59.8001 141.3 64.3001 141.3 44.5001C141.3 33.0001 151.1 26.6001 162.7 26.6001C171.8 26.6001 179.7 30.8001 184.1 38.5001L171.7 45.3001C170 41.7001 166.9 39.6001 162.7 39.6001C159.1 39.6001 156.2 41.2001 156.2 44.2001C156.1 52.5001 185.1 47.3001 185.1 68.0001Z" fill="white"/>
<path d="M212.2 42.0998V65.4998C212.2 71.5998 216.6 71.6998 224.9 71.1998V84.3998C204.5 86.6998 197.7 80.6998 197.7 65.4998V42.0998H187.9V28.0998H197.7V16.6998L212.2 12.2998V28.0998H224.9V42.0998H212.2Z" fill="white"/>
<path d="M233.5 12.5C233.5 7.7 237.6 3.5 242.4 3.5C247.4 3.5 251.4 7.7 251.4 12.5C251.4 17.3 247.3 21.4 242.4 21.4C237.5 21.4 233.5 17.4 233.5 12.5ZM235.2 28.2H249.7V84.5H235.2V28.2Z" fill="white"/>
<path d="M315.5 49.9001V84.4001H301V51.7001C301 44.0001 296.4 40.1001 289.9 40.1001C282.8 40.1001 277.5 44.3001 277.5 54.1001V84.5001H263V28.2001H277.5V34.5001C280.9 29.4001 286.7 26.6001 294.3 26.6001C306.2 26.6001 315.5 34.9001 315.5 49.9001Z" fill="white"/>
<path d="M385.2 28.2002V84.5002H370.7V77.9002C366.6 83.0002 360.6 86.1002 352.4 86.1002C337.4 86.1002 325.1 73.2002 325.1 56.4002C325.1 39.6002 337.5 26.7002 352.4 26.7002C360.6 26.7002 366.7 29.9002 370.7 34.9002V28.3002H385.2V28.2002ZM370.7 56.3002C370.7 46.8002 364.1 40.4002 355.1 40.4002C346.2 40.4002 339.6 46.8002 339.6 56.3002C339.6 65.8002 346.2 72.2002 355.1 72.2002C364 72.2002 370.7 65.8002 370.7 56.3002Z" fill="white"/>
<path d="M417.8 42.0998V65.4998C417.8 71.5998 422.2 71.6998 430.5 71.1998V84.3998C410.1 86.6998 403.3 80.6998 403.3 65.4998V42.0998H393.5V28.0998H403.3V16.6998L417.8 12.2998V28.0998H430.5V42.0998H417.8Z" fill="white"/>
<path d="M549.8 51.3C535.4 50.1 521 48.9 506.4 47.7C509.1 43.6 511.7 39.6 514.3 35.6C514.2 35.5 514.1 35.5 514.1 35.4C510.2 38 506.2 40.6 502.1 43.3C500.9 28.7 499.7 14.3 498.4 0C498.3 0 498.2 0 498.1 0C496.9 14.4 495.7 28.7 494.4 43.3C490.2 40.6 486.3 38 482.3 35.4C482.2 35.5 482.2 35.5 482.1 35.6C484.7 39.6 487.3 43.5 490 47.6C475.4 48.8 460.9 50 446.5 51.3C446.5 51.4 446.5 51.5 446.5 51.6C460.9 52.8 475.3 54 490 55.3C487.3 59.4 484.7 63.4 482.1 67.4C482.2 67.5 482.3 67.5 482.3 67.6C486.3 65 490.2 62.4 494.3 59.7C495.5 74.3 496.7 88.7 498 103C498.1 103 498.2 103 498.3 103C499.5 88.6 500.7 74.3 501.9 59.7C506.1 62.4 510 65 513.9 67.6L514.1 67.4C511.5 63.5 508.9 59.5 506.2 55.4C520.8 54.2 535.2 53 549.6 51.8V51.3H549.8ZM498.2 56.4C495.4 56.4 493.2 54.2 493.2 51.4C493.2 48.6 495.4 46.4 498.2 46.4C501 46.4 503.2 48.6 503.2 51.4C503.3 54.2 501.1 56.4 498.2 56.4Z" fill="white"/>
<path d="M494 81.5002C481.2 80.2002 469.5 68.8002 468.2 55.7002C469.3 55.8002 470.2 55.9002 471.2 55.9002C472 55.9002 472.3 56.2002 472.4 57.0002C473.7 63.2002 476.9 68.2002 481.8 72.1002C485 74.7002 488.6 76.4002 492.7 77.2002C493.4 77.4002 493.8 77.6002 493.8 78.4002C493.8 79.5002 493.9 80.5002 494 81.5002Z" fill="white"/>
<path d="M494 21.2998C493.9 22.4998 493.9 23.6998 493.7 24.6998C493.6 24.9998 493.1 25.3998 492.7 25.4998C487.7 26.5998 483.3 28.9998 479.7 32.5998C476 36.2998 473.6 40.5998 472.5 45.6998C472.3 46.5998 471.9 46.8998 471 46.8998C470.1 46.8998 469.3 46.9998 468.4 47.0998C468.4 47.0998 468.3 47.0998 468.3 46.9998C469.4 34.5998 480.6 22.7998 494 21.2998Z" fill="white"/>
<path d="M528.4 47.1002C527.2 47.0002 525.9 46.9002 524.7 46.7002C524.5 46.7002 524.2 46.1002 524.1 45.8002C523 40.6002 520.5 36.1002 516.7 32.4002C513.1 28.9002 508.9 26.5002 503.9 25.5002C503 25.3002 502.6 24.9002 502.7 24.0002C502.7 23.1002 502.6 22.2002 502.5 21.2002C514.9 22.5002 526.9 33.5002 528.4 47.1002Z" fill="white"/>
<path d="M528.5 55.7002C527.7 61.6002 525.4 66.7002 521.6 71.2002C516.6 77.0002 510.3 80.5002 502.6 81.7002C502.7 80.4002 502.7 79.2002 502.9 78.1002C503 77.8002 503.5 77.4002 503.9 77.3002C509 76.2002 513.4 73.7002 517.1 70.0002C520.8 66.3002 523.1 61.9002 524.2 56.8002C524.3 56.1002 524.6 55.9002 525.3 55.8002C526.3 55.9002 527.3 55.8002 528.5 55.7002Z" fill="white"/>
<path d="M501.9 51.3999C501.9 53.2999 500.3 54.9999 498.4 54.9999C496.5 54.9999 494.8 53.3999 494.8 51.4999C494.8 50.9999 494.9 50.4999 495.1 50.0999C495.2 49.8999 495.3 49.6999 495.4 49.4999C496 48.5999 497.1 47.8999 498.3 47.8999C499.3 47.8999 500.2 48.2999 500.8 48.8999C500.9 48.9999 501 49.0999 501 49.0999C501.5 49.6999 501.8 50.4999 501.9 51.3999Z" fill="white"/>
<path d="M572.7 26.6001C565.2 26.6001 559.3 29.4001 555.9 34.5001V28.2001H541.4V49.1001C544.2 49.3001 547 49.6001 549.8 49.8001C550.6 49.9001 551.2 50.5001 551.2 51.3001V51.6001C551.2 52.4001 550.6 53.0001 549.8 53.1001L541.4 53.8001V84.5001H556V54.1001C556 44.3001 561.3 40.1001 568.4 40.1001C574.9 40.1001 579.5 44.0001 579.5 51.7001V84.4001H594V49.9001C594 34.9001 584.7 26.6001 572.7 26.6001Z" fill="white"/>
<path d="M448 21.4C453 21.4 457 17.3 457 12.5C457 7.7 452.9 3.5 448 3.5C443.2 3.5 439.1 7.7 439.1 12.5C439.1 17.3 443.1 21.4 448 21.4Z" fill="white"/>
<path d="M448.7 53.2001L446.5 53.0001C445.7 52.9001 445.1 52.3001 445.1 51.5001C445.1 51.4001 445.1 51.3001 445.1 51.2001C445.1 50.4001 445.7 49.8001 446.5 49.7001C446.5 49.7001 450.1 49.4001 455.2 49.0001V28.1001H440.7V84.4001H455.2V53.7001C453.1 53.6001 450.9 53.4001 448.7 53.2001Z" fill="white"/>
<rect x="614.3" y="2" width="8.75916" height="130" fill="white"/>
<path d="M663.684 74.134C652.101 74.134 644.487 68.545 641.409 60.121L650.967 54.532C652.992 59.797 656.961 63.199 664.008 63.199C670.731 63.199 673.08 60.364 673.08 57.205C673.08 52.993 669.273 51.373 660.849 48.943C652.182 46.432 643.758 42.787 643.758 32.014C643.758 21.322 652.668 15.166 662.388 15.166C671.703 15.166 678.831 19.945 682.638 27.883L673.242 33.31C671.217 29.017 668.139 26.02 662.388 26.02C657.69 26.02 654.936 28.45 654.936 31.69C654.936 35.173 657.123 37.036 665.709 39.628C674.7 42.463 684.258 45.46 684.258 57.043C684.258 67.654 675.753 74.134 663.684 74.134ZM727.128 73L723.726 62.794H701.127L697.725 73H685.656L705.501 16.3H719.352L739.278 73H727.128ZM704.691 52.345H720.243L712.467 29.179L704.691 52.345ZM777.589 16.3H788.767V73H780.262L755.962 38.332V73H744.784V16.3H753.289L777.589 50.887V16.3ZM835.654 74.134C826.987 74.134 820.426 70.408 816.943 63.361L826.582 57.853C828.364 61.417 830.956 63.199 835.654 63.199C841.81 63.199 844.483 59.959 844.483 55.342V16.3H855.58V55.342C855.58 67.573 846.832 74.134 835.654 74.134ZM892.462 74.134C876.1 74.134 863.059 61.174 863.059 44.65C863.059 28.045 876.1 15.166 892.462 15.166C908.824 15.166 921.946 28.045 921.946 44.65C921.946 61.174 908.824 74.134 892.462 74.134ZM892.462 63.199C902.749 63.199 910.768 55.504 910.768 44.65C910.768 33.715 902.749 26.02 892.462 26.02C882.175 26.02 874.156 33.715 874.156 44.65C874.156 55.504 882.175 63.199 892.462 63.199ZM947.104 74.134C935.521 74.134 927.907 68.545 924.829 60.121L934.387 54.532C936.412 59.797 940.381 63.199 947.428 63.199C954.151 63.199 956.5 60.364 956.5 57.205C956.5 52.993 952.693 51.373 944.269 48.943C935.602 46.432 927.178 42.787 927.178 32.014C927.178 21.322 936.088 15.166 945.808 15.166C955.123 15.166 962.251 19.945 966.058 27.883L956.662 33.31C954.637 29.017 951.559 26.02 945.808 26.02C941.11 26.02 938.356 28.45 938.356 31.69C938.356 35.173 940.543 37.036 949.129 39.628C958.12 42.463 967.678 45.46 967.678 57.043C967.678 67.654 959.173 74.134 947.104 74.134ZM1004.46 0.0999971L995.472 11.197H985.428L991.908 0.0999971H1004.46ZM985.752 62.308H1009.65V73H974.574V16.3H1009.24V26.992H985.752V39.061H1007.22V49.591H985.752V62.308Z" fill="white"/>
<path d="M664.724 134.832C651.092 134.832 641.3 124.592 641.3 111.6C641.3 98.608 651.092 88.368 664.724 88.368C672.916 88.368 680.212 92.528 683.988 99.056L677.588 102.768C675.22 98.352 670.356 95.536 664.724 95.536C655.06 95.536 648.66 102.384 648.66 111.6C648.66 120.816 655.06 127.664 664.724 127.664C670.356 127.664 675.284 124.848 677.588 120.432L683.988 124.08C680.276 130.608 672.98 134.832 664.724 134.832ZM710.782 134.832C697.854 134.832 687.55 124.592 687.55 111.6C687.55 98.608 697.854 88.368 710.782 88.368C723.774 88.368 734.014 98.608 734.014 111.6C734.014 124.592 723.774 134.832 710.782 134.832ZM710.782 127.664C719.742 127.664 726.654 120.816 726.654 111.6C726.654 102.384 719.742 95.536 710.782 95.536C701.822 95.536 694.91 102.384 694.91 111.6C694.91 120.816 701.822 127.664 710.782 127.664ZM753.952 134.832C745.12 134.832 739.04 130.48 736.672 123.824L743.008 120.112C744.608 124.656 748.064 127.664 754.144 127.664C759.968 127.664 762.464 125.04 762.464 121.776C762.464 117.808 758.944 116.464 752.288 114.416C745.312 112.304 738.528 109.744 738.528 101.296C738.528 93.04 745.376 88.368 752.928 88.368C760.288 88.368 765.728 92.272 768.544 98.224L762.336 101.808C760.736 98.224 757.92 95.536 752.928 95.536C748.64 95.536 745.888 97.712 745.888 101.104C745.888 104.56 748.384 106.032 754.912 108.08C762.336 110.448 769.824 112.752 769.824 121.648C769.824 129.84 763.296 134.832 753.952 134.832ZM803.66 89.2V96.24H791.052V134H783.692V96.24H771.02V89.2H803.66ZM835.099 134L831.963 124.976H812.891L809.755 134H801.755L818.011 89.2H826.843L843.035 134H835.099ZM815.323 118.064H829.531L822.427 97.84L815.323 118.064ZM889.388 134L879.916 117.68H871.212V134H863.852V89.2H881.772C889.772 89.2 896.172 95.6 896.172 103.6C896.172 109.36 892.524 114.48 887.276 116.592L897.452 134H889.388ZM871.212 96.112V111.088H881.772C885.676 111.088 888.812 107.76 888.812 103.6C888.812 99.376 885.676 96.112 881.772 96.112H871.212ZM903.102 89.2H910.462V134H903.102V89.2ZM940.599 134.832C926.967 134.832 917.175 124.592 917.175 111.6C917.175 98.608 926.967 88.368 940.599 88.368C948.791 88.368 956.087 92.528 959.863 99.056L953.463 102.768C951.095 98.352 946.231 95.536 940.599 95.536C930.935 95.536 924.535 102.384 924.535 111.6C924.535 120.816 930.935 127.664 940.599 127.664C946.231 127.664 951.159 124.848 953.463 120.432L959.863 124.08C956.151 130.608 948.855 134.832 940.599 134.832ZM994.849 134L991.713 124.976H972.641L969.505 134H961.505L977.761 89.2H986.593L1002.78 134H994.849ZM975.073 118.064H989.281L982.177 97.84L975.073 118.064Z" fill="white"/>
</svg>
