<svg width="830" height="143" viewBox="0 0 830 143" fill="none" xmlns="http://www.w3.org/2000/svg">
<path d="M251.3 102.2H254.2V142.3H251.3V135.6C250.1 137.9 248.4 139.6 246.3 140.9C244.1 142.2 241.7 142.8 239 142.8C234.9 142.8 231.4 141.4 228.5 138.5C225.6 135.6 224.2 132.1 224.2 127.9C224.2 123.7 225.6 120.2 228.5 117.3C231.4 114.4 234.9 113 239 113C241.7 113 244.1 113.7 246.3 114.9C248.5 116.2 250.1 118 251.3 120.2V102.2ZM230.5 136.6C232.9 139 235.7 140.2 239.1 140.2C242.5 140.2 245.4 139 247.7 136.6C250.1 134.2 251.2 131.3 251.2 127.9C251.2 124.5 250 121.6 247.7 119.2C245.3 116.8 242.5 115.6 239.1 115.6C235.7 115.6 232.8 116.8 230.5 119.2C228.1 121.6 227 124.5 227 127.9C227 131.3 228.2 134.3 230.5 136.6Z" fill="#0032A0"/>
<path d="M276.1 142.9C271.9 142.9 268.3 141.5 265.4 138.6C262.5 135.7 261 132.2 261 128C261 123.8 262.5 120.3 265.4 117.4C268.3 114.5 271.9 113.1 276.1 113.1C280.3 113.1 283.8 114.5 286.7 117.4C289.6 120.3 291.1 123.8 291.1 128C291.1 132.2 289.6 135.7 286.7 138.6C283.8 141.5 280.3 142.9 276.1 142.9ZM267.5 136.6C269.9 139 272.7 140.2 276.1 140.2C279.5 140.2 282.4 139 284.7 136.6C287 134.2 288.2 131.3 288.2 127.9C288.2 124.5 287 121.6 284.7 119.2C282.4 116.8 279.5 115.6 276.1 115.6C272.7 115.6 269.8 116.8 267.5 119.2C265.1 121.6 264 124.5 264 127.9C264 131.3 265.1 134.3 267.5 136.6Z" fill="#0032A0"/>
<path d="M343.9 113C347 113 349.6 114 351.5 115.9C353.4 117.8 354.4 120.6 354.4 124.1V142.3H351.5V124.1C351.5 121.4 350.8 119.4 349.4 117.9C348 116.4 346.2 115.7 343.9 115.7C341.3 115.7 339.3 116.6 337.7 118.3C336.1 120.1 335.3 122.7 335.3 126.2V142.2H332.4V124C332.4 121.3 331.7 119.3 330.4 117.8C329.1 116.3 327.3 115.6 325 115.6C322.5 115.6 320.4 116.5 318.7 118.3C317 120.1 316.1 122.7 316.1 126.2V142.2H313.2V113.5H316.1V118.4C318.1 114.7 321.2 112.8 325.3 112.8C327.4 112.8 329.2 113.3 330.8 114.3C332.4 115.3 333.5 116.8 334.2 118.6C335.2 116.7 336.5 115.2 338.2 114.2C340.1 113.5 342 113 343.9 113Z" fill="#0032A0"/>
<path d="M375.4 113C379.6 113 383 114.5 385.6 117.5C388.2 120.5 389.5 124 389.5 128.1C389.5 128.3 389.5 128.5 389.5 128.8C389.5 129.1 389.5 129.3 389.5 129.5H363.5C363.8 132.7 365.1 135.3 367.4 137.3C369.7 139.3 372.4 140.3 375.7 140.3C378 140.3 380 139.8 381.7 138.9C383.4 137.9 384.7 136.7 385.6 135.1L388.1 136.6C386.9 138.6 385.2 140.2 383.1 141.3C380.9 142.5 378.4 143 375.6 143C371.2 143 367.6 141.6 364.8 138.8C362 136 360.6 132.4 360.6 128.1C360.6 123.8 362 120.3 364.8 117.4C367.4 114.4 371 113 375.4 113ZM375.4 115.8C372.2 115.8 369.4 116.8 367.3 118.8C365.2 120.8 363.9 123.4 363.6 126.7H386.6C386.3 123.3 385.1 120.6 383 118.7C380.8 116.7 378.3 115.8 375.4 115.8ZM375 104.1L370.4 109.6H367.1L373.3 102.3L376.6 102.4L382.9 109.8L379.6 109.6L375 104.1Z" fill="#0032A0"/>
<path d="M397 121.1C397 122.5 397.6 123.6 398.8 124.4C400 125.2 401.4 125.8 403.1 126.3C404.8 126.7 406.5 127.2 408.2 127.6C409.9 128.1 411.4 128.9 412.5 130.1C413.7 131.3 414.3 132.9 414.3 134.9C414.3 137.3 413.4 139.2 411.5 140.7C409.6 142.2 407.1 143 404.1 143C401.3 143 399 142.4 397.1 141.3C395.2 140.1 393.9 138.6 393.2 136.7L395.7 135.3C396.2 136.9 397.2 138.1 398.7 139C400.2 139.9 402 140.3 404.1 140.3C406.2 140.3 408 139.8 409.4 138.9C410.8 138 411.5 136.6 411.5 134.9C411.5 133.5 410.9 132.4 409.7 131.5C408.5 130.7 407.1 130 405.4 129.6C403.7 129.2 402 128.7 400.3 128.2C398.6 127.7 397.1 126.9 395.9 125.8C394.7 124.7 394.1 123.1 394.1 121.2C394.1 118.9 395 117 396.8 115.4C398.6 113.8 401 113 403.8 113C406.1 113 408.1 113.5 409.8 114.5C411.5 115.5 412.8 116.9 413.6 118.7L411.2 120.1C410.6 118.7 409.7 117.6 408.3 116.9C407 116.2 405.5 115.8 403.8 115.8C401.9 115.8 400.2 116.3 398.9 117.2C397.7 118.2 397 119.5 397 121.1Z" fill="#0032A0"/>
<path d="M31.3 14.7002C42.1 14.7002 51.1 18.5002 58.4 26.1002C65.6 33.7002 69.3 43.0002 69.3 54.1002C69.3 65.2002 65.7 74.5002 58.4 82.1002C51.2 89.7002 42.1 93.5002 31.3 93.5002H0V14.8002H31.3V14.7002ZM31.3 78.6002C38.1 78.6002 43.7 76.3002 47.9 71.8002C52.2 67.3002 54.3 61.4002 54.3 54.1002C54.3 46.8002 52.2 40.9002 47.9 36.4002C43.6 31.9002 38.1 29.6002 31.3 29.6002H15.5V78.6002H31.3Z" fill="#0032A0"/>
<path d="M91.8002 71.3001C93.7002 78.4001 99.0002 81.9001 107.7 81.9001C113.2 81.9001 117.4 80.0001 120.3 76.3001L132 83.0001C126.4 91.0001 118.3 95.0001 107.5 95.0001C98.2002 95.0001 90.7002 92.2001 85.1002 86.6001C79.5002 81.0001 76.7002 73.9001 76.7002 65.3001C76.7002 56.8001 79.5002 49.8001 85.0002 44.1001C90.5002 38.4001 97.7002 35.6001 106.4 35.6001C114.6 35.6001 121.5 38.5001 126.8 44.1001C132.2 49.8001 134.8 56.9001 134.8 65.2001C134.8 67.1001 134.6 69.1001 134.2 71.2001H91.8002V71.3001ZM91.6002 60.0001H120.3C119.5 56.2001 117.8 53.3001 115.2 51.5001C112.6 49.6001 109.7 48.7001 106.4 48.7001C102.5 48.7001 99.3002 49.7001 96.7002 51.7001C94.1002 53.6001 92.4002 56.4001 91.6002 60.0001Z" fill="#0032A0"/>
<path d="M156 53.1998C156 54.6998 157 55.8998 159 56.8998C161 57.7998 163.4 58.6998 166.3 59.3998C169.1 60.0998 172 60.9998 174.8 62.0998C177.6 63.1998 180.1 64.9998 182.1 67.5998C184.1 70.1998 185.1 73.2998 185.1 77.1998C185.1 82.9998 182.9 87.3998 178.6 90.4998C174.3 93.5998 168.9 95.1998 162.5 95.1998C151 95.1998 143.1 90.6998 138.9 81.7998L151.5 74.6998C153.1 79.5998 156.8 81.9998 162.5 81.9998C167.7 81.9998 170.3 80.3998 170.3 77.1998C170.3 75.6998 169.3 74.4998 167.3 73.4998C165.3 72.5998 162.9 71.6998 160 70.9998C157.1 70.2998 154.3 69.2998 151.5 68.1998C148.6 67.0998 146.2 65.2998 144.2 62.8998C142.2 60.4998 141.2 57.3998 141.2 53.6998C141.2 48.1998 143.2 43.7998 147.3 40.5998C151.4 37.3998 156.5 35.7998 162.5 35.7998C167.1 35.7998 171.2 36.7998 175 38.8998C178.7 40.9998 181.7 43.8998 183.9 47.6998L171.5 54.3998C169.7 50.5998 166.7 48.6998 162.5 48.6998C160.6 48.6998 159.1 49.0998 157.8 49.8998C156.6 50.5998 156 51.6998 156 53.1998Z" fill="#0032A0"/>
<path d="M224.9 51.0999H212.2V74.4999C212.2 76.4999 212.7 77.8999 213.7 78.7999C214.7 79.6999 216.1 80.1999 218 80.2999C219.9 80.3999 222.2 80.4 225 80.2V93.3999C215 94.4999 208 93.5999 203.9 90.5999C199.8 87.5999 197.8 82.1999 197.8 74.4999V51.0999H188V37.2H197.8V25.7999L212.3 21.3999V37.0999H225V51.0999H224.9Z" fill="#0032A0"/>
<path d="M242.3 30.4001C239.9 30.4001 237.8 29.5001 236.1 27.8001C234.3 26.0001 233.5 24.0001 233.5 21.6001C233.5 19.2001 234.4 17.1001 236.1 15.3001C237.9 13.5001 239.9 12.6001 242.3 12.6001C244.8 12.6001 246.9 13.5001 248.7 15.3001C250.5 17.1001 251.3 19.2001 251.3 21.6001C251.3 24.0001 250.4 26.1001 248.7 27.8001C246.9 29.6001 244.8 30.4001 242.3 30.4001ZM235.1 93.4001V37.2001H249.6V93.4001H235.1Z" fill="#0032A0"/>
<path d="M409.9 60.3C395.5 59.1 381.1 57.9 366.5 56.7C369.2 52.6 371.8 48.6 374.4 44.6C374.3 44.5 374.2 44.5 374.2 44.4C370.3 47 366.3 49.6 362.2 52.3C361 37.7 359.8 23.3 358.5 9C358.4 9 358.3 9 358.2 9C357 23.4 355.8 37.7 354.5 52.3C350.3 49.6 346.4 47 342.4 44.4C342.3 44.5 342.3 44.5 342.2 44.6C344.8 48.6 347.4 52.5 350.1 56.6C335.5 57.8 321 59 306.6 60.3C306.6 60.4 306.6 60.5 306.6 60.6C321 61.8 335.4 63 350.1 64.3C347.4 68.4 344.8 72.4 342.2 76.4C342.3 76.5 342.4 76.5 342.4 76.6C346.4 74 350.3 71.4 354.4 68.7C355.6 83.3 356.8 97.7 358.1 112C358.2 112 358.3 112 358.4 112C359.6 97.6 360.8 83.3 362 68.7C366.2 71.4 370.1 74 374 76.6L374.2 76.4C371.6 72.5 369 68.5 366.3 64.4C380.9 63.2 395.3 62 409.7 60.8V60.3H409.9ZM358.4 65.4C355.6 65.4 353.4 63.2 353.4 60.4C353.4 57.6 355.6 55.4 358.4 55.4C361.2 55.4 363.4 57.6 363.4 60.4C363.4 63.3 361.3 65.4 358.4 65.4Z" fill="#0032A0"/>
<path d="M354.1 90.5002C341.3 89.2002 329.6 77.8002 328.3 64.7002C329.4 64.8002 330.3 64.9001 331.3 64.9001C332.1 64.9001 332.4 65.2002 332.5 66.0002C333.8 72.2002 337 77.2002 341.9 81.1002C345.1 83.7002 348.7 85.4002 352.8 86.2002C353.5 86.4002 353.9 86.6001 353.9 87.4001C353.9 88.5001 354.1 89.5002 354.1 90.5002Z" fill="#3FA9F5"/>
<path d="M354.2 30.2998C354.1 31.4998 354.1 32.6998 353.9 33.6998C353.8 33.9998 353.3 34.3998 352.9 34.4998C347.9 35.5998 343.5 37.9998 339.9 41.5998C336.2 45.2998 333.8 49.5998 332.7 54.6998C332.5 55.5998 332.1 55.8998 331.2 55.8998C330.3 55.8998 329.5 55.9998 328.6 56.0998C328.6 56.0998 328.5 56.0998 328.5 55.9998C329.5 43.5998 340.7 31.7998 354.2 30.2998Z" fill="#3FA9F5"/>
<path d="M388.5 56.1998C387.3 56.0998 386 55.9998 384.8 55.7998C384.6 55.7998 384.3 55.1998 384.2 54.8998C383.1 49.6998 380.6 45.1998 376.8 41.4998C373.2 37.9998 369 35.5998 364 34.5998C363.1 34.3998 362.7 33.9998 362.8 33.0998C362.8 32.1998 362.7 31.2998 362.6 30.2998C375 31.4998 387.1 42.4998 388.5 56.1998Z" fill="#3FA9F5"/>
<path d="M388.6 64.7002C387.8 70.6002 385.5 75.7002 381.7 80.2002C376.7 86.0002 370.4 89.5002 362.7 90.7002C362.8 89.4002 362.8 88.2002 363 87.1002C363.1 86.8002 363.6 86.4002 364 86.3002C369.1 85.2002 373.5 82.7002 377.2 79.0002C380.9 75.3002 383.2 70.9002 384.3 65.8002C384.4 65.1002 384.7 64.9002 385.4 64.8002C386.4 64.9002 387.4 64.8002 388.6 64.7002Z" fill="#3FA9F5"/>
<path d="M362 60.3999C362 62.2999 360.4 63.9999 358.5 63.9999C356.6 63.9999 354.9 62.3999 354.9 60.4999C354.9 59.9999 355 59.4999 355.2 59.0999C355.3 58.8999 355.4 58.6999 355.5 58.4999C356.1 57.5999 357.2 56.8999 358.4 56.8999C359.4 56.8999 360.3 57.2999 360.9 57.8999C361 57.9999 361.1 58.0999 361.1 58.0999C361.7 58.7999 362 59.5999 362 60.3999Z" fill="#3FA9F5"/>
<path d="M315.4 62.8001C313.2 62.6001 311 62.4001 308.9 62.3001L306.7 62.1001C305.9 62.0001 305.3 61.4001 305.3 60.6001C305.3 60.5001 305.3 60.4001 305.3 60.3001C305.3 59.5001 305.9 58.9001 306.7 58.8001C306.7 58.8001 310.3 58.5001 315.4 58.1001C315.3 51.2001 313.3 45.8001 309.4 41.8001C305.4 37.7001 300.3 35.6001 294.2 35.6001C286.6 35.6001 281 38.2001 277.4 43.5001V37.2001H262.9V93.4001H277.4V63.0001C277.4 58.4001 278.5 54.9001 280.8 52.5001C283 50.2001 286 49.0001 289.8 49.0001C293.2 49.0001 295.9 50.0001 297.9 52.0001C299.9 54.0001 300.9 56.9001 300.9 60.6001V93.3001H315.4V62.8001Z" fill="#0032A0"/>
<rect x="430.3" y="11" width="8.75916" height="130" fill="#47ABEE"/>
<path d="M479.684 74.634C468.101 74.634 460.487 69.045 457.409 60.621L466.967 55.032C468.992 60.297 472.961 63.699 480.008 63.699C486.731 63.699 489.08 60.864 489.08 57.705C489.08 53.493 485.273 51.873 476.849 49.443C468.182 46.932 459.758 43.287 459.758 32.514C459.758 21.822 468.668 15.666 478.388 15.666C487.703 15.666 494.831 20.445 498.638 28.383L489.242 33.81C487.217 29.517 484.139 26.52 478.388 26.52C473.69 26.52 470.936 28.95 470.936 32.19C470.936 35.673 473.123 37.536 481.709 40.128C490.7 42.963 500.258 45.96 500.258 57.543C500.258 68.154 491.753 74.634 479.684 74.634ZM543.128 73.5L539.726 63.294H517.127L513.725 73.5H501.656L521.501 16.8H535.352L555.278 73.5H543.128ZM520.691 52.845H536.243L528.467 29.679L520.691 52.845ZM593.589 16.8H604.767V73.5H596.262L571.962 38.832V73.5H560.784V16.8H569.289L593.589 51.387V16.8ZM651.654 74.634C642.987 74.634 636.426 70.908 632.943 63.861L642.582 58.353C644.364 61.917 646.956 63.699 651.654 63.699C657.81 63.699 660.483 60.459 660.483 55.842V16.8H671.58V55.842C671.58 68.073 662.832 74.634 651.654 74.634ZM708.462 74.634C692.1 74.634 679.059 61.674 679.059 45.15C679.059 28.545 692.1 15.666 708.462 15.666C724.824 15.666 737.946 28.545 737.946 45.15C737.946 61.674 724.824 74.634 708.462 74.634ZM708.462 63.699C718.749 63.699 726.768 56.004 726.768 45.15C726.768 34.215 718.749 26.52 708.462 26.52C698.175 26.52 690.156 34.215 690.156 45.15C690.156 56.004 698.175 63.699 708.462 63.699ZM763.104 74.634C751.521 74.634 743.907 69.045 740.829 60.621L750.387 55.032C752.412 60.297 756.381 63.699 763.428 63.699C770.151 63.699 772.5 60.864 772.5 57.705C772.5 53.493 768.693 51.873 760.269 49.443C751.602 46.932 743.178 43.287 743.178 32.514C743.178 21.822 752.088 15.666 761.808 15.666C771.123 15.666 778.251 20.445 782.058 28.383L772.662 33.81C770.637 29.517 767.559 26.52 761.808 26.52C757.11 26.52 754.356 28.95 754.356 32.19C754.356 35.673 756.543 37.536 765.129 40.128C774.12 42.963 783.678 45.96 783.678 57.543C783.678 68.154 775.173 74.634 763.104 74.634ZM820.463 0.599997L811.472 11.697H801.428L807.908 0.599997H820.463ZM801.752 62.808H825.647V73.5H790.574V16.8H825.242V27.492H801.752V39.561H823.217V50.091H801.752V62.808Z" fill="#0032A0"/>
<path d="M481.125 136.345C467.28 136.345 457.335 125.945 457.335 112.75C457.335 99.555 467.28 89.155 481.125 89.155C489.445 89.155 496.855 93.38 500.69 100.01L494.19 103.78C491.785 99.295 486.845 96.435 481.125 96.435C471.31 96.435 464.81 103.39 464.81 112.75C464.81 122.11 471.31 129.065 481.125 129.065C486.845 129.065 491.85 126.205 494.19 121.72L500.69 125.425C496.92 132.055 489.51 136.345 481.125 136.345ZM527.902 136.345C514.772 136.345 504.307 125.945 504.307 112.75C504.307 99.555 514.772 89.155 527.902 89.155C541.097 89.155 551.497 99.555 551.497 112.75C551.497 125.945 541.097 136.345 527.902 136.345ZM527.902 129.065C537.002 129.065 544.022 122.11 544.022 112.75C544.022 103.39 537.002 96.435 527.902 96.435C518.802 96.435 511.782 103.39 511.782 112.75C511.782 122.11 518.802 129.065 527.902 129.065ZM571.747 136.345C562.777 136.345 556.602 131.925 554.197 125.165L560.632 121.395C562.257 126.01 565.767 129.065 571.942 129.065C577.857 129.065 580.392 126.4 580.392 123.085C580.392 119.055 576.817 117.69 570.057 115.61C562.972 113.465 556.082 110.865 556.082 102.285C556.082 93.9 563.037 89.155 570.707 89.155C578.182 89.155 583.707 93.12 586.567 99.165L580.262 102.805C578.637 99.165 575.777 96.435 570.707 96.435C566.352 96.435 563.557 98.645 563.557 102.09C563.557 105.6 566.092 107.095 572.722 109.175C580.262 111.58 587.867 113.92 587.867 122.955C587.867 131.275 581.237 136.345 571.747 136.345ZM622.231 90V97.15H609.426V135.5H601.951V97.15H589.081V90H622.231ZM654.162 135.5L650.977 126.335H631.607L628.422 135.5H620.297L636.807 90H645.777L662.222 135.5H654.162ZM634.077 119.315H648.507L641.292 98.775L634.077 119.315ZM709.299 135.5L699.679 118.925H690.839V135.5H683.364V90H701.564C709.689 90 716.189 96.5 716.189 104.625C716.189 110.475 712.484 115.675 707.154 117.82L717.489 135.5H709.299ZM690.839 97.02V112.23H701.564C705.529 112.23 708.714 108.85 708.714 104.625C708.714 100.335 705.529 97.02 701.564 97.02H690.839ZM723.228 90H730.703V135.5H723.228V90ZM761.31 136.345C747.465 136.345 737.52 125.945 737.52 112.75C737.52 99.555 747.465 89.155 761.31 89.155C769.63 89.155 777.04 93.38 780.875 100.01L774.375 103.78C771.97 99.295 767.03 96.435 761.31 96.435C751.495 96.435 744.995 103.39 744.995 112.75C744.995 122.11 751.495 129.065 761.31 129.065C767.03 129.065 772.035 126.205 774.375 121.72L780.875 125.425C777.105 132.055 769.695 136.345 761.31 136.345ZM816.408 135.5L813.223 126.335H793.853L790.668 135.5H782.543L799.053 90H808.023L824.468 135.5H816.408ZM796.323 119.315H810.753L803.538 98.775L796.323 119.315Z" fill="#47ABEE"/>
</svg>
